<svg width="870" height="33" viewBox="0 0 870 33" fill="none" xmlns="http://www.w3.org/2000/svg">
<circle cx="16.5" cy="16.5237" r="15" fill="white" stroke="#635EFD" stroke-width="2"/>
<path d="M45.7784 22.5237V10.8873H50.0398C50.8655 10.8873 51.5492 11.0237 52.0909 11.2964C52.6326 11.5653 53.0379 11.9309 53.3068 12.393C53.5758 12.8513 53.7102 13.3684 53.7102 13.9441C53.7102 14.429 53.6212 14.8381 53.4432 15.1714C53.2652 15.501 53.0265 15.7661 52.7273 15.9669C52.4318 16.1638 52.1061 16.3078 51.75 16.3987V16.5123C52.1364 16.5313 52.5133 16.6563 52.8807 16.8873C53.2519 17.1146 53.5587 17.4385 53.8011 17.8589C54.0436 18.2794 54.1648 18.7907 54.1648 19.393C54.1648 19.9877 54.0246 20.5218 53.7443 20.9953C53.4678 21.465 53.0398 21.8381 52.4602 22.1146C51.8807 22.3873 51.1402 22.5237 50.2386 22.5237H45.7784ZM47.5341 21.018H50.0682C50.9091 21.018 51.5114 20.8551 51.875 20.5294C52.2386 20.2036 52.4205 19.7964 52.4205 19.3078C52.4205 18.9403 52.3277 18.6032 52.142 18.2964C51.9564 17.9896 51.6913 17.7453 51.3466 17.5635C51.0057 17.3816 50.6004 17.2907 50.1307 17.2907H47.5341V21.018ZM47.5341 15.9214H49.8864C50.2803 15.9214 50.6345 15.8457 50.9489 15.6941C51.267 15.5426 51.5189 15.3305 51.7045 15.0578C51.8939 14.7813 51.9886 14.4555 51.9886 14.0805C51.9886 13.5994 51.8201 13.196 51.483 12.8703C51.1458 12.5445 50.6288 12.3816 49.9318 12.3816H47.5341V15.9214ZM58.6506 22.7169C58.0975 22.7169 57.5975 22.6146 57.1506 22.41C56.7036 22.2017 56.3494 21.9006 56.0881 21.5066C55.8305 21.1127 55.7017 20.6297 55.7017 20.0578C55.7017 19.5653 55.7964 19.16 55.9858 18.8419C56.1752 18.5237 56.4309 18.2718 56.7528 18.0862C57.0748 17.9006 57.4347 17.7604 57.8324 17.6657C58.2301 17.571 58.6354 17.4991 59.0483 17.4498C59.571 17.3892 59.9953 17.34 60.321 17.3021C60.6468 17.2604 60.8835 17.1941 61.0312 17.1032C61.179 17.0123 61.2528 16.8646 61.2528 16.66V16.6203C61.2528 16.1241 61.1127 15.7396 60.8324 15.4669C60.5559 15.1941 60.143 15.0578 59.5938 15.0578C59.0218 15.0578 58.571 15.1847 58.2415 15.4385C57.9157 15.6885 57.6903 15.9669 57.5653 16.2737L55.9688 15.91C56.1581 15.3797 56.4347 14.9517 56.7983 14.626C57.1657 14.2964 57.5881 14.0578 58.0653 13.91C58.5426 13.7585 59.0445 13.6828 59.571 13.6828C59.9195 13.6828 60.2888 13.7244 60.679 13.8078C61.0729 13.8873 61.4403 14.035 61.7812 14.251C62.1259 14.4669 62.4081 14.7756 62.6278 15.1771C62.8475 15.5748 62.9574 16.0919 62.9574 16.7282V22.5237H61.2983V21.3305H61.2301C61.1203 21.5502 60.9555 21.7661 60.7358 21.9782C60.5161 22.1903 60.2339 22.3665 59.8892 22.5066C59.5445 22.6468 59.1316 22.7169 58.6506 22.7169ZM59.0199 21.3532C59.4896 21.3532 59.8911 21.2604 60.2244 21.0748C60.5616 20.8892 60.8172 20.6468 60.9915 20.3475C61.1695 20.0445 61.2585 19.7207 61.2585 19.376V18.251C61.1979 18.3116 61.0805 18.3684 60.9062 18.4214C60.7358 18.4707 60.5407 18.5142 60.321 18.5521C60.1013 18.5862 59.8873 18.6184 59.679 18.6487C59.4706 18.6752 59.2964 18.6979 59.1562 18.7169C58.8267 18.7585 58.5256 18.8286 58.2528 18.9271C57.9839 19.0256 57.768 19.1676 57.6051 19.3532C57.446 19.535 57.3665 19.7775 57.3665 20.0805C57.3665 20.501 57.5218 20.8191 57.8324 21.035C58.143 21.2472 58.5388 21.3532 59.0199 21.3532ZM71.7599 15.9271L70.2202 16.1998C70.1558 16.0028 70.0535 15.8153 69.9134 15.6373C69.777 15.4593 69.5914 15.3135 69.3565 15.1998C69.1217 15.0862 68.8281 15.0294 68.4759 15.0294C67.9948 15.0294 67.5933 15.1373 67.2713 15.3532C66.9493 15.5653 66.7884 15.84 66.7884 16.1771C66.7884 16.4688 66.8963 16.7036 67.1122 16.8816C67.3281 17.0597 67.6766 17.2055 68.1577 17.3191L69.544 17.6373C70.3471 17.8229 70.9455 18.1089 71.3395 18.4953C71.7334 18.8816 71.9304 19.3835 71.9304 20.001C71.9304 20.5237 71.7789 20.9896 71.4759 21.3987C71.1766 21.804 70.758 22.1222 70.2202 22.3532C69.6861 22.5843 69.0668 22.6998 68.3622 22.6998C67.3849 22.6998 66.5876 22.4915 65.9702 22.0748C65.3527 21.6544 64.974 21.0578 64.8338 20.285L66.4759 20.035C66.5781 20.4631 66.7884 20.7869 67.1065 21.0066C67.4247 21.2225 67.8395 21.3305 68.3509 21.3305C68.9077 21.3305 69.3527 21.215 69.6861 20.9839C70.0194 20.7491 70.1861 20.4631 70.1861 20.126C70.1861 19.8532 70.0838 19.6241 69.8793 19.4385C69.6785 19.2528 69.3698 19.1127 68.9531 19.018L67.4759 18.6941C66.6615 18.5085 66.0592 18.2131 65.669 17.8078C65.2827 17.4025 65.0895 16.8892 65.0895 16.268C65.0895 15.7528 65.2334 15.3021 65.5213 14.9157C65.8092 14.5294 66.2069 14.2282 66.7145 14.0123C67.2221 13.7926 67.8035 13.6828 68.4588 13.6828C69.402 13.6828 70.1444 13.8873 70.6861 14.2964C71.2277 14.7017 71.5857 15.2453 71.7599 15.9271ZM73.7983 22.5237V13.7964H75.4972V22.5237H73.7983ZM74.6562 12.4498C74.3608 12.4498 74.107 12.3513 73.8949 12.1544C73.6866 11.9536 73.5824 11.715 73.5824 11.4385C73.5824 11.1582 73.6866 10.9195 73.8949 10.7225C74.107 10.5218 74.3608 10.4214 74.6562 10.4214C74.9517 10.4214 75.2036 10.5218 75.4119 10.7225C75.6241 10.9195 75.7301 11.1582 75.7301 11.4385C75.7301 11.715 75.6241 11.9536 75.4119 12.1544C75.2036 12.3513 74.9517 12.4498 74.6562 12.4498ZM81.4588 22.6998C80.6141 22.6998 79.8868 22.5085 79.277 22.126C78.6709 21.7396 78.205 21.2074 77.8793 20.5294C77.5535 19.8513 77.3906 19.0748 77.3906 18.1998C77.3906 17.3135 77.5573 16.5313 77.8906 15.8532C78.224 15.1714 78.6937 14.6392 79.2997 14.2566C79.9058 13.8741 80.6198 13.6828 81.4418 13.6828C82.1046 13.6828 82.6955 13.8059 83.2145 14.0521C83.7334 14.2945 84.152 14.6354 84.4702 15.0748C84.7921 15.5142 84.9834 16.0275 85.044 16.6146H83.3906C83.2997 16.2055 83.0914 15.8532 82.7656 15.5578C82.4437 15.2623 82.0118 15.1146 81.4702 15.1146C80.9967 15.1146 80.5819 15.2396 80.2259 15.4896C79.8736 15.7358 79.599 16.0881 79.402 16.5464C79.205 17.001 79.1065 17.5388 79.1065 18.16C79.1065 18.7964 79.2031 19.3457 79.3963 19.8078C79.5895 20.2699 79.8622 20.6278 80.2145 20.8816C80.5705 21.1354 80.9891 21.2623 81.4702 21.2623C81.7921 21.2623 82.0838 21.2036 82.3452 21.0862C82.6103 20.965 82.8319 20.7926 83.0099 20.5691C83.1918 20.3457 83.3187 20.0767 83.3906 19.7623H85.044C84.9834 20.3267 84.7997 20.8305 84.4929 21.2737C84.1861 21.7169 83.7751 22.0653 83.2599 22.3191C82.7486 22.5729 82.1482 22.6998 81.4588 22.6998ZM92.9872 10.8873V22.5237H91.2315V10.8873H92.9872ZM97.1065 17.3419V22.5237H95.4077V13.7964H97.0384V15.2169H97.1463C97.3471 14.7547 97.6615 14.3835 98.0895 14.1032C98.5213 13.8229 99.0649 13.6828 99.7202 13.6828C100.315 13.6828 100.836 13.8078 101.283 14.0578C101.73 14.304 102.076 14.6714 102.322 15.16C102.569 15.6487 102.692 16.2528 102.692 16.9725V22.5237H100.993V17.1771C100.993 16.5445 100.828 16.0502 100.499 15.6941C100.169 15.3343 99.7164 15.1544 99.1406 15.1544C98.7467 15.1544 98.3963 15.2396 98.0895 15.41C97.7865 15.5805 97.5459 15.8305 97.3679 16.16C97.1937 16.4858 97.1065 16.8797 97.1065 17.3419ZM109.124 13.7964V15.16H104.192V13.7964H109.124ZM105.544 22.5237V12.785C105.544 12.2396 105.663 11.7869 105.902 11.4271C106.141 11.0635 106.457 10.7926 106.851 10.6146C107.245 10.4328 107.673 10.3419 108.135 10.3419C108.476 10.3419 108.768 10.3703 109.01 10.4271C109.252 10.4801 109.432 10.5294 109.55 10.5748L109.152 11.9498C109.072 11.9271 108.97 11.9006 108.845 11.8703C108.72 11.8362 108.569 11.8191 108.391 11.8191C107.978 11.8191 107.682 11.9214 107.504 12.126C107.33 12.3305 107.243 12.626 107.243 13.0123V22.5237H105.544ZM114.209 22.6998C113.391 22.6998 112.677 22.5123 112.067 22.1373C111.457 21.7623 110.983 21.2377 110.646 20.5635C110.309 19.8892 110.141 19.1013 110.141 18.1998C110.141 17.2945 110.309 16.5028 110.646 15.8248C110.983 15.1468 111.457 14.6203 112.067 14.2453C112.677 13.8703 113.391 13.6828 114.209 13.6828C115.027 13.6828 115.741 13.8703 116.351 14.2453C116.961 14.6203 117.434 15.1468 117.771 15.8248C118.108 16.5028 118.277 17.2945 118.277 18.1998C118.277 19.1013 118.108 19.8892 117.771 20.5635C117.434 21.2377 116.961 21.7623 116.351 22.1373C115.741 22.5123 115.027 22.6998 114.209 22.6998ZM114.214 21.2737C114.745 21.2737 115.184 21.1335 115.533 20.8532C115.881 20.5729 116.139 20.1998 116.305 19.7339C116.476 19.268 116.561 18.7547 116.561 18.1941C116.561 17.6373 116.476 17.126 116.305 16.66C116.139 16.1903 115.881 15.8135 115.533 15.5294C115.184 15.2453 114.745 15.1032 114.214 15.1032C113.68 15.1032 113.237 15.2453 112.885 15.5294C112.536 15.8135 112.277 16.1903 112.107 16.66C111.94 17.126 111.857 17.6373 111.857 18.1941C111.857 18.7547 111.94 19.268 112.107 19.7339C112.277 20.1998 112.536 20.5729 112.885 20.8532C113.237 21.1335 113.68 21.2737 114.214 21.2737ZM120.173 22.5237V13.7964H121.815V15.1828H121.906C122.065 14.7131 122.346 14.3438 122.747 14.0748C123.152 13.8021 123.611 13.6657 124.122 13.6657C124.228 13.6657 124.353 13.6695 124.497 13.6771C124.645 13.6847 124.76 13.6941 124.844 13.7055V15.3305C124.776 15.3116 124.654 15.2907 124.48 15.268C124.306 15.2415 124.132 15.2282 123.957 15.2282C123.556 15.2282 123.198 15.3135 122.884 15.4839C122.573 15.6506 122.327 15.8835 122.145 16.1828C121.963 16.4782 121.872 16.8153 121.872 17.1941V22.5237H120.173ZM126.314 22.5237V13.7964H127.945V15.2169H128.053C128.234 14.7358 128.532 14.3608 128.945 14.0919C129.357 13.8191 129.852 13.6828 130.428 13.6828C131.011 13.6828 131.5 13.8191 131.893 14.0919C132.291 14.3646 132.585 14.7396 132.774 15.2169H132.865C133.073 14.751 133.405 14.3797 133.859 14.1032C134.314 13.8229 134.856 13.6828 135.484 13.6828C136.276 13.6828 136.922 13.9309 137.422 14.4271C137.926 14.9233 138.178 15.6714 138.178 16.6714V22.5237H136.479V16.8305C136.479 16.2396 136.318 15.8116 135.996 15.5464C135.674 15.2813 135.289 15.1487 134.842 15.1487C134.289 15.1487 133.859 15.3191 133.553 15.66C133.246 15.9972 133.092 16.4309 133.092 16.9612V22.5237H131.399V16.7225C131.399 16.2491 131.251 15.8684 130.956 15.5805C130.661 15.2926 130.276 15.1487 129.803 15.1487C129.481 15.1487 129.183 15.2339 128.911 15.4044C128.642 15.571 128.424 15.804 128.257 16.1032C128.094 16.4025 128.013 16.7491 128.013 17.143V22.5237H126.314ZM142.994 22.7169C142.441 22.7169 141.941 22.6146 141.494 22.41C141.047 22.2017 140.693 21.9006 140.432 21.5066C140.174 21.1127 140.045 20.6297 140.045 20.0578C140.045 19.5653 140.14 19.16 140.33 18.8419C140.519 18.5237 140.775 18.2718 141.097 18.0862C141.419 17.9006 141.778 17.7604 142.176 17.6657C142.574 17.571 142.979 17.4991 143.392 17.4498C143.915 17.3892 144.339 17.34 144.665 17.3021C144.991 17.2604 145.227 17.1941 145.375 17.1032C145.523 17.0123 145.597 16.8646 145.597 16.66V16.6203C145.597 16.1241 145.456 15.7396 145.176 15.4669C144.9 15.1941 144.487 15.0578 143.938 15.0578C143.366 15.0578 142.915 15.1847 142.585 15.4385C142.259 15.6885 142.034 15.9669 141.909 16.2737L140.312 15.91C140.502 15.3797 140.778 14.9517 141.142 14.626C141.509 14.2964 141.932 14.0578 142.409 13.91C142.886 13.7585 143.388 13.6828 143.915 13.6828C144.263 13.6828 144.633 13.7244 145.023 13.8078C145.417 13.8873 145.784 14.035 146.125 14.251C146.47 14.4669 146.752 14.7756 146.972 15.1771C147.191 15.5748 147.301 16.0919 147.301 16.7282V22.5237H145.642V21.3305H145.574C145.464 21.5502 145.299 21.7661 145.08 21.9782C144.86 22.1903 144.578 22.3665 144.233 22.5066C143.888 22.6468 143.475 22.7169 142.994 22.7169ZM143.364 21.3532C143.833 21.3532 144.235 21.2604 144.568 21.0748C144.905 20.8892 145.161 20.6468 145.335 20.3475C145.513 20.0445 145.602 19.7207 145.602 19.376V18.251C145.542 18.3116 145.424 18.3684 145.25 18.4214C145.08 18.4707 144.884 18.5142 144.665 18.5521C144.445 18.5862 144.231 18.6184 144.023 18.6487C143.814 18.6752 143.64 18.6979 143.5 18.7169C143.17 18.7585 142.869 18.8286 142.597 18.9271C142.328 19.0256 142.112 19.1676 141.949 19.3532C141.79 19.535 141.71 19.7775 141.71 20.0805C141.71 20.501 141.866 20.8191 142.176 21.035C142.487 21.2472 142.883 21.3532 143.364 21.3532ZM153.638 13.7964V15.16H148.871V13.7964H153.638ZM150.149 11.7055H151.848V19.9612C151.848 20.2907 151.897 20.5388 151.996 20.7055C152.094 20.8684 152.221 20.9801 152.376 21.0407C152.536 21.0975 152.708 21.126 152.893 21.126C153.03 21.126 153.149 21.1165 153.251 21.0975C153.354 21.0786 153.433 21.0635 153.49 21.0521L153.797 22.4555C153.698 22.4934 153.558 22.5313 153.376 22.5691C153.195 22.6108 152.967 22.6335 152.695 22.6373C152.248 22.6449 151.831 22.5653 151.445 22.3987C151.058 22.232 150.746 21.9744 150.507 21.626C150.268 21.2775 150.149 20.84 150.149 20.3135V11.7055ZM155.517 22.5237V13.7964H157.216V22.5237H155.517ZM156.375 12.4498C156.08 12.4498 155.826 12.3513 155.614 12.1544C155.405 11.9536 155.301 11.715 155.301 11.4385C155.301 11.1582 155.405 10.9195 155.614 10.7225C155.826 10.5218 156.08 10.4214 156.375 10.4214C156.67 10.4214 156.922 10.5218 157.131 10.7225C157.343 10.9195 157.449 11.1582 157.449 11.4385C157.449 11.715 157.343 11.9536 157.131 12.1544C156.922 12.3513 156.67 12.4498 156.375 12.4498ZM163.178 22.6998C162.359 22.6998 161.645 22.5123 161.036 22.1373C160.426 21.7623 159.952 21.2377 159.615 20.5635C159.278 19.8892 159.109 19.1013 159.109 18.1998C159.109 17.2945 159.278 16.5028 159.615 15.8248C159.952 15.1468 160.426 14.6203 161.036 14.2453C161.645 13.8703 162.359 13.6828 163.178 13.6828C163.996 13.6828 164.71 13.8703 165.32 14.2453C165.929 14.6203 166.403 15.1468 166.74 15.8248C167.077 16.5028 167.246 17.2945 167.246 18.1998C167.246 19.1013 167.077 19.8892 166.74 20.5635C166.403 21.2377 165.929 21.7623 165.32 22.1373C164.71 22.5123 163.996 22.6998 163.178 22.6998ZM163.183 21.2737C163.714 21.2737 164.153 21.1335 164.501 20.8532C164.85 20.5729 165.107 20.1998 165.274 19.7339C165.445 19.268 165.53 18.7547 165.53 18.1941C165.53 17.6373 165.445 17.126 165.274 16.66C165.107 16.1903 164.85 15.8135 164.501 15.5294C164.153 15.2453 163.714 15.1032 163.183 15.1032C162.649 15.1032 162.206 15.2453 161.854 15.5294C161.505 15.8135 161.246 16.1903 161.075 16.66C160.909 17.126 160.825 17.6373 160.825 18.1941C160.825 18.7547 160.909 19.268 161.075 19.7339C161.246 20.1998 161.505 20.5729 161.854 20.8532C162.206 21.1335 162.649 21.2737 163.183 21.2737ZM170.841 17.3419V22.5237H169.142V13.7964H170.773V15.2169H170.881C171.081 14.7547 171.396 14.3835 171.824 14.1032C172.256 13.8229 172.799 13.6828 173.455 13.6828C174.049 13.6828 174.57 13.8078 175.017 14.0578C175.464 14.304 175.811 14.6714 176.057 15.16C176.303 15.6487 176.426 16.2528 176.426 16.9725V22.5237H174.727V17.1771C174.727 16.5445 174.563 16.0502 174.233 15.6941C173.903 15.3343 173.451 15.1544 172.875 15.1544C172.481 15.1544 172.131 15.2396 171.824 15.41C171.521 15.5805 171.28 15.8305 171.102 16.16C170.928 16.4858 170.841 16.8797 170.841 17.3419Z" fill="#635EFD"/>
<path d="M18.2528 10.8873V22.5237H16.4915V12.6487H16.4233L13.6392 14.4669V12.785L16.5426 10.8873H18.2528Z" fill="#635EFD"/>
<circle cx="234.5" cy="16.5237" r="16" fill="#F5F6FA"/>
<path d="M266.023 22.5237L262.841 10.8873H264.273L266.705 20.3646H266.818L269.295 10.8873H270.886L273.364 20.3646H273.477L275.909 10.8873H277.341L274.159 22.5237H272.705L270.136 13.251H270.045L267.477 22.5237H266.023ZM278.915 22.5237V13.7964H280.256V22.5237H278.915ZM279.597 12.3419C279.335 12.3419 279.11 12.2528 278.92 12.0748C278.735 11.8968 278.642 11.6828 278.642 11.4328C278.642 11.1828 278.735 10.9688 278.92 10.7907C279.11 10.6127 279.335 10.5237 279.597 10.5237C279.858 10.5237 280.081 10.6127 280.267 10.7907C280.456 10.9688 280.551 11.1828 280.551 11.4328C280.551 11.6828 280.456 11.8968 280.267 12.0748C280.081 12.2528 279.858 12.3419 279.597 12.3419ZM284.053 17.2737V22.5237H282.712V13.7964H284.007V15.16H284.121C284.325 14.7169 284.636 14.3608 285.053 14.0919C285.469 13.8191 286.007 13.6828 286.666 13.6828C287.257 13.6828 287.774 13.804 288.217 14.0464C288.661 14.285 289.005 14.6487 289.251 15.1373C289.498 15.6222 289.621 16.2358 289.621 16.9782V22.5237H288.28V17.0691C288.28 16.3835 288.102 15.8494 287.746 15.4669C287.39 15.0805 286.901 14.8873 286.28 14.8873C285.852 14.8873 285.469 14.9801 285.132 15.1657C284.799 15.3513 284.536 15.6222 284.342 15.9782C284.149 16.3343 284.053 16.7661 284.053 17.2737ZM295.594 25.9782C294.946 25.9782 294.389 25.8949 293.923 25.7282C293.457 25.5653 293.069 25.3494 292.759 25.0805C292.452 24.8153 292.207 24.5313 292.026 24.2282L293.094 23.4782C293.215 23.6373 293.368 23.8191 293.554 24.0237C293.74 24.232 293.993 24.4119 294.315 24.5635C294.641 24.7188 295.067 24.7964 295.594 24.7964C296.298 24.7964 296.88 24.626 297.338 24.285C297.796 23.9441 298.026 23.41 298.026 22.6828V20.91H297.912C297.813 21.0691 297.673 21.2661 297.491 21.501C297.313 21.732 297.056 21.9385 296.719 22.1203C296.385 22.2983 295.935 22.3873 295.366 22.3873C294.662 22.3873 294.029 22.2207 293.469 21.8873C292.912 21.554 292.471 21.0691 292.145 20.4328C291.823 19.7964 291.662 19.0237 291.662 18.1146C291.662 17.2207 291.819 16.4422 292.134 15.7794C292.448 15.1127 292.885 14.5975 293.446 14.2339C294.007 13.8665 294.654 13.6828 295.389 13.6828C295.957 13.6828 296.408 13.7775 296.741 13.9669C297.079 14.1525 297.336 14.3646 297.514 14.6032C297.696 14.8381 297.836 15.0313 297.935 15.1828H298.071V13.7964H299.366V22.7737C299.366 23.5237 299.196 24.1335 298.855 24.6032C298.518 25.0767 298.063 25.4233 297.491 25.643C296.923 25.8665 296.291 25.9782 295.594 25.9782ZM295.548 21.1828C296.086 21.1828 296.541 21.0597 296.912 20.8135C297.283 20.5672 297.565 20.2131 297.759 19.751C297.952 19.2888 298.048 18.7358 298.048 18.0919C298.048 17.4631 297.954 16.9082 297.764 16.4271C297.575 15.946 297.295 15.5691 296.923 15.2964C296.552 15.0237 296.094 14.8873 295.548 14.8873C294.98 14.8873 294.507 15.0313 294.128 15.3191C293.753 15.607 293.471 15.9934 293.281 16.4782C293.096 16.9631 293.003 17.501 293.003 18.0919C293.003 18.6979 293.098 19.2339 293.287 19.6998C293.48 20.1619 293.764 20.5256 294.139 20.7907C294.518 21.0521 294.988 21.1828 295.548 21.1828ZM307.912 10.8873V22.5237H306.503V10.8873H307.912ZM311.896 17.2737V22.5237H310.555V13.7964H311.851V15.16H311.964C312.169 14.7169 312.48 14.3608 312.896 14.0919C313.313 13.8191 313.851 13.6828 314.51 13.6828C315.101 13.6828 315.618 13.804 316.061 14.0464C316.504 14.285 316.849 14.6487 317.095 15.1373C317.341 15.6222 317.464 16.2358 317.464 16.9782V22.5237H316.124V17.0691C316.124 16.3835 315.946 15.8494 315.589 15.4669C315.233 15.0805 314.745 14.8873 314.124 14.8873C313.696 14.8873 313.313 14.9801 312.976 15.1657C312.643 15.3513 312.379 15.6222 312.186 15.9782C311.993 16.3343 311.896 16.7661 311.896 17.2737ZM323.801 13.7964V14.9328H319.097V13.7964H323.801ZM320.506 22.5237V12.5919C320.506 12.0919 320.623 11.6752 320.858 11.3419C321.093 11.0085 321.398 10.7585 321.773 10.5919C322.148 10.4252 322.544 10.3419 322.96 10.3419C323.29 10.3419 323.559 10.3684 323.767 10.4214C323.975 10.4744 324.131 10.5237 324.233 10.5691L323.847 11.7282C323.778 11.7055 323.684 11.6771 323.562 11.643C323.445 11.6089 323.29 11.5919 323.097 11.5919C322.653 11.5919 322.333 11.7036 322.136 11.9271C321.943 12.1506 321.847 12.4782 321.847 12.91V22.5237H320.506ZM328.866 22.7055C328.079 22.7055 327.387 22.518 326.793 22.143C326.202 21.768 325.74 21.2434 325.406 20.5691C325.077 19.8949 324.912 19.107 324.912 18.2055C324.912 17.2964 325.077 16.5028 325.406 15.8248C325.74 15.1468 326.202 14.6203 326.793 14.2453C327.387 13.8703 328.079 13.6828 328.866 13.6828C329.654 13.6828 330.344 13.8703 330.935 14.2453C331.529 14.6203 331.991 15.1468 332.321 15.8248C332.654 16.5028 332.821 17.2964 332.821 18.2055C332.821 19.107 332.654 19.8949 332.321 20.5691C331.991 21.2434 331.529 21.768 330.935 22.143C330.344 22.518 329.654 22.7055 328.866 22.7055ZM328.866 21.501C329.465 21.501 329.957 21.3475 330.344 21.0407C330.73 20.7339 331.016 20.3305 331.202 19.8305C331.387 19.3305 331.48 18.7888 331.48 18.2055C331.48 17.6222 331.387 17.0786 331.202 16.5748C331.016 16.071 330.73 15.6638 330.344 15.3532C329.957 15.0426 329.465 14.8873 328.866 14.8873C328.268 14.8873 327.776 15.0426 327.389 15.3532C327.003 15.6638 326.717 16.071 326.531 16.5748C326.346 17.0786 326.253 17.6222 326.253 18.2055C326.253 18.7888 326.346 19.3305 326.531 19.8305C326.717 20.3305 327.003 20.7339 327.389 21.0407C327.776 21.3475 328.268 21.501 328.866 21.501ZM334.868 22.5237V13.7964H336.163V15.1146H336.254C336.413 14.6828 336.701 14.3324 337.118 14.0635C337.535 13.7945 338.004 13.66 338.527 13.66C338.625 13.66 338.749 13.6619 338.896 13.6657C339.044 13.6695 339.156 13.6752 339.232 13.6828V15.0464C339.186 15.035 339.082 15.018 338.919 14.9953C338.76 14.9688 338.591 14.9555 338.413 14.9555C337.989 14.9555 337.61 15.0445 337.277 15.2225C336.947 15.3968 336.686 15.6392 336.493 15.9498C336.304 16.2566 336.209 16.607 336.209 17.001V22.5237H334.868ZM340.821 22.5237V13.7964H342.116V15.16H342.23C342.412 14.6941 342.705 14.3324 343.111 14.0748C343.516 13.8135 344.003 13.6828 344.571 13.6828C345.147 13.6828 345.626 13.8135 346.009 14.0748C346.395 14.3324 346.696 14.6941 346.912 15.16H347.003C347.226 14.7093 347.562 14.3513 348.009 14.0862C348.455 13.8172 348.991 13.6828 349.616 13.6828C350.397 13.6828 351.035 13.9271 351.531 14.4157C352.027 14.9006 352.276 15.6563 352.276 16.6828V22.5237H350.935V16.6828C350.935 16.0388 350.759 15.5786 350.406 15.3021C350.054 15.0256 349.639 14.8873 349.162 14.8873C348.548 14.8873 348.073 15.0729 347.736 15.4441C347.399 15.8116 347.23 16.2775 347.23 16.8419V22.5237H345.866V16.5464C345.866 16.0502 345.705 15.6506 345.384 15.3475C345.062 15.0407 344.647 14.8873 344.139 14.8873C343.791 14.8873 343.465 14.9801 343.162 15.1657C342.863 15.3513 342.62 15.6089 342.435 15.9385C342.253 16.2642 342.162 16.6411 342.162 17.0691V22.5237H340.821ZM357.295 22.7282C356.742 22.7282 356.241 22.6241 355.79 22.4157C355.339 22.2036 354.981 21.8987 354.716 21.501C354.451 21.0994 354.318 20.6146 354.318 20.0464C354.318 19.5464 354.417 19.1411 354.614 18.8305C354.811 18.5161 355.074 18.2699 355.403 18.0919C355.733 17.9138 356.097 17.7813 356.494 17.6941C356.896 17.6032 357.299 17.5313 357.705 17.4782C358.235 17.41 358.665 17.3589 358.994 17.3248C359.328 17.2869 359.57 17.2244 359.722 17.1373C359.877 17.0502 359.955 16.8987 359.955 16.6828V16.6373C359.955 16.0767 359.801 15.6411 359.494 15.3305C359.191 15.0199 358.731 14.8646 358.114 14.8646C357.473 14.8646 356.972 15.0047 356.608 15.285C356.244 15.5653 355.989 15.8646 355.841 16.1828L354.568 15.7282C354.795 15.1979 355.098 14.785 355.477 14.4896C355.86 14.1903 356.277 13.982 356.727 13.8646C357.182 13.7434 357.629 13.6828 358.068 13.6828C358.348 13.6828 358.67 13.7169 359.034 13.785C359.402 13.8494 359.756 13.9839 360.097 14.1885C360.441 14.393 360.727 14.7017 360.955 15.1146C361.182 15.5275 361.295 16.0805 361.295 16.7737V22.5237H359.955V21.3419H359.886C359.795 21.5313 359.644 21.7339 359.432 21.9498C359.22 22.1657 358.938 22.3494 358.585 22.501C358.233 22.6525 357.803 22.7282 357.295 22.7282ZM357.5 21.5237C358.03 21.5237 358.477 21.4195 358.841 21.2112C359.208 21.0028 359.485 20.7339 359.67 20.4044C359.86 20.0748 359.955 19.7282 359.955 19.3646V18.1373C359.898 18.2055 359.773 18.268 359.58 18.3248C359.39 18.3778 359.17 18.4252 358.92 18.4669C358.674 18.5047 358.434 18.5388 358.199 18.5691C357.968 18.5957 357.78 18.6184 357.636 18.6373C357.288 18.6828 356.962 18.7566 356.659 18.8589C356.36 18.9574 356.117 19.107 355.932 19.3078C355.75 19.5047 355.659 19.7737 355.659 20.1146C355.659 20.5805 355.831 20.9328 356.176 21.1714C356.525 21.4063 356.966 21.5237 357.5 21.5237ZM367.538 13.7964V14.9328H363.016V13.7964H367.538ZM364.334 11.7055H365.675V20.0237C365.675 20.4025 365.73 20.6866 365.839 20.876C365.953 21.0616 366.097 21.1866 366.271 21.251C366.449 21.3116 366.637 21.3419 366.834 21.3419C366.982 21.3419 367.103 21.3343 367.197 21.3191C367.292 21.3002 367.368 21.285 367.425 21.2737L367.697 22.4782C367.607 22.5123 367.48 22.5464 367.317 22.5805C367.154 22.6184 366.947 22.6373 366.697 22.6373C366.319 22.6373 365.947 22.5559 365.584 22.393C365.224 22.2301 364.925 21.982 364.686 21.6487C364.451 21.3153 364.334 20.8949 364.334 20.3873V11.7055ZM369.555 22.5237V13.7964H370.896V22.5237H369.555ZM370.237 12.3419C369.976 12.3419 369.75 12.2528 369.561 12.0748C369.375 11.8968 369.283 11.6828 369.283 11.4328C369.283 11.1828 369.375 10.9688 369.561 10.7907C369.75 10.6127 369.976 10.5237 370.237 10.5237C370.499 10.5237 370.722 10.6127 370.908 10.7907C371.097 10.9688 371.192 11.1828 371.192 11.4328C371.192 11.6828 371.097 11.8968 370.908 12.0748C370.722 12.2528 370.499 12.3419 370.237 12.3419ZM376.898 22.7055C376.11 22.7055 375.419 22.518 374.824 22.143C374.233 21.768 373.771 21.2434 373.438 20.5691C373.108 19.8949 372.943 19.107 372.943 18.2055C372.943 17.2964 373.108 16.5028 373.438 15.8248C373.771 15.1468 374.233 14.6203 374.824 14.2453C375.419 13.8703 376.11 13.6828 376.898 13.6828C377.686 13.6828 378.375 13.8703 378.966 14.2453C379.561 14.6203 380.023 15.1468 380.352 15.8248C380.686 16.5028 380.852 17.2964 380.852 18.2055C380.852 19.107 380.686 19.8949 380.352 20.5691C380.023 21.2434 379.561 21.768 378.966 22.143C378.375 22.518 377.686 22.7055 376.898 22.7055ZM376.898 21.501C377.496 21.501 377.989 21.3475 378.375 21.0407C378.761 20.7339 379.047 20.3305 379.233 19.8305C379.419 19.3305 379.511 18.7888 379.511 18.2055C379.511 17.6222 379.419 17.0786 379.233 16.5748C379.047 16.071 378.761 15.6638 378.375 15.3532C377.989 15.0426 377.496 14.8873 376.898 14.8873C376.299 14.8873 375.807 15.0426 375.42 15.3532C375.034 15.6638 374.748 16.071 374.562 16.5748C374.377 17.0786 374.284 17.6222 374.284 18.2055C374.284 18.7888 374.377 19.3305 374.562 19.8305C374.748 20.3305 375.034 20.7339 375.42 21.0407C375.807 21.3475 376.299 21.501 376.898 21.501ZM384.24 17.2737V22.5237H382.899V13.7964H384.195V15.16H384.308C384.513 14.7169 384.823 14.3608 385.24 14.0919C385.657 13.8191 386.195 13.6828 386.854 13.6828C387.445 13.6828 387.962 13.804 388.405 14.0464C388.848 14.285 389.193 14.6487 389.439 15.1373C389.685 15.6222 389.808 16.2358 389.808 16.9782V22.5237H388.467V17.0691C388.467 16.3835 388.289 15.8494 387.933 15.4669C387.577 15.0805 387.089 14.8873 386.467 14.8873C386.039 14.8873 385.657 14.9801 385.32 15.1657C384.986 15.3513 384.723 15.6222 384.53 15.9782C384.337 16.3343 384.24 16.7661 384.24 17.2737Z" fill="#5A607F"/>
<path d="M230.861 22.5237V21.501L234.702 17.2964C235.152 16.804 235.524 16.376 235.815 16.0123C236.107 15.6449 236.323 15.3002 236.463 14.9782C236.607 14.6525 236.679 14.3116 236.679 13.9555C236.679 13.5464 236.58 13.1922 236.384 12.893C236.19 12.5938 235.925 12.3627 235.588 12.1998C235.251 12.0369 234.872 11.9555 234.452 11.9555C234.005 11.9555 233.615 12.0483 233.281 12.2339C232.952 12.4157 232.696 12.6714 232.514 13.001C232.336 13.3305 232.247 13.7169 232.247 14.16H230.906C230.906 13.4782 231.063 12.8797 231.378 12.3646C231.692 11.8494 232.12 11.4479 232.662 11.16C233.207 10.8722 233.819 10.7282 234.497 10.7282C235.179 10.7282 235.783 10.8722 236.31 11.16C236.836 11.4479 237.249 11.8362 237.548 12.3248C237.848 12.8135 237.997 13.357 237.997 13.9555C237.997 14.3835 237.92 14.8021 237.764 15.2112C237.613 15.6165 237.348 16.0691 236.969 16.5691C236.594 17.0653 236.073 17.6714 235.406 18.3873L232.793 21.1828V21.2737H238.202V22.5237H230.861Z" fill="#A1A7C4"/>
<circle cx="447.5" cy="16.5237" r="16" fill="#F5F6FA"/>
<path d="M476.909 10.8873H478.591L482.545 20.5464H482.682L486.636 10.8873H488.318V22.5237H487V13.6828H486.886L483.25 22.5237H481.977L478.341 13.6828H478.227V22.5237H476.909V10.8873ZM493.53 22.7282C492.977 22.7282 492.475 22.6241 492.024 22.4157C491.573 22.2036 491.215 21.8987 490.95 21.501C490.685 21.0994 490.553 20.6146 490.553 20.0464C490.553 19.5464 490.651 19.1411 490.848 18.8305C491.045 18.5161 491.308 18.2699 491.638 18.0919C491.967 17.9138 492.331 17.7813 492.729 17.6941C493.13 17.6032 493.534 17.5313 493.939 17.4782C494.469 17.41 494.899 17.3589 495.229 17.3248C495.562 17.2869 495.804 17.2244 495.956 17.1373C496.111 17.0502 496.189 16.8987 496.189 16.6828V16.6373C496.189 16.0767 496.036 15.6411 495.729 15.3305C495.426 15.0199 494.965 14.8646 494.348 14.8646C493.708 14.8646 493.206 15.0047 492.842 15.285C492.479 15.5653 492.223 15.8646 492.075 16.1828L490.803 15.7282C491.03 15.1979 491.333 14.785 491.712 14.4896C492.094 14.1903 492.511 13.982 492.962 13.8646C493.416 13.7434 493.863 13.6828 494.303 13.6828C494.583 13.6828 494.905 13.7169 495.268 13.785C495.636 13.8494 495.99 13.9839 496.331 14.1885C496.676 14.393 496.962 14.7017 497.189 15.1146C497.416 15.5275 497.53 16.0805 497.53 16.7737V22.5237H496.189V21.3419H496.121C496.03 21.5313 495.878 21.7339 495.666 21.9498C495.454 22.1657 495.172 22.3494 494.82 22.501C494.467 22.6525 494.037 22.7282 493.53 22.7282ZM493.734 21.5237C494.265 21.5237 494.712 21.4195 495.075 21.2112C495.443 21.0028 495.719 20.7339 495.905 20.4044C496.094 20.0748 496.189 19.7282 496.189 19.3646V18.1373C496.132 18.2055 496.007 18.268 495.814 18.3248C495.625 18.3778 495.405 18.4252 495.155 18.4669C494.909 18.5047 494.668 18.5388 494.433 18.5691C494.202 18.5957 494.015 18.6184 493.871 18.6373C493.522 18.6828 493.196 18.7566 492.893 18.8589C492.594 18.9574 492.352 19.107 492.166 19.3078C491.984 19.5047 491.893 19.7737 491.893 20.1146C491.893 20.5805 492.066 20.9328 492.411 21.1714C492.759 21.4063 493.2 21.5237 493.734 21.5237ZM499.977 22.5237V13.7964H501.318V22.5237H499.977ZM500.659 12.3419C500.398 12.3419 500.172 12.2528 499.983 12.0748C499.797 11.8968 499.705 11.6828 499.705 11.4328C499.705 11.1828 499.797 10.9688 499.983 10.7907C500.172 10.6127 500.398 10.5237 500.659 10.5237C500.92 10.5237 501.144 10.6127 501.33 10.7907C501.519 10.9688 501.614 11.1828 501.614 11.4328C501.614 11.6828 501.519 11.8968 501.33 12.0748C501.144 12.2528 500.92 12.3419 500.659 12.3419ZM505.115 17.2737V22.5237H503.774V13.7964H505.07V15.16H505.183C505.388 14.7169 505.698 14.3608 506.115 14.0919C506.532 13.8191 507.07 13.6828 507.729 13.6828C508.32 13.6828 508.837 13.804 509.28 14.0464C509.723 14.285 510.068 14.6487 510.314 15.1373C510.56 15.6222 510.683 16.2358 510.683 16.9782V22.5237H509.342V17.0691C509.342 16.3835 509.164 15.8494 508.808 15.4669C508.452 15.0805 507.964 14.8873 507.342 14.8873C506.914 14.8873 506.532 14.9801 506.195 15.1657C505.861 15.3513 505.598 15.6222 505.405 15.9782C505.212 16.3343 505.115 16.7661 505.115 17.2737ZM516.929 13.7964V14.9328H512.406V13.7964H516.929ZM513.724 11.7055H515.065V20.0237C515.065 20.4025 515.12 20.6866 515.23 20.876C515.344 21.0616 515.488 21.1866 515.662 21.251C515.84 21.3116 516.027 21.3419 516.224 21.3419C516.372 21.3419 516.493 21.3343 516.588 21.3191C516.683 21.3002 516.759 21.285 516.815 21.2737L517.088 22.4782C516.997 22.5123 516.87 22.5464 516.707 22.5805C516.545 22.6184 516.338 22.6373 516.088 22.6373C515.709 22.6373 515.338 22.5559 514.974 22.393C514.615 22.2301 514.315 21.982 514.077 21.6487C513.842 21.3153 513.724 20.8949 513.724 20.3873V11.7055ZM522.511 22.7055C521.67 22.7055 520.945 22.5199 520.335 22.1487C519.729 21.7737 519.261 21.251 518.932 20.5805C518.606 19.9063 518.443 19.1222 518.443 18.2282C518.443 17.3343 518.606 16.5464 518.932 15.8646C519.261 15.179 519.72 14.6449 520.307 14.2623C520.898 13.876 521.587 13.6828 522.375 13.6828C522.83 13.6828 523.278 13.7585 523.722 13.91C524.165 14.0616 524.568 14.3078 524.932 14.6487C525.295 14.9858 525.585 15.4328 525.801 15.9896C526.017 16.5464 526.125 17.232 526.125 18.0464V18.6146H519.398V17.4555H524.761C524.761 16.9631 524.663 16.5237 524.466 16.1373C524.273 15.751 523.996 15.446 523.636 15.2225C523.28 14.9991 522.86 14.8873 522.375 14.8873C521.841 14.8873 521.379 15.0199 520.989 15.285C520.602 15.5464 520.305 15.8873 520.097 16.3078C519.888 16.7282 519.784 17.179 519.784 17.66V18.4328C519.784 19.0919 519.898 19.6506 520.125 20.1089C520.356 20.5635 520.676 20.91 521.085 21.1487C521.494 21.3835 521.97 21.501 522.511 21.501C522.864 21.501 523.182 21.4517 523.466 21.3532C523.754 21.251 524.002 21.0994 524.21 20.8987C524.419 20.6941 524.58 20.4403 524.693 20.1373L525.989 20.501C525.852 20.9403 525.623 21.3267 525.301 21.66C524.979 21.9896 524.581 22.2472 524.108 22.4328C523.634 22.6146 523.102 22.7055 522.511 22.7055ZM529.506 17.2737V22.5237H528.165V13.7964H529.46V15.16H529.574C529.778 14.7169 530.089 14.3608 530.506 14.0919C530.922 13.8191 531.46 13.6828 532.119 13.6828C532.71 13.6828 533.227 13.804 533.67 14.0464C534.114 14.285 534.458 14.6487 534.705 15.1373C534.951 15.6222 535.074 16.2358 535.074 16.9782V22.5237H533.733V17.0691C533.733 16.3835 533.555 15.8494 533.199 15.4669C532.843 15.0805 532.354 14.8873 531.733 14.8873C531.305 14.8873 530.922 14.9801 530.585 15.1657C530.252 15.3513 529.989 15.6222 529.795 15.9782C529.602 16.3343 529.506 16.7661 529.506 17.2737ZM540.092 22.7282C539.539 22.7282 539.037 22.6241 538.587 22.4157C538.136 22.2036 537.778 21.8987 537.513 21.501C537.248 21.0994 537.115 20.6146 537.115 20.0464C537.115 19.5464 537.214 19.1411 537.411 18.8305C537.607 18.5161 537.871 18.2699 538.2 18.0919C538.53 17.9138 538.893 17.7813 539.291 17.6941C539.693 17.6032 540.096 17.5313 540.501 17.4782C541.032 17.41 541.462 17.3589 541.791 17.3248C542.125 17.2869 542.367 17.2244 542.518 17.1373C542.674 17.0502 542.751 16.8987 542.751 16.6828V16.6373C542.751 16.0767 542.598 15.6411 542.291 15.3305C541.988 15.0199 541.528 14.8646 540.911 14.8646C540.27 14.8646 539.768 15.0047 539.405 15.285C539.041 15.5653 538.786 15.8646 538.638 16.1828L537.365 15.7282C537.592 15.1979 537.895 14.785 538.274 14.4896C538.657 14.1903 539.073 13.982 539.524 13.8646C539.979 13.7434 540.426 13.6828 540.865 13.6828C541.145 13.6828 541.467 13.7169 541.831 13.785C542.198 13.8494 542.553 13.9839 542.893 14.1885C543.238 14.393 543.524 14.7017 543.751 15.1146C543.979 15.5275 544.092 16.0805 544.092 16.7737V22.5237H542.751V21.3419H542.683C542.592 21.5313 542.441 21.7339 542.229 21.9498C542.017 22.1657 541.734 22.3494 541.382 22.501C541.03 22.6525 540.6 22.7282 540.092 22.7282ZM540.297 21.5237C540.827 21.5237 541.274 21.4195 541.638 21.2112C542.005 21.0028 542.282 20.7339 542.467 20.4044C542.657 20.0748 542.751 19.7282 542.751 19.3646V18.1373C542.695 18.2055 542.57 18.268 542.376 18.3248C542.187 18.3778 541.967 18.4252 541.717 18.4669C541.471 18.5047 541.231 18.5388 540.996 18.5691C540.765 18.5957 540.577 18.6184 540.433 18.6373C540.085 18.6828 539.759 18.7566 539.456 18.8589C539.157 18.9574 538.914 19.107 538.729 19.3078C538.547 19.5047 538.456 19.7737 538.456 20.1146C538.456 20.5805 538.628 20.9328 538.973 21.1714C539.321 21.4063 539.763 21.5237 540.297 21.5237ZM547.881 17.2737V22.5237H546.54V13.7964H547.835V15.16H547.949C548.153 14.7169 548.464 14.3608 548.881 14.0919C549.297 13.8191 549.835 13.6828 550.494 13.6828C551.085 13.6828 551.602 13.804 552.045 14.0464C552.489 14.285 552.833 14.6487 553.08 15.1373C553.326 15.6222 553.449 16.2358 553.449 16.9782V22.5237H552.108V17.0691C552.108 16.3835 551.93 15.8494 551.574 15.4669C551.218 15.0805 550.729 14.8873 550.108 14.8873C549.68 14.8873 549.297 14.9801 548.96 15.1657C548.627 15.3513 548.364 15.6222 548.17 15.9782C547.977 16.3343 547.881 16.7661 547.881 17.2737ZM559.445 22.7055C558.626 22.7055 557.922 22.5123 557.331 22.126C556.74 21.7396 556.286 21.2074 555.967 20.5294C555.649 19.8513 555.49 19.0767 555.49 18.2055C555.49 17.3191 555.653 16.5369 555.979 15.8589C556.308 15.1771 556.767 14.6449 557.354 14.2623C557.945 13.876 558.634 13.6828 559.422 13.6828C560.036 13.6828 560.589 13.7964 561.081 14.0237C561.573 14.251 561.977 14.5691 562.291 14.9782C562.606 15.3873 562.801 15.8646 562.876 16.41H561.536C561.433 16.0123 561.206 15.66 560.854 15.3532C560.505 15.0426 560.036 14.8873 559.445 14.8873C558.922 14.8873 558.464 15.0237 558.07 15.2964C557.679 15.5653 557.375 15.946 557.155 16.4385C556.939 16.9271 556.831 17.501 556.831 18.16C556.831 18.8343 556.937 19.4214 557.149 19.9214C557.365 20.4214 557.668 20.8097 558.058 21.0862C558.452 21.3627 558.914 21.501 559.445 21.501C559.793 21.501 560.109 21.4403 560.393 21.3191C560.678 21.1979 560.918 21.0237 561.115 20.7964C561.312 20.5691 561.452 20.2964 561.536 19.9782H562.876C562.801 20.4934 562.613 20.9574 562.314 21.3703C562.018 21.7794 561.626 22.1051 561.138 22.3475C560.653 22.5862 560.089 22.7055 559.445 22.7055ZM568.496 22.7055C567.655 22.7055 566.929 22.5199 566.32 22.1487C565.714 21.7737 565.246 21.251 564.916 20.5805C564.59 19.9063 564.428 19.1222 564.428 18.2282C564.428 17.3343 564.59 16.5464 564.916 15.8646C565.246 15.179 565.704 14.6449 566.291 14.2623C566.882 13.876 567.571 13.6828 568.359 13.6828C568.814 13.6828 569.263 13.7585 569.706 13.91C570.149 14.0616 570.553 14.3078 570.916 14.6487C571.28 14.9858 571.57 15.4328 571.786 15.9896C572.001 16.5464 572.109 17.232 572.109 18.0464V18.6146H565.382V17.4555H570.746C570.746 16.9631 570.647 16.5237 570.45 16.1373C570.257 15.751 569.981 15.446 569.621 15.2225C569.265 14.9991 568.844 14.8873 568.359 14.8873C567.825 14.8873 567.363 15.0199 566.973 15.285C566.587 15.5464 566.289 15.8873 566.081 16.3078C565.873 16.7282 565.768 17.179 565.768 17.66V18.4328C565.768 19.0919 565.882 19.6506 566.109 20.1089C566.34 20.5635 566.661 20.91 567.07 21.1487C567.479 21.3835 567.954 21.501 568.496 21.501C568.848 21.501 569.166 21.4517 569.45 21.3532C569.738 21.251 569.986 21.0994 570.195 20.8987C570.403 20.6941 570.564 20.4403 570.678 20.1373L571.973 20.501C571.837 20.9403 571.607 21.3267 571.286 21.66C570.964 21.9896 570.566 22.2472 570.092 22.4328C569.619 22.6146 569.087 22.7055 568.496 22.7055ZM578.831 22.5237V10.8873H580.24V16.0691H586.445V10.8873H587.854V22.5237H586.445V17.3191H580.24V22.5237H578.831ZM594.152 22.7055C593.311 22.7055 592.586 22.5199 591.976 22.1487C591.37 21.7737 590.902 21.251 590.572 20.5805C590.247 19.9063 590.084 19.1222 590.084 18.2282C590.084 17.3343 590.247 16.5464 590.572 15.8646C590.902 15.179 591.36 14.6449 591.947 14.2623C592.538 13.876 593.228 13.6828 594.016 13.6828C594.47 13.6828 594.919 13.7585 595.362 13.91C595.805 14.0616 596.209 14.3078 596.572 14.6487C596.936 14.9858 597.226 15.4328 597.442 15.9896C597.658 16.5464 597.766 17.232 597.766 18.0464V18.6146H591.038V17.4555H596.402C596.402 16.9631 596.304 16.5237 596.107 16.1373C595.913 15.751 595.637 15.446 595.277 15.2225C594.921 14.9991 594.5 14.8873 594.016 14.8873C593.482 14.8873 593.019 15.0199 592.629 15.285C592.243 15.5464 591.946 15.8873 591.737 16.3078C591.529 16.7282 591.425 17.179 591.425 17.66V18.4328C591.425 19.0919 591.538 19.6506 591.766 20.1089C591.997 20.5635 592.317 20.91 592.726 21.1487C593.135 21.3835 593.61 21.501 594.152 21.501C594.504 21.501 594.822 21.4517 595.107 21.3532C595.394 21.251 595.643 21.0994 595.851 20.8987C596.059 20.6941 596.22 20.4403 596.334 20.1373L597.629 20.501C597.493 20.9403 597.264 21.3267 596.942 21.66C596.62 21.9896 596.222 22.2472 595.749 22.4328C595.275 22.6146 594.743 22.7055 594.152 22.7055ZM602.374 22.7282C601.821 22.7282 601.319 22.6241 600.868 22.4157C600.417 22.2036 600.059 21.8987 599.794 21.501C599.529 21.0994 599.396 20.6146 599.396 20.0464C599.396 19.5464 599.495 19.1411 599.692 18.8305C599.889 18.5161 600.152 18.2699 600.482 18.0919C600.811 17.9138 601.175 17.7813 601.572 17.6941C601.974 17.6032 602.377 17.5313 602.783 17.4782C603.313 17.41 603.743 17.3589 604.072 17.3248C604.406 17.2869 604.648 17.2244 604.8 17.1373C604.955 17.0502 605.033 16.8987 605.033 16.6828V16.6373C605.033 16.0767 604.879 15.6411 604.572 15.3305C604.269 15.0199 603.809 14.8646 603.192 14.8646C602.552 14.8646 602.05 15.0047 601.686 15.285C601.322 15.5653 601.067 15.8646 600.919 16.1828L599.646 15.7282C599.874 15.1979 600.177 14.785 600.555 14.4896C600.938 14.1903 601.355 13.982 601.805 13.8646C602.26 13.7434 602.707 13.6828 603.146 13.6828C603.427 13.6828 603.749 13.7169 604.112 13.785C604.48 13.8494 604.834 13.9839 605.175 14.1885C605.519 14.393 605.805 14.7017 606.033 15.1146C606.26 15.5275 606.374 16.0805 606.374 16.7737V22.5237H605.033V21.3419H604.964C604.874 21.5313 604.722 21.7339 604.51 21.9498C604.298 22.1657 604.016 22.3494 603.663 22.501C603.311 22.6525 602.881 22.7282 602.374 22.7282ZM602.578 21.5237C603.108 21.5237 603.555 21.4195 603.919 21.2112C604.286 21.0028 604.563 20.7339 604.749 20.4044C604.938 20.0748 605.033 19.7282 605.033 19.3646V18.1373C604.976 18.2055 604.851 18.268 604.658 18.3248C604.468 18.3778 604.249 18.4252 603.999 18.4669C603.752 18.5047 603.512 18.5388 603.277 18.5691C603.046 18.5957 602.858 18.6184 602.714 18.6373C602.366 18.6828 602.04 18.7566 601.737 18.8589C601.438 18.9574 601.196 19.107 601.01 19.3078C600.828 19.5047 600.737 19.7737 600.737 20.1146C600.737 20.5805 600.91 20.9328 601.254 21.1714C601.603 21.4063 602.044 21.5237 602.578 21.5237ZM612.116 22.7055C611.389 22.7055 610.747 22.5218 610.19 22.1544C609.634 21.7832 609.198 21.2604 608.884 20.5862C608.569 19.9082 608.412 19.107 608.412 18.1828C608.412 17.2661 608.569 16.4707 608.884 15.7964C609.198 15.1222 609.635 14.6013 610.196 14.2339C610.757 13.8665 611.404 13.6828 612.139 13.6828C612.707 13.6828 613.156 13.7775 613.486 13.9669C613.819 14.1525 614.073 14.3646 614.247 14.6032C614.425 14.8381 614.563 15.0313 614.662 15.1828H614.776V10.8873H616.116V22.5237H614.821V21.1828H614.662C614.563 21.3419 614.423 21.5426 614.241 21.785C614.06 22.0237 613.8 22.2377 613.463 22.4271C613.126 22.6127 612.677 22.7055 612.116 22.7055ZM612.298 21.501C612.836 21.501 613.291 21.3608 613.662 21.0805C614.033 20.7964 614.315 20.4044 614.509 19.9044C614.702 19.4006 614.798 18.8191 614.798 18.16C614.798 17.5085 614.704 16.9385 614.514 16.4498C614.325 15.9574 614.045 15.5748 613.673 15.3021C613.302 15.0256 612.844 14.8873 612.298 14.8873C611.73 14.8873 611.257 15.0332 610.878 15.3248C610.503 15.6127 610.221 16.0047 610.031 16.501C609.846 16.9934 609.753 17.5464 609.753 18.16C609.753 18.7813 609.848 19.3457 610.037 19.8532C610.23 20.357 610.514 20.7585 610.889 21.0578C611.268 21.3532 611.738 21.501 612.298 21.501ZM624.94 15.751L623.736 16.0919C623.66 15.8911 623.548 15.696 623.401 15.5066C623.257 15.3135 623.06 15.1544 622.81 15.0294C622.56 14.9044 622.24 14.8419 621.849 14.8419C621.315 14.8419 620.87 14.965 620.514 15.2112C620.162 15.4536 619.986 15.7623 619.986 16.1373C619.986 16.4707 620.107 16.7339 620.349 16.9271C620.592 17.1203 620.971 17.2813 621.486 17.41L622.781 17.7282C623.562 17.9176 624.143 18.2074 624.526 18.5975C624.908 18.9839 625.099 19.482 625.099 20.0919C625.099 20.5919 624.955 21.0388 624.668 21.4328C624.384 21.8267 623.986 22.1373 623.474 22.3646C622.963 22.5919 622.368 22.7055 621.69 22.7055C620.8 22.7055 620.063 22.5123 619.48 22.126C618.897 21.7396 618.527 21.1752 618.372 20.4328L619.645 20.1146C619.766 20.5843 619.995 20.9366 620.332 21.1714C620.673 21.4063 621.118 21.5237 621.668 21.5237C622.293 21.5237 622.789 21.3911 623.156 21.126C623.527 20.857 623.713 20.535 623.713 20.16C623.713 19.857 623.607 19.6032 623.395 19.3987C623.183 19.1903 622.857 19.035 622.418 18.9328L620.963 18.5919C620.164 18.4025 619.577 18.1089 619.202 17.7112C618.83 17.3097 618.645 16.8078 618.645 16.2055C618.645 15.7131 618.783 15.2775 619.06 14.8987C619.34 14.5199 619.721 14.2225 620.202 14.0066C620.687 13.7907 621.236 13.6828 621.849 13.6828C622.713 13.6828 623.391 13.8722 623.884 14.251C624.38 14.6297 624.732 15.1297 624.94 15.751Z" fill="#5A607F"/>
<path d="M447.543 22.6828C446.793 22.6828 446.124 22.554 445.537 22.2964C444.954 22.0388 444.49 21.6809 444.145 21.2225C443.804 20.7604 443.618 20.2244 443.588 19.6146H445.02C445.05 19.9896 445.179 20.3135 445.406 20.5862C445.634 20.8551 445.931 21.0635 446.298 21.2112C446.666 21.3589 447.073 21.4328 447.52 21.4328C448.02 21.4328 448.463 21.3457 448.849 21.1714C449.236 20.9972 449.539 20.7547 449.759 20.4441C449.978 20.1335 450.088 19.7737 450.088 19.3646C450.088 18.9366 449.982 18.5597 449.77 18.2339C449.558 17.9044 449.247 17.6468 448.838 17.4612C448.429 17.2756 447.929 17.1828 447.338 17.1828H446.406V15.9328H447.338C447.8 15.9328 448.205 15.8494 448.554 15.6828C448.906 15.5161 449.181 15.2813 449.378 14.9782C449.579 14.6752 449.679 14.3191 449.679 13.91C449.679 13.5161 449.592 13.1733 449.418 12.8816C449.243 12.59 448.997 12.3627 448.679 12.1998C448.365 12.0369 447.993 11.9555 447.565 11.9555C447.164 11.9555 446.785 12.0294 446.429 12.1771C446.077 12.321 445.789 12.5313 445.565 12.8078C445.342 13.0805 445.221 13.41 445.202 13.7964H443.838C443.861 13.1866 444.045 12.6525 444.389 12.1941C444.734 11.732 445.185 11.3722 445.741 11.1146C446.302 10.857 446.918 10.7282 447.588 10.7282C448.308 10.7282 448.925 10.8741 449.44 11.1657C449.955 11.4536 450.351 11.8343 450.628 12.3078C450.904 12.7813 451.043 13.2926 451.043 13.8419C451.043 14.4972 450.87 15.0559 450.526 15.518C450.185 15.9801 449.721 16.3002 449.134 16.4782V16.5691C449.868 16.6903 450.442 17.0028 450.855 17.5066C451.268 18.0066 451.474 18.626 451.474 19.3646C451.474 19.9972 451.302 20.5653 450.957 21.0691C450.616 21.5691 450.151 21.9631 449.56 22.251C448.969 22.5388 448.296 22.6828 447.543 22.6828Z" fill="#A1A7C4"/>
<circle cx="682.5" cy="16.5237" r="16" fill="#F5F6FA"/>
<path d="M711.909 10.8873H713.591L717.545 20.5464H717.682L721.636 10.8873H723.318V22.5237H722V13.6828H721.886L718.25 22.5237H716.977L713.341 13.6828H713.227V22.5237H711.909V10.8873ZM728.53 22.7282C727.977 22.7282 727.475 22.6241 727.024 22.4157C726.573 22.2036 726.215 21.8987 725.95 21.501C725.685 21.0994 725.553 20.6146 725.553 20.0464C725.553 19.5464 725.651 19.1411 725.848 18.8305C726.045 18.5161 726.308 18.2699 726.638 18.0919C726.967 17.9138 727.331 17.7813 727.729 17.6941C728.13 17.6032 728.534 17.5313 728.939 17.4782C729.469 17.41 729.899 17.3589 730.229 17.3248C730.562 17.2869 730.804 17.2244 730.956 17.1373C731.111 17.0502 731.189 16.8987 731.189 16.6828V16.6373C731.189 16.0767 731.036 15.6411 730.729 15.3305C730.426 15.0199 729.965 14.8646 729.348 14.8646C728.708 14.8646 728.206 15.0047 727.842 15.285C727.479 15.5653 727.223 15.8646 727.075 16.1828L725.803 15.7282C726.03 15.1979 726.333 14.785 726.712 14.4896C727.094 14.1903 727.511 13.982 727.962 13.8646C728.416 13.7434 728.863 13.6828 729.303 13.6828C729.583 13.6828 729.905 13.7169 730.268 13.785C730.636 13.8494 730.99 13.9839 731.331 14.1885C731.676 14.393 731.962 14.7017 732.189 15.1146C732.416 15.5275 732.53 16.0805 732.53 16.7737V22.5237H731.189V21.3419H731.121C731.03 21.5313 730.878 21.7339 730.666 21.9498C730.454 22.1657 730.172 22.3494 729.82 22.501C729.467 22.6525 729.037 22.7282 728.53 22.7282ZM728.734 21.5237C729.265 21.5237 729.712 21.4195 730.075 21.2112C730.443 21.0028 730.719 20.7339 730.905 20.4044C731.094 20.0748 731.189 19.7282 731.189 19.3646V18.1373C731.132 18.2055 731.007 18.268 730.814 18.3248C730.625 18.3778 730.405 18.4252 730.155 18.4669C729.909 18.5047 729.668 18.5388 729.433 18.5691C729.202 18.5957 729.015 18.6184 728.871 18.6373C728.522 18.6828 728.196 18.7566 727.893 18.8589C727.594 18.9574 727.352 19.107 727.166 19.3078C726.984 19.5047 726.893 19.7737 726.893 20.1146C726.893 20.5805 727.066 20.9328 727.411 21.1714C727.759 21.4063 728.2 21.5237 728.734 21.5237ZM734.977 22.5237V13.7964H736.318V22.5237H734.977ZM735.659 12.3419C735.398 12.3419 735.172 12.2528 734.983 12.0748C734.797 11.8968 734.705 11.6828 734.705 11.4328C734.705 11.1828 734.797 10.9688 734.983 10.7907C735.172 10.6127 735.398 10.5237 735.659 10.5237C735.92 10.5237 736.144 10.6127 736.33 10.7907C736.519 10.9688 736.614 11.1828 736.614 11.4328C736.614 11.6828 736.519 11.8968 736.33 12.0748C736.144 12.2528 735.92 12.3419 735.659 12.3419ZM740.115 17.2737V22.5237H738.774V13.7964H740.07V15.16H740.183C740.388 14.7169 740.698 14.3608 741.115 14.0919C741.532 13.8191 742.07 13.6828 742.729 13.6828C743.32 13.6828 743.837 13.804 744.28 14.0464C744.723 14.285 745.068 14.6487 745.314 15.1373C745.56 15.6222 745.683 16.2358 745.683 16.9782V22.5237H744.342V17.0691C744.342 16.3835 744.164 15.8494 743.808 15.4669C743.452 15.0805 742.964 14.8873 742.342 14.8873C741.914 14.8873 741.532 14.9801 741.195 15.1657C740.861 15.3513 740.598 15.6222 740.405 15.9782C740.212 16.3343 740.115 16.7661 740.115 17.2737ZM751.929 13.7964V14.9328H747.406V13.7964H751.929ZM748.724 11.7055H750.065V20.0237C750.065 20.4025 750.12 20.6866 750.23 20.876C750.344 21.0616 750.488 21.1866 750.662 21.251C750.84 21.3116 751.027 21.3419 751.224 21.3419C751.372 21.3419 751.493 21.3343 751.588 21.3191C751.683 21.3002 751.759 21.285 751.815 21.2737L752.088 22.4782C751.997 22.5123 751.87 22.5464 751.707 22.5805C751.545 22.6184 751.338 22.6373 751.088 22.6373C750.709 22.6373 750.338 22.5559 749.974 22.393C749.615 22.2301 749.315 21.982 749.077 21.6487C748.842 21.3153 748.724 20.8949 748.724 20.3873V11.7055ZM757.511 22.7055C756.67 22.7055 755.945 22.5199 755.335 22.1487C754.729 21.7737 754.261 21.251 753.932 20.5805C753.606 19.9063 753.443 19.1222 753.443 18.2282C753.443 17.3343 753.606 16.5464 753.932 15.8646C754.261 15.179 754.72 14.6449 755.307 14.2623C755.898 13.876 756.587 13.6828 757.375 13.6828C757.83 13.6828 758.278 13.7585 758.722 13.91C759.165 14.0616 759.568 14.3078 759.932 14.6487C760.295 14.9858 760.585 15.4328 760.801 15.9896C761.017 16.5464 761.125 17.232 761.125 18.0464V18.6146H754.398V17.4555H759.761C759.761 16.9631 759.663 16.5237 759.466 16.1373C759.273 15.751 758.996 15.446 758.636 15.2225C758.28 14.9991 757.86 14.8873 757.375 14.8873C756.841 14.8873 756.379 15.0199 755.989 15.285C755.602 15.5464 755.305 15.8873 755.097 16.3078C754.888 16.7282 754.784 17.179 754.784 17.66V18.4328C754.784 19.0919 754.898 19.6506 755.125 20.1089C755.356 20.5635 755.676 20.91 756.085 21.1487C756.494 21.3835 756.97 21.501 757.511 21.501C757.864 21.501 758.182 21.4517 758.466 21.3532C758.754 21.251 759.002 21.0994 759.21 20.8987C759.419 20.6941 759.58 20.4403 759.693 20.1373L760.989 20.501C760.852 20.9403 760.623 21.3267 760.301 21.66C759.979 21.9896 759.581 22.2472 759.108 22.4328C758.634 22.6146 758.102 22.7055 757.511 22.7055ZM764.506 17.2737V22.5237H763.165V13.7964H764.46V15.16H764.574C764.778 14.7169 765.089 14.3608 765.506 14.0919C765.922 13.8191 766.46 13.6828 767.119 13.6828C767.71 13.6828 768.227 13.804 768.67 14.0464C769.114 14.285 769.458 14.6487 769.705 15.1373C769.951 15.6222 770.074 16.2358 770.074 16.9782V22.5237H768.733V17.0691C768.733 16.3835 768.555 15.8494 768.199 15.4669C767.843 15.0805 767.354 14.8873 766.733 14.8873C766.305 14.8873 765.922 14.9801 765.585 15.1657C765.252 15.3513 764.989 15.6222 764.795 15.9782C764.602 16.3343 764.506 16.7661 764.506 17.2737ZM775.092 22.7282C774.539 22.7282 774.037 22.6241 773.587 22.4157C773.136 22.2036 772.778 21.8987 772.513 21.501C772.248 21.0994 772.115 20.6146 772.115 20.0464C772.115 19.5464 772.214 19.1411 772.411 18.8305C772.607 18.5161 772.871 18.2699 773.2 18.0919C773.53 17.9138 773.893 17.7813 774.291 17.6941C774.693 17.6032 775.096 17.5313 775.501 17.4782C776.032 17.41 776.462 17.3589 776.791 17.3248C777.125 17.2869 777.367 17.2244 777.518 17.1373C777.674 17.0502 777.751 16.8987 777.751 16.6828V16.6373C777.751 16.0767 777.598 15.6411 777.291 15.3305C776.988 15.0199 776.528 14.8646 775.911 14.8646C775.27 14.8646 774.768 15.0047 774.405 15.285C774.041 15.5653 773.786 15.8646 773.638 16.1828L772.365 15.7282C772.592 15.1979 772.895 14.785 773.274 14.4896C773.657 14.1903 774.073 13.982 774.524 13.8646C774.979 13.7434 775.426 13.6828 775.865 13.6828C776.145 13.6828 776.467 13.7169 776.831 13.785C777.198 13.8494 777.553 13.9839 777.893 14.1885C778.238 14.393 778.524 14.7017 778.751 15.1146C778.979 15.5275 779.092 16.0805 779.092 16.7737V22.5237H777.751V21.3419H777.683C777.592 21.5313 777.441 21.7339 777.229 21.9498C777.017 22.1657 776.734 22.3494 776.382 22.501C776.03 22.6525 775.6 22.7282 775.092 22.7282ZM775.297 21.5237C775.827 21.5237 776.274 21.4195 776.638 21.2112C777.005 21.0028 777.282 20.7339 777.467 20.4044C777.657 20.0748 777.751 19.7282 777.751 19.3646V18.1373C777.695 18.2055 777.57 18.268 777.376 18.3248C777.187 18.3778 776.967 18.4252 776.717 18.4669C776.471 18.5047 776.231 18.5388 775.996 18.5691C775.765 18.5957 775.577 18.6184 775.433 18.6373C775.085 18.6828 774.759 18.7566 774.456 18.8589C774.157 18.9574 773.914 19.107 773.729 19.3078C773.547 19.5047 773.456 19.7737 773.456 20.1146C773.456 20.5805 773.628 20.9328 773.973 21.1714C774.321 21.4063 774.763 21.5237 775.297 21.5237ZM782.881 17.2737V22.5237H781.54V13.7964H782.835V15.16H782.949C783.153 14.7169 783.464 14.3608 783.881 14.0919C784.297 13.8191 784.835 13.6828 785.494 13.6828C786.085 13.6828 786.602 13.804 787.045 14.0464C787.489 14.285 787.833 14.6487 788.08 15.1373C788.326 15.6222 788.449 16.2358 788.449 16.9782V22.5237H787.108V17.0691C787.108 16.3835 786.93 15.8494 786.574 15.4669C786.218 15.0805 785.729 14.8873 785.108 14.8873C784.68 14.8873 784.297 14.9801 783.96 15.1657C783.627 15.3513 783.364 15.6222 783.17 15.9782C782.977 16.3343 782.881 16.7661 782.881 17.2737ZM794.445 22.7055C793.626 22.7055 792.922 22.5123 792.331 22.126C791.74 21.7396 791.286 21.2074 790.967 20.5294C790.649 19.8513 790.49 19.0767 790.49 18.2055C790.49 17.3191 790.653 16.5369 790.979 15.8589C791.308 15.1771 791.767 14.6449 792.354 14.2623C792.945 13.876 793.634 13.6828 794.422 13.6828C795.036 13.6828 795.589 13.7964 796.081 14.0237C796.573 14.251 796.977 14.5691 797.291 14.9782C797.606 15.3873 797.801 15.8646 797.876 16.41H796.536C796.433 16.0123 796.206 15.66 795.854 15.3532C795.505 15.0426 795.036 14.8873 794.445 14.8873C793.922 14.8873 793.464 15.0237 793.07 15.2964C792.679 15.5653 792.375 15.946 792.155 16.4385C791.939 16.9271 791.831 17.501 791.831 18.16C791.831 18.8343 791.937 19.4214 792.149 19.9214C792.365 20.4214 792.668 20.8097 793.058 21.0862C793.452 21.3627 793.914 21.501 794.445 21.501C794.793 21.501 795.109 21.4403 795.393 21.3191C795.678 21.1979 795.918 21.0237 796.115 20.7964C796.312 20.5691 796.452 20.2964 796.536 19.9782H797.876C797.801 20.4934 797.613 20.9574 797.314 21.3703C797.018 21.7794 796.626 22.1051 796.138 22.3475C795.653 22.5862 795.089 22.7055 794.445 22.7055ZM803.496 22.7055C802.655 22.7055 801.929 22.5199 801.32 22.1487C800.714 21.7737 800.246 21.251 799.916 20.5805C799.59 19.9063 799.428 19.1222 799.428 18.2282C799.428 17.3343 799.59 16.5464 799.916 15.8646C800.246 15.179 800.704 14.6449 801.291 14.2623C801.882 13.876 802.571 13.6828 803.359 13.6828C803.814 13.6828 804.263 13.7585 804.706 13.91C805.149 14.0616 805.553 14.3078 805.916 14.6487C806.28 14.9858 806.57 15.4328 806.786 15.9896C807.001 16.5464 807.109 17.232 807.109 18.0464V18.6146H800.382V17.4555H805.746C805.746 16.9631 805.647 16.5237 805.45 16.1373C805.257 15.751 804.981 15.446 804.621 15.2225C804.265 14.9991 803.844 14.8873 803.359 14.8873C802.825 14.8873 802.363 15.0199 801.973 15.285C801.587 15.5464 801.289 15.8873 801.081 16.3078C800.873 16.7282 800.768 17.179 800.768 17.66V18.4328C800.768 19.0919 800.882 19.6506 801.109 20.1089C801.34 20.5635 801.661 20.91 802.07 21.1487C802.479 21.3835 802.954 21.501 803.496 21.501C803.848 21.501 804.166 21.4517 804.45 21.3532C804.738 21.251 804.986 21.0994 805.195 20.8987C805.403 20.6941 805.564 20.4403 805.678 20.1373L806.973 20.501C806.837 20.9403 806.607 21.3267 806.286 21.66C805.964 21.9896 805.566 22.2472 805.092 22.4328C804.619 22.6146 804.087 22.7055 803.496 22.7055ZM816.217 22.7282C815.664 22.7282 815.162 22.6241 814.712 22.4157C814.261 22.2036 813.903 21.8987 813.638 21.501C813.373 21.0994 813.24 20.6146 813.24 20.0464C813.24 19.5464 813.339 19.1411 813.536 18.8305C813.732 18.5161 813.996 18.2699 814.325 18.0919C814.655 17.9138 815.018 17.7813 815.416 17.6941C815.818 17.6032 816.221 17.5313 816.626 17.4782C817.157 17.41 817.587 17.3589 817.916 17.3248C818.25 17.2869 818.492 17.2244 818.643 17.1373C818.799 17.0502 818.876 16.8987 818.876 16.6828V16.6373C818.876 16.0767 818.723 15.6411 818.416 15.3305C818.113 15.0199 817.653 14.8646 817.036 14.8646C816.395 14.8646 815.893 15.0047 815.53 15.285C815.166 15.5653 814.911 15.8646 814.763 16.1828L813.49 15.7282C813.717 15.1979 814.02 14.785 814.399 14.4896C814.782 14.1903 815.198 13.982 815.649 13.8646C816.104 13.7434 816.551 13.6828 816.99 13.6828C817.27 13.6828 817.592 13.7169 817.956 13.785C818.323 13.8494 818.678 13.9839 819.018 14.1885C819.363 14.393 819.649 14.7017 819.876 15.1146C820.104 15.5275 820.217 16.0805 820.217 16.7737V22.5237H818.876V21.3419H818.808C818.717 21.5313 818.566 21.7339 818.354 21.9498C818.142 22.1657 817.859 22.3494 817.507 22.501C817.155 22.6525 816.725 22.7282 816.217 22.7282ZM816.422 21.5237C816.952 21.5237 817.399 21.4195 817.763 21.2112C818.13 21.0028 818.407 20.7339 818.592 20.4044C818.782 20.0748 818.876 19.7282 818.876 19.3646V18.1373C818.82 18.2055 818.695 18.268 818.501 18.3248C818.312 18.3778 818.092 18.4252 817.842 18.4669C817.596 18.5047 817.356 18.5388 817.121 18.5691C816.89 18.5957 816.702 18.6184 816.558 18.6373C816.21 18.6828 815.884 18.7566 815.581 18.8589C815.282 18.9574 815.039 19.107 814.854 19.3078C814.672 19.5047 814.581 19.7737 814.581 20.1146C814.581 20.5805 814.753 20.9328 815.098 21.1714C815.446 21.4063 815.888 21.5237 816.422 21.5237ZM822.665 22.5237V13.7964H823.96V15.16H824.074C824.256 14.6941 824.549 14.3324 824.955 14.0748C825.36 13.8135 825.847 13.6828 826.415 13.6828C826.991 13.6828 827.47 13.8135 827.852 14.0748C828.239 14.3324 828.54 14.6941 828.756 15.16H828.847C829.07 14.7093 829.405 14.3513 829.852 14.0862C830.299 13.8172 830.835 13.6828 831.46 13.6828C832.241 13.6828 832.879 13.9271 833.375 14.4157C833.871 14.9006 834.119 15.6563 834.119 16.6828V22.5237H832.778V16.6828C832.778 16.0388 832.602 15.5786 832.25 15.3021C831.898 15.0256 831.483 14.8873 831.006 14.8873C830.392 14.8873 829.917 15.0729 829.58 15.4441C829.242 15.8116 829.074 16.2775 829.074 16.8419V22.5237H827.71V16.5464C827.71 16.0502 827.549 15.6506 827.227 15.3475C826.905 15.0407 826.491 14.8873 825.983 14.8873C825.634 14.8873 825.309 14.9801 825.006 15.1657C824.706 15.3513 824.464 15.6089 824.278 15.9385C824.097 16.2642 824.006 16.6411 824.006 17.0691V22.5237H822.665ZM840.116 22.7055C839.329 22.7055 838.637 22.518 838.043 22.143C837.452 21.768 836.99 21.2434 836.656 20.5691C836.327 19.8949 836.162 19.107 836.162 18.2055C836.162 17.2964 836.327 16.5028 836.656 15.8248C836.99 15.1468 837.452 14.6203 838.043 14.2453C838.637 13.8703 839.329 13.6828 840.116 13.6828C840.904 13.6828 841.594 13.8703 842.185 14.2453C842.779 14.6203 843.241 15.1468 843.571 15.8248C843.904 16.5028 844.071 17.2964 844.071 18.2055C844.071 19.107 843.904 19.8949 843.571 20.5691C843.241 21.2434 842.779 21.768 842.185 22.143C841.594 22.518 840.904 22.7055 840.116 22.7055ZM840.116 21.501C840.715 21.501 841.207 21.3475 841.594 21.0407C841.98 20.7339 842.266 20.3305 842.452 19.8305C842.637 19.3305 842.73 18.7888 842.73 18.2055C842.73 17.6222 842.637 17.0786 842.452 16.5748C842.266 16.071 841.98 15.6638 841.594 15.3532C841.207 15.0426 840.715 14.8873 840.116 14.8873C839.518 14.8873 839.026 15.0426 838.639 15.3532C838.253 15.6638 837.967 16.071 837.781 16.5748C837.596 17.0786 837.503 17.6222 837.503 18.2055C837.503 18.7888 837.596 19.3305 837.781 19.8305C837.967 20.3305 838.253 20.7339 838.639 21.0407C839.026 21.3475 839.518 21.501 840.116 21.501ZM851.618 18.9555V13.7964H852.959V22.5237H851.618V21.0464H851.527C851.322 21.4896 851.004 21.8665 850.572 22.1771C850.141 22.4839 849.595 22.6373 848.936 22.6373C848.391 22.6373 847.906 22.518 847.482 22.2794C847.057 22.0369 846.724 21.6733 846.482 21.1885C846.239 20.6998 846.118 20.0843 846.118 19.3419V13.7964H847.459V19.251C847.459 19.8873 847.637 20.3949 847.993 20.7737C848.353 21.1525 848.811 21.3419 849.368 21.3419C849.701 21.3419 850.04 21.2566 850.385 21.0862C850.733 20.9157 851.025 20.6544 851.26 20.3021C851.499 19.9498 851.618 19.501 851.618 18.9555ZM856.756 17.2737V22.5237H855.415V13.7964H856.71V15.16H856.824C857.028 14.7169 857.339 14.3608 857.756 14.0919C858.172 13.8191 858.71 13.6828 859.369 13.6828C859.96 13.6828 860.477 13.804 860.92 14.0464C861.364 14.285 861.708 14.6487 861.955 15.1373C862.201 15.6222 862.324 16.2358 862.324 16.9782V22.5237H860.983V17.0691C860.983 16.3835 860.805 15.8494 860.449 15.4669C860.093 15.0805 859.604 14.8873 858.983 14.8873C858.555 14.8873 858.172 14.9801 857.835 15.1657C857.502 15.3513 857.239 15.6222 857.045 15.9782C856.852 16.3343 856.756 16.7661 856.756 17.2737ZM868.57 13.7964V14.9328H864.047V13.7964H868.57ZM865.365 11.7055H866.706V20.0237C866.706 20.4025 866.761 20.6866 866.871 20.876C866.984 21.0616 867.128 21.1866 867.303 21.251C867.481 21.3116 867.668 21.3419 867.865 21.3419C868.013 21.3419 868.134 21.3343 868.229 21.3191C868.323 21.3002 868.399 21.285 868.456 21.2737L868.729 22.4782C868.638 22.5123 868.511 22.5464 868.348 22.5805C868.185 22.6184 867.979 22.6373 867.729 22.6373C867.35 22.6373 866.979 22.5559 866.615 22.393C866.255 22.2301 865.956 21.982 865.717 21.6487C865.482 21.3153 865.365 20.8949 865.365 20.3873V11.7055Z" fill="#5A607F"/>
<path d="M682.543 22.6828C681.793 22.6828 681.124 22.554 680.537 22.2964C679.954 22.0388 679.49 21.6809 679.145 21.2225C678.804 20.7604 678.618 20.2244 678.588 19.6146H680.02C680.05 19.9896 680.179 20.3135 680.406 20.5862C680.634 20.8551 680.931 21.0635 681.298 21.2112C681.666 21.3589 682.073 21.4328 682.52 21.4328C683.02 21.4328 683.463 21.3457 683.849 21.1714C684.236 20.9972 684.539 20.7547 684.759 20.4441C684.978 20.1335 685.088 19.7737 685.088 19.3646C685.088 18.9366 684.982 18.5597 684.77 18.2339C684.558 17.9044 684.247 17.6468 683.838 17.4612C683.429 17.2756 682.929 17.1828 682.338 17.1828H681.406V15.9328H682.338C682.8 15.9328 683.205 15.8494 683.554 15.6828C683.906 15.5161 684.181 15.2813 684.378 14.9782C684.579 14.6752 684.679 14.3191 684.679 13.91C684.679 13.5161 684.592 13.1733 684.418 12.8816C684.243 12.59 683.997 12.3627 683.679 12.1998C683.365 12.0369 682.993 11.9555 682.565 11.9555C682.164 11.9555 681.785 12.0294 681.429 12.1771C681.077 12.321 680.789 12.5313 680.565 12.8078C680.342 13.0805 680.221 13.41 680.202 13.7964H678.838C678.861 13.1866 679.045 12.6525 679.389 12.1941C679.734 11.732 680.185 11.3722 680.741 11.1146C681.302 10.857 681.918 10.7282 682.588 10.7282C683.308 10.7282 683.925 10.8741 684.44 11.1657C684.955 11.4536 685.351 11.8343 685.628 12.3078C685.904 12.7813 686.043 13.2926 686.043 13.8419C686.043 14.4972 685.87 15.0559 685.526 15.518C685.185 15.9801 684.721 16.3002 684.134 16.4782V16.5691C684.868 16.6903 685.442 17.0028 685.855 17.5066C686.268 18.0066 686.474 18.626 686.474 19.3646C686.474 19.9972 686.302 20.5653 685.957 21.0691C685.616 21.5691 685.151 21.9631 684.56 22.251C683.969 22.5388 683.296 22.6828 682.543 22.6828Z" fill="#A1A7C4"/>
</svg>
