<svg width="872" height="33" viewBox="0 0 872 33" fill="none" xmlns="http://www.w3.org/2000/svg">
<circle cx="16.5" cy="16.5237" r="16" fill="#F5F6FA"/>
<path d="M45.9091 22.5237V10.8873H49.9773C50.7879 10.8873 51.4564 11.0275 51.983 11.3078C52.5095 11.5843 52.9015 11.9574 53.1591 12.4271C53.4167 12.893 53.5455 13.41 53.5455 13.9782C53.5455 14.4782 53.4564 14.8911 53.2784 15.2169C53.1042 15.5426 52.8731 15.8002 52.5852 15.9896C52.3011 16.179 51.9924 16.3191 51.6591 16.41V16.5237C52.0152 16.5464 52.3731 16.6714 52.733 16.8987C53.0928 17.126 53.3939 17.4517 53.6364 17.876C53.8788 18.3002 54 18.8191 54 19.4328C54 20.0161 53.8674 20.5407 53.6023 21.0066C53.3371 21.4725 52.9186 21.8419 52.3466 22.1146C51.7746 22.3873 51.0303 22.5237 50.1136 22.5237H45.9091ZM47.3182 21.2737H50.1136C51.0341 21.2737 51.6875 21.0957 52.0739 20.7396C52.464 20.3797 52.6591 19.9441 52.6591 19.4328C52.6591 19.0388 52.5587 18.6752 52.358 18.3419C52.1572 18.0047 51.8712 17.7358 51.5 17.535C51.1288 17.3305 50.6894 17.2282 50.1818 17.2282H47.3182V21.2737ZM47.3182 16.001H49.9318C50.3561 16.001 50.7386 15.9176 51.0795 15.751C51.4242 15.5843 51.697 15.3494 51.8977 15.0464C52.1023 14.7434 52.2045 14.3873 52.2045 13.9782C52.2045 13.4669 52.0265 13.0332 51.6705 12.6771C51.3144 12.3172 50.75 12.1373 49.9773 12.1373H47.3182V16.001ZM58.7017 22.7282C58.1487 22.7282 57.6468 22.6241 57.196 22.4157C56.7453 22.2036 56.3873 21.8987 56.1222 21.501C55.857 21.0994 55.7244 20.6146 55.7244 20.0464C55.7244 19.5464 55.8229 19.1411 56.0199 18.8305C56.2169 18.5161 56.4801 18.2699 56.8097 18.0919C57.1392 17.9138 57.5028 17.7813 57.9006 17.6941C58.3021 17.6032 58.7055 17.5313 59.1108 17.4782C59.6411 17.41 60.071 17.3589 60.4006 17.3248C60.7339 17.2869 60.9763 17.2244 61.1278 17.1373C61.2831 17.0502 61.3608 16.8987 61.3608 16.6828V16.6373C61.3608 16.0767 61.2074 15.6411 60.9006 15.3305C60.5975 15.0199 60.1373 14.8646 59.5199 14.8646C58.8797 14.8646 58.3778 15.0047 58.0142 15.285C57.6506 15.5653 57.3949 15.8646 57.2472 16.1828L55.9744 15.7282C56.2017 15.1979 56.5047 14.785 56.8835 14.4896C57.2661 14.1903 57.6828 13.982 58.1335 13.8646C58.5881 13.7434 59.035 13.6828 59.4744 13.6828C59.7547 13.6828 60.0767 13.7169 60.4403 13.785C60.8078 13.8494 61.1619 13.9839 61.5028 14.1885C61.8475 14.393 62.1335 14.7017 62.3608 15.1146C62.5881 15.5275 62.7017 16.0805 62.7017 16.7737V22.5237H61.3608V21.3419H61.2926C61.2017 21.5313 61.0502 21.7339 60.8381 21.9498C60.6259 22.1657 60.3438 22.3494 59.9915 22.501C59.6392 22.6525 59.2093 22.7282 58.7017 22.7282ZM58.9062 21.5237C59.4366 21.5237 59.8835 21.4195 60.2472 21.2112C60.6146 21.0028 60.8911 20.7339 61.0767 20.4044C61.2661 20.0748 61.3608 19.7282 61.3608 19.3646V18.1373C61.304 18.2055 61.179 18.268 60.9858 18.3248C60.7964 18.3778 60.5767 18.4252 60.3267 18.4669C60.0805 18.5047 59.84 18.5388 59.6051 18.5691C59.3741 18.5957 59.1866 18.6184 59.0426 18.6373C58.6941 18.6828 58.3684 18.7566 58.0653 18.8589C57.7661 18.9574 57.5237 19.107 57.3381 19.3078C57.1563 19.5047 57.0653 19.7737 57.0653 20.1146C57.0653 20.5805 57.2377 20.9328 57.5824 21.1714C57.9309 21.4063 58.3722 21.5237 58.9062 21.5237ZM71.331 15.751L70.1264 16.0919C70.0507 15.8911 69.9389 15.696 69.7912 15.5066C69.6473 15.3135 69.4503 15.1544 69.2003 15.0294C68.9503 14.9044 68.6302 14.8419 68.2401 14.8419C67.706 14.8419 67.2609 14.965 66.9048 15.2112C66.5526 15.4536 66.3764 15.7623 66.3764 16.1373C66.3764 16.4707 66.4976 16.7339 66.7401 16.9271C66.9825 17.1203 67.3613 17.2813 67.8764 17.41L69.1719 17.7282C69.9522 17.9176 70.5336 18.2074 70.9162 18.5975C71.2988 18.9839 71.4901 19.482 71.4901 20.0919C71.4901 20.5919 71.3461 21.0388 71.0582 21.4328C70.7741 21.8267 70.3764 22.1373 69.8651 22.3646C69.3537 22.5919 68.759 22.7055 68.081 22.7055C67.1908 22.7055 66.4541 22.5123 65.8707 22.126C65.2874 21.7396 64.9181 21.1752 64.7628 20.4328L66.0355 20.1146C66.1567 20.5843 66.3859 20.9366 66.723 21.1714C67.0639 21.4063 67.509 21.5237 68.0582 21.5237C68.6832 21.5237 69.1795 21.3911 69.5469 21.126C69.9181 20.857 70.1037 20.535 70.1037 20.16C70.1037 19.857 69.9976 19.6032 69.7855 19.3987C69.5734 19.1903 69.2476 19.035 68.8082 18.9328L67.3537 18.5919C66.5545 18.4025 65.9673 18.1089 65.5923 17.7112C65.2211 17.3097 65.0355 16.8078 65.0355 16.2055C65.0355 15.7131 65.1738 15.2775 65.4503 14.8987C65.7306 14.5199 66.1113 14.2225 66.5923 14.0066C67.0772 13.7907 67.6264 13.6828 68.2401 13.6828C69.1037 13.6828 69.7817 13.8722 70.2741 14.251C70.7704 14.6297 71.1226 15.1297 71.331 15.751ZM73.5085 22.5237V13.7964H74.8494V22.5237H73.5085ZM74.1903 12.3419C73.929 12.3419 73.7036 12.2528 73.5142 12.0748C73.3286 11.8968 73.2358 11.6828 73.2358 11.4328C73.2358 11.1828 73.3286 10.9688 73.5142 10.7907C73.7036 10.6127 73.929 10.5237 74.1903 10.5237C74.4517 10.5237 74.6752 10.6127 74.8608 10.7907C75.0502 10.9688 75.1449 11.1828 75.1449 11.4328C75.1449 11.6828 75.0502 11.8968 74.8608 12.0748C74.6752 12.2528 74.4517 12.3419 74.1903 12.3419ZM80.8509 22.7055C80.0327 22.7055 79.3281 22.5123 78.7372 22.126C78.1463 21.7396 77.6918 21.2074 77.3736 20.5294C77.0554 19.8513 76.8963 19.0767 76.8963 18.2055C76.8963 17.3191 77.0592 16.5369 77.3849 15.8589C77.7145 15.1771 78.1728 14.6449 78.7599 14.2623C79.3509 13.876 80.0402 13.6828 80.8281 13.6828C81.4418 13.6828 81.9948 13.7964 82.4872 14.0237C82.9796 14.251 83.383 14.5691 83.6974 14.9782C84.0118 15.3873 84.2069 15.8646 84.2827 16.41H82.9418C82.8395 16.0123 82.6122 15.66 82.2599 15.3532C81.9115 15.0426 81.4418 14.8873 80.8509 14.8873C80.3281 14.8873 79.8698 15.0237 79.4759 15.2964C79.0857 15.5653 78.7808 15.946 78.5611 16.4385C78.3452 16.9271 78.2372 17.501 78.2372 18.16C78.2372 18.8343 78.3433 19.4214 78.5554 19.9214C78.7713 20.4214 79.0743 20.8097 79.4645 21.0862C79.8584 21.3627 80.3205 21.501 80.8509 21.501C81.1993 21.501 81.5156 21.4403 81.7997 21.3191C82.0838 21.1979 82.3243 21.0237 82.5213 20.7964C82.7183 20.5691 82.8584 20.2964 82.9418 19.9782H84.2827C84.2069 20.4934 84.0194 20.9574 83.7202 21.3703C83.4247 21.7794 83.0327 22.1051 82.544 22.3475C82.0592 22.5862 81.4948 22.7055 80.8509 22.7055ZM92.3338 10.8873V22.5237H90.9247V10.8873H92.3338ZM96.3182 17.2737V22.5237H94.9773V13.7964H96.2727V15.16H96.3864C96.5909 14.7169 96.9015 14.3608 97.3182 14.0919C97.7348 13.8191 98.2727 13.6828 98.9318 13.6828C99.5227 13.6828 100.04 13.804 100.483 14.0464C100.926 14.285 101.271 14.6487 101.517 15.1373C101.763 15.6222 101.886 16.2358 101.886 16.9782V22.5237H100.545V17.0691C100.545 16.3835 100.367 15.8494 100.011 15.4669C99.6553 15.0805 99.1667 14.8873 98.5455 14.8873C98.1174 14.8873 97.7348 14.9801 97.3977 15.1657C97.0644 15.3513 96.8011 15.6222 96.608 15.9782C96.4148 16.3343 96.3182 16.7661 96.3182 17.2737ZM108.223 13.7964V14.9328H103.518V13.7964H108.223ZM104.928 22.5237V12.5919C104.928 12.0919 105.045 11.6752 105.28 11.3419C105.515 11.0085 105.82 10.7585 106.195 10.5919C106.57 10.4252 106.965 10.3419 107.382 10.3419C107.712 10.3419 107.981 10.3684 108.189 10.4214C108.397 10.4744 108.553 10.5237 108.655 10.5691L108.268 11.7282C108.2 11.7055 108.106 11.6771 107.984 11.643C107.867 11.6089 107.712 11.5919 107.518 11.5919C107.075 11.5919 106.755 11.7036 106.558 11.9271C106.365 12.1506 106.268 12.4782 106.268 12.91V22.5237H104.928ZM113.288 22.7055C112.5 22.7055 111.809 22.518 111.214 22.143C110.624 21.768 110.161 21.2434 109.828 20.5691C109.499 19.8949 109.334 19.107 109.334 18.2055C109.334 17.2964 109.499 16.5028 109.828 15.8248C110.161 15.1468 110.624 14.6203 111.214 14.2453C111.809 13.8703 112.5 13.6828 113.288 13.6828C114.076 13.6828 114.766 13.8703 115.357 14.2453C115.951 14.6203 116.413 15.1468 116.743 15.8248C117.076 16.5028 117.243 17.2964 117.243 18.2055C117.243 19.107 117.076 19.8949 116.743 20.5691C116.413 21.2434 115.951 21.768 115.357 22.143C114.766 22.518 114.076 22.7055 113.288 22.7055ZM113.288 21.501C113.887 21.501 114.379 21.3475 114.766 21.0407C115.152 20.7339 115.438 20.3305 115.624 19.8305C115.809 19.3305 115.902 18.7888 115.902 18.2055C115.902 17.6222 115.809 17.0786 115.624 16.5748C115.438 16.071 115.152 15.6638 114.766 15.3532C114.379 15.0426 113.887 14.8873 113.288 14.8873C112.69 14.8873 112.197 15.0426 111.811 15.3532C111.425 15.6638 111.139 16.071 110.953 16.5748C110.768 17.0786 110.675 17.6222 110.675 18.2055C110.675 18.7888 110.768 19.3305 110.953 19.8305C111.139 20.3305 111.425 20.7339 111.811 21.0407C112.197 21.3475 112.69 21.501 113.288 21.501ZM119.29 22.5237V13.7964H120.585V15.1146H120.676C120.835 14.6828 121.123 14.3324 121.54 14.0635C121.956 13.7945 122.426 13.66 122.949 13.66C123.047 13.66 123.17 13.6619 123.318 13.6657C123.466 13.6695 123.578 13.6752 123.653 13.6828V15.0464C123.608 15.035 123.504 15.018 123.341 14.9953C123.182 14.9688 123.013 14.9555 122.835 14.9555C122.411 14.9555 122.032 15.0445 121.699 15.2225C121.369 15.3968 121.108 15.6392 120.915 15.9498C120.725 16.2566 120.631 16.607 120.631 17.001V22.5237H119.29ZM125.243 22.5237V13.7964H126.538V15.16H126.652C126.834 14.6941 127.127 14.3324 127.533 14.0748C127.938 13.8135 128.425 13.6828 128.993 13.6828C129.569 13.6828 130.048 13.8135 130.43 14.0748C130.817 14.3324 131.118 14.6941 131.334 15.16H131.425C131.648 14.7093 131.983 14.3513 132.43 14.0862C132.877 13.8172 133.413 13.6828 134.038 13.6828C134.819 13.6828 135.457 13.9271 135.953 14.4157C136.449 14.9006 136.697 15.6563 136.697 16.6828V22.5237H135.357V16.6828C135.357 16.0388 135.18 15.5786 134.828 15.3021C134.476 15.0256 134.061 14.8873 133.584 14.8873C132.97 14.8873 132.495 15.0729 132.158 15.4441C131.821 15.8116 131.652 16.2775 131.652 16.8419V22.5237H130.288V16.5464C130.288 16.0502 130.127 15.6506 129.805 15.3475C129.483 15.0407 129.069 14.8873 128.561 14.8873C128.213 14.8873 127.887 14.9801 127.584 15.1657C127.285 15.3513 127.042 15.6089 126.857 15.9385C126.675 16.2642 126.584 16.6411 126.584 17.0691V22.5237H125.243ZM141.717 22.7282C141.164 22.7282 140.662 22.6241 140.212 22.4157C139.761 22.2036 139.403 21.8987 139.138 21.501C138.873 21.0994 138.74 20.6146 138.74 20.0464C138.74 19.5464 138.839 19.1411 139.036 18.8305C139.232 18.5161 139.496 18.2699 139.825 18.0919C140.155 17.9138 140.518 17.7813 140.916 17.6941C141.318 17.6032 141.721 17.5313 142.126 17.4782C142.657 17.41 143.087 17.3589 143.416 17.3248C143.75 17.2869 143.992 17.2244 144.143 17.1373C144.299 17.0502 144.376 16.8987 144.376 16.6828V16.6373C144.376 16.0767 144.223 15.6411 143.916 15.3305C143.613 15.0199 143.153 14.8646 142.536 14.8646C141.895 14.8646 141.393 15.0047 141.03 15.285C140.666 15.5653 140.411 15.8646 140.263 16.1828L138.99 15.7282C139.217 15.1979 139.52 14.785 139.899 14.4896C140.282 14.1903 140.698 13.982 141.149 13.8646C141.604 13.7434 142.051 13.6828 142.49 13.6828C142.77 13.6828 143.092 13.7169 143.456 13.785C143.823 13.8494 144.178 13.9839 144.518 14.1885C144.863 14.393 145.149 14.7017 145.376 15.1146C145.604 15.5275 145.717 16.0805 145.717 16.7737V22.5237H144.376V21.3419H144.308C144.217 21.5313 144.066 21.7339 143.854 21.9498C143.642 22.1657 143.359 22.3494 143.007 22.501C142.655 22.6525 142.225 22.7282 141.717 22.7282ZM141.922 21.5237C142.452 21.5237 142.899 21.4195 143.263 21.2112C143.63 21.0028 143.907 20.7339 144.092 20.4044C144.282 20.0748 144.376 19.7282 144.376 19.3646V18.1373C144.32 18.2055 144.195 18.268 144.001 18.3248C143.812 18.3778 143.592 18.4252 143.342 18.4669C143.096 18.5047 142.856 18.5388 142.621 18.5691C142.39 18.5957 142.202 18.6184 142.058 18.6373C141.71 18.6828 141.384 18.7566 141.081 18.8589C140.782 18.9574 140.539 19.107 140.354 19.3078C140.172 19.5047 140.081 19.7737 140.081 20.1146C140.081 20.5805 140.253 20.9328 140.598 21.1714C140.946 21.4063 141.388 21.5237 141.922 21.5237ZM151.96 13.7964V14.9328H147.438V13.7964H151.96ZM148.756 11.7055H150.097V20.0237C150.097 20.4025 150.152 20.6866 150.261 20.876C150.375 21.0616 150.519 21.1866 150.693 21.251C150.871 21.3116 151.059 21.3419 151.256 21.3419C151.403 21.3419 151.525 21.3343 151.619 21.3191C151.714 21.3002 151.79 21.285 151.847 21.2737L152.119 22.4782C152.028 22.5123 151.902 22.5464 151.739 22.5805C151.576 22.6184 151.369 22.6373 151.119 22.6373C150.741 22.6373 150.369 22.5559 150.006 22.393C149.646 22.2301 149.347 21.982 149.108 21.6487C148.873 21.3153 148.756 20.8949 148.756 20.3873V11.7055ZM153.977 22.5237V13.7964H155.318V22.5237H153.977ZM154.659 12.3419C154.398 12.3419 154.172 12.2528 153.983 12.0748C153.797 11.8968 153.705 11.6828 153.705 11.4328C153.705 11.1828 153.797 10.9688 153.983 10.7907C154.172 10.6127 154.398 10.5237 154.659 10.5237C154.92 10.5237 155.144 10.6127 155.33 10.7907C155.519 10.9688 155.614 11.1828 155.614 11.4328C155.614 11.6828 155.519 11.8968 155.33 12.0748C155.144 12.2528 154.92 12.3419 154.659 12.3419ZM161.32 22.7055C160.532 22.7055 159.84 22.518 159.246 22.143C158.655 21.768 158.193 21.2434 157.859 20.5691C157.53 19.8949 157.365 19.107 157.365 18.2055C157.365 17.2964 157.53 16.5028 157.859 15.8248C158.193 15.1468 158.655 14.6203 159.246 14.2453C159.84 13.8703 160.532 13.6828 161.32 13.6828C162.107 13.6828 162.797 13.8703 163.388 14.2453C163.982 14.6203 164.445 15.1468 164.774 15.8248C165.107 16.5028 165.274 17.2964 165.274 18.2055C165.274 19.107 165.107 19.8949 164.774 20.5691C164.445 21.2434 163.982 21.768 163.388 22.143C162.797 22.518 162.107 22.7055 161.32 22.7055ZM161.32 21.501C161.918 21.501 162.411 21.3475 162.797 21.0407C163.183 20.7339 163.469 20.3305 163.655 19.8305C163.84 19.3305 163.933 18.7888 163.933 18.2055C163.933 17.6222 163.84 17.0786 163.655 16.5748C163.469 16.071 163.183 15.6638 162.797 15.3532C162.411 15.0426 161.918 14.8873 161.32 14.8873C160.721 14.8873 160.229 15.0426 159.842 15.3532C159.456 15.6638 159.17 16.071 158.984 16.5748C158.799 17.0786 158.706 17.6222 158.706 18.2055C158.706 18.7888 158.799 19.3305 158.984 19.8305C159.17 20.3305 159.456 20.7339 159.842 21.0407C160.229 21.3475 160.721 21.501 161.32 21.501ZM168.662 17.2737V22.5237H167.321V13.7964H168.616V15.16H168.73C168.935 14.7169 169.245 14.3608 169.662 14.0919C170.079 13.8191 170.616 13.6828 171.276 13.6828C171.866 13.6828 172.384 13.804 172.827 14.0464C173.27 14.285 173.615 14.6487 173.861 15.1373C174.107 15.6222 174.23 16.2358 174.23 16.9782V22.5237H172.889V17.0691C172.889 16.3835 172.711 15.8494 172.355 15.4669C171.999 15.0805 171.51 14.8873 170.889 14.8873C170.461 14.8873 170.079 14.9801 169.741 15.1657C169.408 15.3513 169.145 15.6222 168.952 15.9782C168.759 16.3343 168.662 16.7661 168.662 17.2737Z" fill="#5A607F"/>
<path fill-rule="evenodd" clip-rule="evenodd" d="M22.4526 11.2278C22.8344 10.8413 23.4592 10.8436 23.838 11.2331C24.2059 11.6114 24.2039 12.2143 23.8335 12.5901L14.044 22.5237L9.1645 17.5562C8.79508 17.1801 8.79358 16.5779 9.16113 16.1999C9.5403 15.8101 10.1658 15.808 10.5476 16.1953L14.044 19.7427L22.4526 11.2278Z" fill="#7E84A3"/>
<circle cx="231.5" cy="16.5237" r="16" fill="#F5F6FA"/>
<path d="M263.023 22.5237L259.841 10.8873H261.273L263.705 20.3646H263.818L266.295 10.8873H267.886L270.364 20.3646H270.477L272.909 10.8873H274.341L271.159 22.5237H269.705L267.136 13.251H267.045L264.477 22.5237H263.023ZM275.915 22.5237V13.7964H277.256V22.5237H275.915ZM276.597 12.3419C276.335 12.3419 276.11 12.2528 275.92 12.0748C275.735 11.8968 275.642 11.6828 275.642 11.4328C275.642 11.1828 275.735 10.9688 275.92 10.7907C276.11 10.6127 276.335 10.5237 276.597 10.5237C276.858 10.5237 277.081 10.6127 277.267 10.7907C277.456 10.9688 277.551 11.1828 277.551 11.4328C277.551 11.6828 277.456 11.8968 277.267 12.0748C277.081 12.2528 276.858 12.3419 276.597 12.3419ZM281.053 17.2737V22.5237H279.712V13.7964H281.007V15.16H281.121C281.325 14.7169 281.636 14.3608 282.053 14.0919C282.469 13.8191 283.007 13.6828 283.666 13.6828C284.257 13.6828 284.774 13.804 285.217 14.0464C285.661 14.285 286.005 14.6487 286.251 15.1373C286.498 15.6222 286.621 16.2358 286.621 16.9782V22.5237H285.28V17.0691C285.28 16.3835 285.102 15.8494 284.746 15.4669C284.39 15.0805 283.901 14.8873 283.28 14.8873C282.852 14.8873 282.469 14.9801 282.132 15.1657C281.799 15.3513 281.536 15.6222 281.342 15.9782C281.149 16.3343 281.053 16.7661 281.053 17.2737ZM292.594 25.9782C291.946 25.9782 291.389 25.8949 290.923 25.7282C290.457 25.5653 290.069 25.3494 289.759 25.0805C289.452 24.8153 289.207 24.5313 289.026 24.2282L290.094 23.4782C290.215 23.6373 290.368 23.8191 290.554 24.0237C290.74 24.232 290.993 24.4119 291.315 24.5635C291.641 24.7188 292.067 24.7964 292.594 24.7964C293.298 24.7964 293.88 24.626 294.338 24.285C294.796 23.9441 295.026 23.41 295.026 22.6828V20.91H294.912C294.813 21.0691 294.673 21.2661 294.491 21.501C294.313 21.732 294.056 21.9385 293.719 22.1203C293.385 22.2983 292.935 22.3873 292.366 22.3873C291.662 22.3873 291.029 22.2207 290.469 21.8873C289.912 21.554 289.471 21.0691 289.145 20.4328C288.823 19.7964 288.662 19.0237 288.662 18.1146C288.662 17.2207 288.819 16.4422 289.134 15.7794C289.448 15.1127 289.885 14.5975 290.446 14.2339C291.007 13.8665 291.654 13.6828 292.389 13.6828C292.957 13.6828 293.408 13.7775 293.741 13.9669C294.079 14.1525 294.336 14.3646 294.514 14.6032C294.696 14.8381 294.836 15.0313 294.935 15.1828H295.071V13.7964H296.366V22.7737C296.366 23.5237 296.196 24.1335 295.855 24.6032C295.518 25.0767 295.063 25.4233 294.491 25.643C293.923 25.8665 293.291 25.9782 292.594 25.9782ZM292.548 21.1828C293.086 21.1828 293.541 21.0597 293.912 20.8135C294.283 20.5672 294.565 20.2131 294.759 19.751C294.952 19.2888 295.048 18.7358 295.048 18.0919C295.048 17.4631 294.954 16.9082 294.764 16.4271C294.575 15.946 294.295 15.5691 293.923 15.2964C293.552 15.0237 293.094 14.8873 292.548 14.8873C291.98 14.8873 291.507 15.0313 291.128 15.3191C290.753 15.607 290.471 15.9934 290.281 16.4782C290.096 16.9631 290.003 17.501 290.003 18.0919C290.003 18.6979 290.098 19.2339 290.287 19.6998C290.48 20.1619 290.764 20.5256 291.139 20.7907C291.518 21.0521 291.988 21.1828 292.548 21.1828ZM304.912 10.8873V22.5237H303.503V10.8873H304.912ZM308.896 17.2737V22.5237H307.555V13.7964H308.851V15.16H308.964C309.169 14.7169 309.48 14.3608 309.896 14.0919C310.313 13.8191 310.851 13.6828 311.51 13.6828C312.101 13.6828 312.618 13.804 313.061 14.0464C313.504 14.285 313.849 14.6487 314.095 15.1373C314.341 15.6222 314.464 16.2358 314.464 16.9782V22.5237H313.124V17.0691C313.124 16.3835 312.946 15.8494 312.589 15.4669C312.233 15.0805 311.745 14.8873 311.124 14.8873C310.696 14.8873 310.313 14.9801 309.976 15.1657C309.643 15.3513 309.379 15.6222 309.186 15.9782C308.993 16.3343 308.896 16.7661 308.896 17.2737ZM320.801 13.7964V14.9328H316.097V13.7964H320.801ZM317.506 22.5237V12.5919C317.506 12.0919 317.623 11.6752 317.858 11.3419C318.093 11.0085 318.398 10.7585 318.773 10.5919C319.148 10.4252 319.544 10.3419 319.96 10.3419C320.29 10.3419 320.559 10.3684 320.767 10.4214C320.975 10.4744 321.131 10.5237 321.233 10.5691L320.847 11.7282C320.778 11.7055 320.684 11.6771 320.562 11.643C320.445 11.6089 320.29 11.5919 320.097 11.5919C319.653 11.5919 319.333 11.7036 319.136 11.9271C318.943 12.1506 318.847 12.4782 318.847 12.91V22.5237H317.506ZM325.866 22.7055C325.079 22.7055 324.387 22.518 323.793 22.143C323.202 21.768 322.74 21.2434 322.406 20.5691C322.077 19.8949 321.912 19.107 321.912 18.2055C321.912 17.2964 322.077 16.5028 322.406 15.8248C322.74 15.1468 323.202 14.6203 323.793 14.2453C324.387 13.8703 325.079 13.6828 325.866 13.6828C326.654 13.6828 327.344 13.8703 327.935 14.2453C328.529 14.6203 328.991 15.1468 329.321 15.8248C329.654 16.5028 329.821 17.2964 329.821 18.2055C329.821 19.107 329.654 19.8949 329.321 20.5691C328.991 21.2434 328.529 21.768 327.935 22.143C327.344 22.518 326.654 22.7055 325.866 22.7055ZM325.866 21.501C326.465 21.501 326.957 21.3475 327.344 21.0407C327.73 20.7339 328.016 20.3305 328.202 19.8305C328.387 19.3305 328.48 18.7888 328.48 18.2055C328.48 17.6222 328.387 17.0786 328.202 16.5748C328.016 16.071 327.73 15.6638 327.344 15.3532C326.957 15.0426 326.465 14.8873 325.866 14.8873C325.268 14.8873 324.776 15.0426 324.389 15.3532C324.003 15.6638 323.717 16.071 323.531 16.5748C323.346 17.0786 323.253 17.6222 323.253 18.2055C323.253 18.7888 323.346 19.3305 323.531 19.8305C323.717 20.3305 324.003 20.7339 324.389 21.0407C324.776 21.3475 325.268 21.501 325.866 21.501ZM331.868 22.5237V13.7964H333.163V15.1146H333.254C333.413 14.6828 333.701 14.3324 334.118 14.0635C334.535 13.7945 335.004 13.66 335.527 13.66C335.625 13.66 335.749 13.6619 335.896 13.6657C336.044 13.6695 336.156 13.6752 336.232 13.6828V15.0464C336.186 15.035 336.082 15.018 335.919 14.9953C335.76 14.9688 335.591 14.9555 335.413 14.9555C334.989 14.9555 334.61 15.0445 334.277 15.2225C333.947 15.3968 333.686 15.6392 333.493 15.9498C333.304 16.2566 333.209 16.607 333.209 17.001V22.5237H331.868ZM337.821 22.5237V13.7964H339.116V15.16H339.23C339.412 14.6941 339.705 14.3324 340.111 14.0748C340.516 13.8135 341.003 13.6828 341.571 13.6828C342.147 13.6828 342.626 13.8135 343.009 14.0748C343.395 14.3324 343.696 14.6941 343.912 15.16H344.003C344.226 14.7093 344.562 14.3513 345.009 14.0862C345.455 13.8172 345.991 13.6828 346.616 13.6828C347.397 13.6828 348.035 13.9271 348.531 14.4157C349.027 14.9006 349.276 15.6563 349.276 16.6828V22.5237H347.935V16.6828C347.935 16.0388 347.759 15.5786 347.406 15.3021C347.054 15.0256 346.639 14.8873 346.162 14.8873C345.548 14.8873 345.073 15.0729 344.736 15.4441C344.399 15.8116 344.23 16.2775 344.23 16.8419V22.5237H342.866V16.5464C342.866 16.0502 342.705 15.6506 342.384 15.3475C342.062 15.0407 341.647 14.8873 341.139 14.8873C340.791 14.8873 340.465 14.9801 340.162 15.1657C339.863 15.3513 339.62 15.6089 339.435 15.9385C339.253 16.2642 339.162 16.6411 339.162 17.0691V22.5237H337.821ZM354.295 22.7282C353.742 22.7282 353.241 22.6241 352.79 22.4157C352.339 22.2036 351.981 21.8987 351.716 21.501C351.451 21.0994 351.318 20.6146 351.318 20.0464C351.318 19.5464 351.417 19.1411 351.614 18.8305C351.811 18.5161 352.074 18.2699 352.403 18.0919C352.733 17.9138 353.097 17.7813 353.494 17.6941C353.896 17.6032 354.299 17.5313 354.705 17.4782C355.235 17.41 355.665 17.3589 355.994 17.3248C356.328 17.2869 356.57 17.2244 356.722 17.1373C356.877 17.0502 356.955 16.8987 356.955 16.6828V16.6373C356.955 16.0767 356.801 15.6411 356.494 15.3305C356.191 15.0199 355.731 14.8646 355.114 14.8646C354.473 14.8646 353.972 15.0047 353.608 15.285C353.244 15.5653 352.989 15.8646 352.841 16.1828L351.568 15.7282C351.795 15.1979 352.098 14.785 352.477 14.4896C352.86 14.1903 353.277 13.982 353.727 13.8646C354.182 13.7434 354.629 13.6828 355.068 13.6828C355.348 13.6828 355.67 13.7169 356.034 13.785C356.402 13.8494 356.756 13.9839 357.097 14.1885C357.441 14.393 357.727 14.7017 357.955 15.1146C358.182 15.5275 358.295 16.0805 358.295 16.7737V22.5237H356.955V21.3419H356.886C356.795 21.5313 356.644 21.7339 356.432 21.9498C356.22 22.1657 355.938 22.3494 355.585 22.501C355.233 22.6525 354.803 22.7282 354.295 22.7282ZM354.5 21.5237C355.03 21.5237 355.477 21.4195 355.841 21.2112C356.208 21.0028 356.485 20.7339 356.67 20.4044C356.86 20.0748 356.955 19.7282 356.955 19.3646V18.1373C356.898 18.2055 356.773 18.268 356.58 18.3248C356.39 18.3778 356.17 18.4252 355.92 18.4669C355.674 18.5047 355.434 18.5388 355.199 18.5691C354.968 18.5957 354.78 18.6184 354.636 18.6373C354.288 18.6828 353.962 18.7566 353.659 18.8589C353.36 18.9574 353.117 19.107 352.932 19.3078C352.75 19.5047 352.659 19.7737 352.659 20.1146C352.659 20.5805 352.831 20.9328 353.176 21.1714C353.525 21.4063 353.966 21.5237 354.5 21.5237ZM364.538 13.7964V14.9328H360.016V13.7964H364.538ZM361.334 11.7055H362.675V20.0237C362.675 20.4025 362.73 20.6866 362.839 20.876C362.953 21.0616 363.097 21.1866 363.271 21.251C363.449 21.3116 363.637 21.3419 363.834 21.3419C363.982 21.3419 364.103 21.3343 364.197 21.3191C364.292 21.3002 364.368 21.285 364.425 21.2737L364.697 22.4782C364.607 22.5123 364.48 22.5464 364.317 22.5805C364.154 22.6184 363.947 22.6373 363.697 22.6373C363.319 22.6373 362.947 22.5559 362.584 22.393C362.224 22.2301 361.925 21.982 361.686 21.6487C361.451 21.3153 361.334 20.8949 361.334 20.3873V11.7055ZM366.555 22.5237V13.7964H367.896V22.5237H366.555ZM367.237 12.3419C366.976 12.3419 366.75 12.2528 366.561 12.0748C366.375 11.8968 366.283 11.6828 366.283 11.4328C366.283 11.1828 366.375 10.9688 366.561 10.7907C366.75 10.6127 366.976 10.5237 367.237 10.5237C367.499 10.5237 367.722 10.6127 367.908 10.7907C368.097 10.9688 368.192 11.1828 368.192 11.4328C368.192 11.6828 368.097 11.8968 367.908 12.0748C367.722 12.2528 367.499 12.3419 367.237 12.3419ZM373.898 22.7055C373.11 22.7055 372.419 22.518 371.824 22.143C371.233 21.768 370.771 21.2434 370.438 20.5691C370.108 19.8949 369.943 19.107 369.943 18.2055C369.943 17.2964 370.108 16.5028 370.438 15.8248C370.771 15.1468 371.233 14.6203 371.824 14.2453C372.419 13.8703 373.11 13.6828 373.898 13.6828C374.686 13.6828 375.375 13.8703 375.966 14.2453C376.561 14.6203 377.023 15.1468 377.352 15.8248C377.686 16.5028 377.852 17.2964 377.852 18.2055C377.852 19.107 377.686 19.8949 377.352 20.5691C377.023 21.2434 376.561 21.768 375.966 22.143C375.375 22.518 374.686 22.7055 373.898 22.7055ZM373.898 21.501C374.496 21.501 374.989 21.3475 375.375 21.0407C375.761 20.7339 376.047 20.3305 376.233 19.8305C376.419 19.3305 376.511 18.7888 376.511 18.2055C376.511 17.6222 376.419 17.0786 376.233 16.5748C376.047 16.071 375.761 15.6638 375.375 15.3532C374.989 15.0426 374.496 14.8873 373.898 14.8873C373.299 14.8873 372.807 15.0426 372.42 15.3532C372.034 15.6638 371.748 16.071 371.562 16.5748C371.377 17.0786 371.284 17.6222 371.284 18.2055C371.284 18.7888 371.377 19.3305 371.562 19.8305C371.748 20.3305 372.034 20.7339 372.42 21.0407C372.807 21.3475 373.299 21.501 373.898 21.501ZM381.24 17.2737V22.5237H379.899V13.7964H381.195V15.16H381.308C381.513 14.7169 381.823 14.3608 382.24 14.0919C382.657 13.8191 383.195 13.6828 383.854 13.6828C384.445 13.6828 384.962 13.804 385.405 14.0464C385.848 14.285 386.193 14.6487 386.439 15.1373C386.685 15.6222 386.808 16.2358 386.808 16.9782V22.5237H385.467V17.0691C385.467 16.3835 385.289 15.8494 384.933 15.4669C384.577 15.0805 384.089 14.8873 383.467 14.8873C383.039 14.8873 382.657 14.9801 382.32 15.1657C381.986 15.3513 381.723 15.6222 381.53 15.9782C381.337 16.3343 381.24 16.7661 381.24 17.2737Z" fill="#5A607F"/>
<path fill-rule="evenodd" clip-rule="evenodd" d="M237.453 11.2278C237.834 10.8413 238.459 10.8436 238.838 11.2331C239.206 11.6114 239.204 12.2143 238.834 12.5901L229.044 22.5237L224.165 17.5562C223.795 17.1801 223.794 16.5779 224.161 16.1999C224.54 15.8101 225.166 15.808 225.548 16.1953L229.044 19.7427L237.453 11.2278Z" fill="#7E84A3"/>
<circle cx="444.5" cy="16.5237" r="16" fill="#F5F6FA"/>
<path d="M473.909 10.8873H475.591L479.545 20.5464H479.682L483.636 10.8873H485.318V22.5237H484V13.6828H483.886L480.25 22.5237H478.977L475.341 13.6828H475.227V22.5237H473.909V10.8873ZM490.53 22.7282C489.977 22.7282 489.475 22.6241 489.024 22.4157C488.573 22.2036 488.215 21.8987 487.95 21.501C487.685 21.0994 487.553 20.6146 487.553 20.0464C487.553 19.5464 487.651 19.1411 487.848 18.8305C488.045 18.5161 488.308 18.2699 488.638 18.0919C488.967 17.9138 489.331 17.7813 489.729 17.6941C490.13 17.6032 490.534 17.5313 490.939 17.4782C491.469 17.41 491.899 17.3589 492.229 17.3248C492.562 17.2869 492.804 17.2244 492.956 17.1373C493.111 17.0502 493.189 16.8987 493.189 16.6828V16.6373C493.189 16.0767 493.036 15.6411 492.729 15.3305C492.426 15.0199 491.965 14.8646 491.348 14.8646C490.708 14.8646 490.206 15.0047 489.842 15.285C489.479 15.5653 489.223 15.8646 489.075 16.1828L487.803 15.7282C488.03 15.1979 488.333 14.785 488.712 14.4896C489.094 14.1903 489.511 13.982 489.962 13.8646C490.416 13.7434 490.863 13.6828 491.303 13.6828C491.583 13.6828 491.905 13.7169 492.268 13.785C492.636 13.8494 492.99 13.9839 493.331 14.1885C493.676 14.393 493.962 14.7017 494.189 15.1146C494.416 15.5275 494.53 16.0805 494.53 16.7737V22.5237H493.189V21.3419H493.121C493.03 21.5313 492.878 21.7339 492.666 21.9498C492.454 22.1657 492.172 22.3494 491.82 22.501C491.467 22.6525 491.037 22.7282 490.53 22.7282ZM490.734 21.5237C491.265 21.5237 491.712 21.4195 492.075 21.2112C492.443 21.0028 492.719 20.7339 492.905 20.4044C493.094 20.0748 493.189 19.7282 493.189 19.3646V18.1373C493.132 18.2055 493.007 18.268 492.814 18.3248C492.625 18.3778 492.405 18.4252 492.155 18.4669C491.909 18.5047 491.668 18.5388 491.433 18.5691C491.202 18.5957 491.015 18.6184 490.871 18.6373C490.522 18.6828 490.196 18.7566 489.893 18.8589C489.594 18.9574 489.352 19.107 489.166 19.3078C488.984 19.5047 488.893 19.7737 488.893 20.1146C488.893 20.5805 489.066 20.9328 489.411 21.1714C489.759 21.4063 490.2 21.5237 490.734 21.5237ZM496.977 22.5237V13.7964H498.318V22.5237H496.977ZM497.659 12.3419C497.398 12.3419 497.172 12.2528 496.983 12.0748C496.797 11.8968 496.705 11.6828 496.705 11.4328C496.705 11.1828 496.797 10.9688 496.983 10.7907C497.172 10.6127 497.398 10.5237 497.659 10.5237C497.92 10.5237 498.144 10.6127 498.33 10.7907C498.519 10.9688 498.614 11.1828 498.614 11.4328C498.614 11.6828 498.519 11.8968 498.33 12.0748C498.144 12.2528 497.92 12.3419 497.659 12.3419ZM502.115 17.2737V22.5237H500.774V13.7964H502.07V15.16H502.183C502.388 14.7169 502.698 14.3608 503.115 14.0919C503.532 13.8191 504.07 13.6828 504.729 13.6828C505.32 13.6828 505.837 13.804 506.28 14.0464C506.723 14.285 507.068 14.6487 507.314 15.1373C507.56 15.6222 507.683 16.2358 507.683 16.9782V22.5237H506.342V17.0691C506.342 16.3835 506.164 15.8494 505.808 15.4669C505.452 15.0805 504.964 14.8873 504.342 14.8873C503.914 14.8873 503.532 14.9801 503.195 15.1657C502.861 15.3513 502.598 15.6222 502.405 15.9782C502.212 16.3343 502.115 16.7661 502.115 17.2737ZM513.929 13.7964V14.9328H509.406V13.7964H513.929ZM510.724 11.7055H512.065V20.0237C512.065 20.4025 512.12 20.6866 512.23 20.876C512.344 21.0616 512.488 21.1866 512.662 21.251C512.84 21.3116 513.027 21.3419 513.224 21.3419C513.372 21.3419 513.493 21.3343 513.588 21.3191C513.683 21.3002 513.759 21.285 513.815 21.2737L514.088 22.4782C513.997 22.5123 513.87 22.5464 513.707 22.5805C513.545 22.6184 513.338 22.6373 513.088 22.6373C512.709 22.6373 512.338 22.5559 511.974 22.393C511.615 22.2301 511.315 21.982 511.077 21.6487C510.842 21.3153 510.724 20.8949 510.724 20.3873V11.7055ZM519.511 22.7055C518.67 22.7055 517.945 22.5199 517.335 22.1487C516.729 21.7737 516.261 21.251 515.932 20.5805C515.606 19.9063 515.443 19.1222 515.443 18.2282C515.443 17.3343 515.606 16.5464 515.932 15.8646C516.261 15.179 516.72 14.6449 517.307 14.2623C517.898 13.876 518.587 13.6828 519.375 13.6828C519.83 13.6828 520.278 13.7585 520.722 13.91C521.165 14.0616 521.568 14.3078 521.932 14.6487C522.295 14.9858 522.585 15.4328 522.801 15.9896C523.017 16.5464 523.125 17.232 523.125 18.0464V18.6146H516.398V17.4555H521.761C521.761 16.9631 521.663 16.5237 521.466 16.1373C521.273 15.751 520.996 15.446 520.636 15.2225C520.28 14.9991 519.86 14.8873 519.375 14.8873C518.841 14.8873 518.379 15.0199 517.989 15.285C517.602 15.5464 517.305 15.8873 517.097 16.3078C516.888 16.7282 516.784 17.179 516.784 17.66V18.4328C516.784 19.0919 516.898 19.6506 517.125 20.1089C517.356 20.5635 517.676 20.91 518.085 21.1487C518.494 21.3835 518.97 21.501 519.511 21.501C519.864 21.501 520.182 21.4517 520.466 21.3532C520.754 21.251 521.002 21.0994 521.21 20.8987C521.419 20.6941 521.58 20.4403 521.693 20.1373L522.989 20.501C522.852 20.9403 522.623 21.3267 522.301 21.66C521.979 21.9896 521.581 22.2472 521.108 22.4328C520.634 22.6146 520.102 22.7055 519.511 22.7055ZM526.506 17.2737V22.5237H525.165V13.7964H526.46V15.16H526.574C526.778 14.7169 527.089 14.3608 527.506 14.0919C527.922 13.8191 528.46 13.6828 529.119 13.6828C529.71 13.6828 530.227 13.804 530.67 14.0464C531.114 14.285 531.458 14.6487 531.705 15.1373C531.951 15.6222 532.074 16.2358 532.074 16.9782V22.5237H530.733V17.0691C530.733 16.3835 530.555 15.8494 530.199 15.4669C529.843 15.0805 529.354 14.8873 528.733 14.8873C528.305 14.8873 527.922 14.9801 527.585 15.1657C527.252 15.3513 526.989 15.6222 526.795 15.9782C526.602 16.3343 526.506 16.7661 526.506 17.2737ZM537.092 22.7282C536.539 22.7282 536.037 22.6241 535.587 22.4157C535.136 22.2036 534.778 21.8987 534.513 21.501C534.248 21.0994 534.115 20.6146 534.115 20.0464C534.115 19.5464 534.214 19.1411 534.411 18.8305C534.607 18.5161 534.871 18.2699 535.2 18.0919C535.53 17.9138 535.893 17.7813 536.291 17.6941C536.693 17.6032 537.096 17.5313 537.501 17.4782C538.032 17.41 538.462 17.3589 538.791 17.3248C539.125 17.2869 539.367 17.2244 539.518 17.1373C539.674 17.0502 539.751 16.8987 539.751 16.6828V16.6373C539.751 16.0767 539.598 15.6411 539.291 15.3305C538.988 15.0199 538.528 14.8646 537.911 14.8646C537.27 14.8646 536.768 15.0047 536.405 15.285C536.041 15.5653 535.786 15.8646 535.638 16.1828L534.365 15.7282C534.592 15.1979 534.895 14.785 535.274 14.4896C535.657 14.1903 536.073 13.982 536.524 13.8646C536.979 13.7434 537.426 13.6828 537.865 13.6828C538.145 13.6828 538.467 13.7169 538.831 13.785C539.198 13.8494 539.553 13.9839 539.893 14.1885C540.238 14.393 540.524 14.7017 540.751 15.1146C540.979 15.5275 541.092 16.0805 541.092 16.7737V22.5237H539.751V21.3419H539.683C539.592 21.5313 539.441 21.7339 539.229 21.9498C539.017 22.1657 538.734 22.3494 538.382 22.501C538.03 22.6525 537.6 22.7282 537.092 22.7282ZM537.297 21.5237C537.827 21.5237 538.274 21.4195 538.638 21.2112C539.005 21.0028 539.282 20.7339 539.467 20.4044C539.657 20.0748 539.751 19.7282 539.751 19.3646V18.1373C539.695 18.2055 539.57 18.268 539.376 18.3248C539.187 18.3778 538.967 18.4252 538.717 18.4669C538.471 18.5047 538.231 18.5388 537.996 18.5691C537.765 18.5957 537.577 18.6184 537.433 18.6373C537.085 18.6828 536.759 18.7566 536.456 18.8589C536.157 18.9574 535.914 19.107 535.729 19.3078C535.547 19.5047 535.456 19.7737 535.456 20.1146C535.456 20.5805 535.628 20.9328 535.973 21.1714C536.321 21.4063 536.763 21.5237 537.297 21.5237ZM544.881 17.2737V22.5237H543.54V13.7964H544.835V15.16H544.949C545.153 14.7169 545.464 14.3608 545.881 14.0919C546.297 13.8191 546.835 13.6828 547.494 13.6828C548.085 13.6828 548.602 13.804 549.045 14.0464C549.489 14.285 549.833 14.6487 550.08 15.1373C550.326 15.6222 550.449 16.2358 550.449 16.9782V22.5237H549.108V17.0691C549.108 16.3835 548.93 15.8494 548.574 15.4669C548.218 15.0805 547.729 14.8873 547.108 14.8873C546.68 14.8873 546.297 14.9801 545.96 15.1657C545.627 15.3513 545.364 15.6222 545.17 15.9782C544.977 16.3343 544.881 16.7661 544.881 17.2737ZM556.445 22.7055C555.626 22.7055 554.922 22.5123 554.331 22.126C553.74 21.7396 553.286 21.2074 552.967 20.5294C552.649 19.8513 552.49 19.0767 552.49 18.2055C552.49 17.3191 552.653 16.5369 552.979 15.8589C553.308 15.1771 553.767 14.6449 554.354 14.2623C554.945 13.876 555.634 13.6828 556.422 13.6828C557.036 13.6828 557.589 13.7964 558.081 14.0237C558.573 14.251 558.977 14.5691 559.291 14.9782C559.606 15.3873 559.801 15.8646 559.876 16.41H558.536C558.433 16.0123 558.206 15.66 557.854 15.3532C557.505 15.0426 557.036 14.8873 556.445 14.8873C555.922 14.8873 555.464 15.0237 555.07 15.2964C554.679 15.5653 554.375 15.946 554.155 16.4385C553.939 16.9271 553.831 17.501 553.831 18.16C553.831 18.8343 553.937 19.4214 554.149 19.9214C554.365 20.4214 554.668 20.8097 555.058 21.0862C555.452 21.3627 555.914 21.501 556.445 21.501C556.793 21.501 557.109 21.4403 557.393 21.3191C557.678 21.1979 557.918 21.0237 558.115 20.7964C558.312 20.5691 558.452 20.2964 558.536 19.9782H559.876C559.801 20.4934 559.613 20.9574 559.314 21.3703C559.018 21.7794 558.626 22.1051 558.138 22.3475C557.653 22.5862 557.089 22.7055 556.445 22.7055ZM565.496 22.7055C564.655 22.7055 563.929 22.5199 563.32 22.1487C562.714 21.7737 562.246 21.251 561.916 20.5805C561.59 19.9063 561.428 19.1222 561.428 18.2282C561.428 17.3343 561.59 16.5464 561.916 15.8646C562.246 15.179 562.704 14.6449 563.291 14.2623C563.882 13.876 564.571 13.6828 565.359 13.6828C565.814 13.6828 566.263 13.7585 566.706 13.91C567.149 14.0616 567.553 14.3078 567.916 14.6487C568.28 14.9858 568.57 15.4328 568.786 15.9896C569.001 16.5464 569.109 17.232 569.109 18.0464V18.6146H562.382V17.4555H567.746C567.746 16.9631 567.647 16.5237 567.45 16.1373C567.257 15.751 566.981 15.446 566.621 15.2225C566.265 14.9991 565.844 14.8873 565.359 14.8873C564.825 14.8873 564.363 15.0199 563.973 15.285C563.587 15.5464 563.289 15.8873 563.081 16.3078C562.873 16.7282 562.768 17.179 562.768 17.66V18.4328C562.768 19.0919 562.882 19.6506 563.109 20.1089C563.34 20.5635 563.661 20.91 564.07 21.1487C564.479 21.3835 564.954 21.501 565.496 21.501C565.848 21.501 566.166 21.4517 566.45 21.3532C566.738 21.251 566.986 21.0994 567.195 20.8987C567.403 20.6941 567.564 20.4403 567.678 20.1373L568.973 20.501C568.837 20.9403 568.607 21.3267 568.286 21.66C567.964 21.9896 567.566 22.2472 567.092 22.4328C566.619 22.6146 566.087 22.7055 565.496 22.7055ZM575.831 22.5237V10.8873H577.24V16.0691H583.445V10.8873H584.854V22.5237H583.445V17.3191H577.24V22.5237H575.831ZM591.152 22.7055C590.311 22.7055 589.586 22.5199 588.976 22.1487C588.37 21.7737 587.902 21.251 587.572 20.5805C587.247 19.9063 587.084 19.1222 587.084 18.2282C587.084 17.3343 587.247 16.5464 587.572 15.8646C587.902 15.179 588.36 14.6449 588.947 14.2623C589.538 13.876 590.228 13.6828 591.016 13.6828C591.47 13.6828 591.919 13.7585 592.362 13.91C592.805 14.0616 593.209 14.3078 593.572 14.6487C593.936 14.9858 594.226 15.4328 594.442 15.9896C594.658 16.5464 594.766 17.232 594.766 18.0464V18.6146H588.038V17.4555H593.402C593.402 16.9631 593.304 16.5237 593.107 16.1373C592.913 15.751 592.637 15.446 592.277 15.2225C591.921 14.9991 591.5 14.8873 591.016 14.8873C590.482 14.8873 590.019 15.0199 589.629 15.285C589.243 15.5464 588.946 15.8873 588.737 16.3078C588.529 16.7282 588.425 17.179 588.425 17.66V18.4328C588.425 19.0919 588.538 19.6506 588.766 20.1089C588.997 20.5635 589.317 20.91 589.726 21.1487C590.135 21.3835 590.61 21.501 591.152 21.501C591.504 21.501 591.822 21.4517 592.107 21.3532C592.394 21.251 592.643 21.0994 592.851 20.8987C593.059 20.6941 593.22 20.4403 593.334 20.1373L594.629 20.501C594.493 20.9403 594.264 21.3267 593.942 21.66C593.62 21.9896 593.222 22.2472 592.749 22.4328C592.275 22.6146 591.743 22.7055 591.152 22.7055ZM599.374 22.7282C598.821 22.7282 598.319 22.6241 597.868 22.4157C597.417 22.2036 597.059 21.8987 596.794 21.501C596.529 21.0994 596.396 20.6146 596.396 20.0464C596.396 19.5464 596.495 19.1411 596.692 18.8305C596.889 18.5161 597.152 18.2699 597.482 18.0919C597.811 17.9138 598.175 17.7813 598.572 17.6941C598.974 17.6032 599.377 17.5313 599.783 17.4782C600.313 17.41 600.743 17.3589 601.072 17.3248C601.406 17.2869 601.648 17.2244 601.8 17.1373C601.955 17.0502 602.033 16.8987 602.033 16.6828V16.6373C602.033 16.0767 601.879 15.6411 601.572 15.3305C601.269 15.0199 600.809 14.8646 600.192 14.8646C599.552 14.8646 599.05 15.0047 598.686 15.285C598.322 15.5653 598.067 15.8646 597.919 16.1828L596.646 15.7282C596.874 15.1979 597.177 14.785 597.555 14.4896C597.938 14.1903 598.355 13.982 598.805 13.8646C599.26 13.7434 599.707 13.6828 600.146 13.6828C600.427 13.6828 600.749 13.7169 601.112 13.785C601.48 13.8494 601.834 13.9839 602.175 14.1885C602.519 14.393 602.805 14.7017 603.033 15.1146C603.26 15.5275 603.374 16.0805 603.374 16.7737V22.5237H602.033V21.3419H601.964C601.874 21.5313 601.722 21.7339 601.51 21.9498C601.298 22.1657 601.016 22.3494 600.663 22.501C600.311 22.6525 599.881 22.7282 599.374 22.7282ZM599.578 21.5237C600.108 21.5237 600.555 21.4195 600.919 21.2112C601.286 21.0028 601.563 20.7339 601.749 20.4044C601.938 20.0748 602.033 19.7282 602.033 19.3646V18.1373C601.976 18.2055 601.851 18.268 601.658 18.3248C601.468 18.3778 601.249 18.4252 600.999 18.4669C600.752 18.5047 600.512 18.5388 600.277 18.5691C600.046 18.5957 599.858 18.6184 599.714 18.6373C599.366 18.6828 599.04 18.7566 598.737 18.8589C598.438 18.9574 598.196 19.107 598.01 19.3078C597.828 19.5047 597.737 19.7737 597.737 20.1146C597.737 20.5805 597.91 20.9328 598.254 21.1714C598.603 21.4063 599.044 21.5237 599.578 21.5237ZM609.116 22.7055C608.389 22.7055 607.747 22.5218 607.19 22.1544C606.634 21.7832 606.198 21.2604 605.884 20.5862C605.569 19.9082 605.412 19.107 605.412 18.1828C605.412 17.2661 605.569 16.4707 605.884 15.7964C606.198 15.1222 606.635 14.6013 607.196 14.2339C607.757 13.8665 608.404 13.6828 609.139 13.6828C609.707 13.6828 610.156 13.7775 610.486 13.9669C610.819 14.1525 611.073 14.3646 611.247 14.6032C611.425 14.8381 611.563 15.0313 611.662 15.1828H611.776V10.8873H613.116V22.5237H611.821V21.1828H611.662C611.563 21.3419 611.423 21.5426 611.241 21.785C611.06 22.0237 610.8 22.2377 610.463 22.4271C610.126 22.6127 609.677 22.7055 609.116 22.7055ZM609.298 21.501C609.836 21.501 610.291 21.3608 610.662 21.0805C611.033 20.7964 611.315 20.4044 611.509 19.9044C611.702 19.4006 611.798 18.8191 611.798 18.16C611.798 17.5085 611.704 16.9385 611.514 16.4498C611.325 15.9574 611.045 15.5748 610.673 15.3021C610.302 15.0256 609.844 14.8873 609.298 14.8873C608.73 14.8873 608.257 15.0332 607.878 15.3248C607.503 15.6127 607.221 16.0047 607.031 16.501C606.846 16.9934 606.753 17.5464 606.753 18.16C606.753 18.7813 606.848 19.3457 607.037 19.8532C607.23 20.357 607.514 20.7585 607.889 21.0578C608.268 21.3532 608.738 21.501 609.298 21.501ZM621.94 15.751L620.736 16.0919C620.66 15.8911 620.548 15.696 620.401 15.5066C620.257 15.3135 620.06 15.1544 619.81 15.0294C619.56 14.9044 619.24 14.8419 618.849 14.8419C618.315 14.8419 617.87 14.965 617.514 15.2112C617.162 15.4536 616.986 15.7623 616.986 16.1373C616.986 16.4707 617.107 16.7339 617.349 16.9271C617.592 17.1203 617.971 17.2813 618.486 17.41L619.781 17.7282C620.562 17.9176 621.143 18.2074 621.526 18.5975C621.908 18.9839 622.099 19.482 622.099 20.0919C622.099 20.5919 621.955 21.0388 621.668 21.4328C621.384 21.8267 620.986 22.1373 620.474 22.3646C619.963 22.5919 619.368 22.7055 618.69 22.7055C617.8 22.7055 617.063 22.5123 616.48 22.126C615.897 21.7396 615.527 21.1752 615.372 20.4328L616.645 20.1146C616.766 20.5843 616.995 20.9366 617.332 21.1714C617.673 21.4063 618.118 21.5237 618.668 21.5237C619.293 21.5237 619.789 21.3911 620.156 21.126C620.527 20.857 620.713 20.535 620.713 20.16C620.713 19.857 620.607 19.6032 620.395 19.3987C620.183 19.1903 619.857 19.035 619.418 18.9328L617.963 18.5919C617.164 18.4025 616.577 18.1089 616.202 17.7112C615.83 17.3097 615.645 16.8078 615.645 16.2055C615.645 15.7131 615.783 15.2775 616.06 14.8987C616.34 14.5199 616.721 14.2225 617.202 14.0066C617.687 13.7907 618.236 13.6828 618.849 13.6828C619.713 13.6828 620.391 13.8722 620.884 14.251C621.38 14.6297 621.732 15.1297 621.94 15.751Z" fill="#5A607F"/>
<path fill-rule="evenodd" clip-rule="evenodd" d="M450.453 11.2278C450.834 10.8413 451.459 10.8436 451.838 11.2331C452.206 11.6114 452.204 12.2143 451.834 12.5901L442.044 22.5237L437.165 17.5562C436.795 17.1801 436.794 16.5779 437.161 16.1999C437.54 15.8101 438.166 15.808 438.548 16.1953L442.044 19.7427L450.453 11.2278Z" fill="#7E84A3"/>
<circle cx="679.5" cy="16.5237" r="15" fill="white" stroke="#635EFD" stroke-width="2"/>
<path d="M708.778 10.8873H710.909L714.614 19.9328H714.75L718.455 10.8873H720.585V22.5237H718.915V14.1032H718.807L715.375 22.5066H713.989L710.557 14.0975H710.449V22.5237H708.778V10.8873ZM725.541 22.7169C724.988 22.7169 724.488 22.6146 724.041 22.41C723.594 22.2017 723.24 21.9006 722.979 21.5066C722.721 21.1127 722.592 20.6297 722.592 20.0578C722.592 19.5653 722.687 19.16 722.876 18.8419C723.066 18.5237 723.321 18.2718 723.643 18.0862C723.965 17.9006 724.325 17.7604 724.723 17.6657C725.121 17.571 725.526 17.4991 725.939 17.4498C726.462 17.3892 726.886 17.34 727.212 17.3021C727.537 17.2604 727.774 17.1941 727.922 17.1032C728.07 17.0123 728.143 16.8646 728.143 16.66V16.6203C728.143 16.1241 728.003 15.7396 727.723 15.4669C727.446 15.1941 727.034 15.0578 726.484 15.0578C725.912 15.0578 725.462 15.1847 725.132 15.4385C724.806 15.6885 724.581 15.9669 724.456 16.2737L722.859 15.91C723.049 15.3797 723.325 14.9517 723.689 14.626C724.056 14.2964 724.479 14.0578 724.956 13.91C725.433 13.7585 725.935 13.6828 726.462 13.6828C726.81 13.6828 727.179 13.7244 727.57 13.8078C727.964 13.8873 728.331 14.035 728.672 14.251C729.017 14.4669 729.299 14.7756 729.518 15.1771C729.738 15.5748 729.848 16.0919 729.848 16.7282V22.5237H728.189V21.3305H728.121C728.011 21.5502 727.846 21.7661 727.626 21.9782C727.407 22.1903 727.125 22.3665 726.78 22.5066C726.435 22.6468 726.022 22.7169 725.541 22.7169ZM725.911 21.3532C726.38 21.3532 726.782 21.2604 727.115 21.0748C727.452 20.8892 727.708 20.6468 727.882 20.3475C728.06 20.0445 728.149 19.7207 728.149 19.376V18.251C728.089 18.3116 727.971 18.3684 727.797 18.4214C727.626 18.4707 727.431 18.5142 727.212 18.5521C726.992 18.5862 726.778 18.6184 726.57 18.6487C726.361 18.6752 726.187 18.6979 726.047 18.7169C725.717 18.7585 725.416 18.8286 725.143 18.9271C724.875 19.0256 724.659 19.1676 724.496 19.3532C724.337 19.535 724.257 19.7775 724.257 20.0805C724.257 20.501 724.412 20.8191 724.723 21.035C725.034 21.2472 725.429 21.3532 725.911 21.3532ZM732.111 22.5237V13.7964H733.81V22.5237H732.111ZM732.969 12.4498C732.673 12.4498 732.42 12.3513 732.207 12.1544C731.999 11.9536 731.895 11.715 731.895 11.4385C731.895 11.1582 731.999 10.9195 732.207 10.7225C732.42 10.5218 732.673 10.4214 732.969 10.4214C733.264 10.4214 733.516 10.5218 733.724 10.7225C733.937 10.9195 734.043 11.1582 734.043 11.4385C734.043 11.715 733.937 11.9536 733.724 12.1544C733.516 12.3513 733.264 12.4498 732.969 12.4498ZM737.794 17.3419V22.5237H736.095V13.7964H737.726V15.2169H737.834C738.035 14.7547 738.349 14.3835 738.777 14.1032C739.209 13.8229 739.752 13.6828 740.408 13.6828C741.002 13.6828 741.523 13.8078 741.97 14.0578C742.417 14.304 742.764 14.6714 743.01 15.16C743.256 15.6487 743.379 16.2528 743.379 16.9725V22.5237H741.68V17.1771C741.68 16.5445 741.516 16.0502 741.186 15.6941C740.857 15.3343 740.404 15.1544 739.828 15.1544C739.434 15.1544 739.084 15.2396 738.777 15.41C738.474 15.5805 738.233 15.8305 738.055 16.16C737.881 16.4858 737.794 16.8797 737.794 17.3419ZM749.732 13.7964V15.16H744.964V13.7964H749.732ZM746.243 11.7055H747.942V19.9612C747.942 20.2907 747.991 20.5388 748.089 20.7055C748.188 20.8684 748.315 20.9801 748.47 21.0407C748.629 21.0975 748.802 21.126 748.987 21.126C749.124 21.126 749.243 21.1165 749.345 21.0975C749.447 21.0786 749.527 21.0635 749.584 21.0521L749.891 22.4555C749.792 22.4934 749.652 22.5313 749.47 22.5691C749.288 22.6108 749.061 22.6335 748.788 22.6373C748.341 22.6449 747.925 22.5653 747.538 22.3987C747.152 22.232 746.839 21.9744 746.601 21.626C746.362 21.2775 746.243 20.84 746.243 20.3135V11.7055ZM755.278 22.6998C754.419 22.6998 753.678 22.5161 753.057 22.1487C752.439 21.7775 751.962 21.2566 751.625 20.5862C751.292 19.9119 751.125 19.1222 751.125 18.2169C751.125 17.3229 751.292 16.535 751.625 15.8532C751.962 15.1714 752.432 14.6392 753.034 14.2566C753.64 13.8741 754.348 13.6828 755.159 13.6828C755.652 13.6828 756.129 13.7642 756.591 13.9271C757.053 14.09 757.468 14.3457 757.835 14.6941C758.203 15.0426 758.492 15.4953 758.705 16.0521C758.917 16.6051 759.023 17.2775 759.023 18.0691V18.6714H752.085V17.3987H757.358C757.358 16.9517 757.267 16.5559 757.085 16.2112C756.903 15.8627 756.648 15.5881 756.318 15.3873C755.992 15.1866 755.61 15.0862 755.17 15.0862C754.693 15.0862 754.277 15.2036 753.92 15.4385C753.568 15.6695 753.295 15.9725 753.102 16.3475C752.913 16.7188 752.818 17.1222 752.818 17.5578V18.5521C752.818 19.1354 752.92 19.6316 753.125 20.0407C753.333 20.4498 753.623 20.7623 753.994 20.9782C754.366 21.1903 754.799 21.2964 755.295 21.2964C755.617 21.2964 755.911 21.251 756.176 21.16C756.441 21.0653 756.67 20.9252 756.864 20.7396C757.057 20.554 757.205 20.3248 757.307 20.0521L758.915 20.3419C758.786 20.8153 758.555 21.2301 758.222 21.5862C757.892 21.9385 757.477 22.2131 756.977 22.41C756.481 22.6032 755.915 22.6998 755.278 22.6998ZM762.607 17.3419V22.5237H760.908V13.7964H762.538V15.2169H762.646C762.847 14.7547 763.161 14.3835 763.589 14.1032C764.021 13.8229 764.565 13.6828 765.22 13.6828C765.815 13.6828 766.336 13.8078 766.783 14.0578C767.23 14.304 767.576 14.6714 767.822 15.16C768.069 15.6487 768.192 16.2528 768.192 16.9725V22.5237H766.493V17.1771C766.493 16.5445 766.328 16.0502 765.999 15.6941C765.669 15.3343 765.216 15.1544 764.641 15.1544C764.247 15.1544 763.896 15.2396 763.589 15.41C763.286 15.5805 763.046 15.8305 762.868 16.16C762.694 16.4858 762.607 16.8797 762.607 17.3419ZM773.01 22.7169C772.457 22.7169 771.957 22.6146 771.51 22.41C771.063 22.2017 770.709 21.9006 770.447 21.5066C770.19 21.1127 770.061 20.6297 770.061 20.0578C770.061 19.5653 770.156 19.16 770.345 18.8419C770.535 18.5237 770.79 18.2718 771.112 18.0862C771.434 17.9006 771.794 17.7604 772.192 17.6657C772.589 17.571 772.995 17.4991 773.408 17.4498C773.93 17.3892 774.355 17.34 774.68 17.3021C775.006 17.2604 775.243 17.1941 775.391 17.1032C775.538 17.0123 775.612 16.8646 775.612 16.66V16.6203C775.612 16.1241 775.472 15.7396 775.192 15.4669C774.915 15.1941 774.502 15.0578 773.953 15.0578C773.381 15.0578 772.93 15.1847 772.601 15.4385C772.275 15.6885 772.05 15.9669 771.925 16.2737L770.328 15.91C770.518 15.3797 770.794 14.9517 771.158 14.626C771.525 14.2964 771.947 14.0578 772.425 13.91C772.902 13.7585 773.404 13.6828 773.93 13.6828C774.279 13.6828 774.648 13.7244 775.038 13.8078C775.432 13.8873 775.8 14.035 776.141 14.251C776.485 14.4669 776.768 14.7756 776.987 15.1771C777.207 15.5748 777.317 16.0919 777.317 16.7282V22.5237H775.658V21.3305H775.589C775.48 21.5502 775.315 21.7661 775.095 21.9782C774.875 22.1903 774.593 22.3665 774.249 22.5066C773.904 22.6468 773.491 22.7169 773.01 22.7169ZM773.379 21.3532C773.849 21.3532 774.25 21.2604 774.584 21.0748C774.921 20.8892 775.177 20.6468 775.351 20.3475C775.529 20.0445 775.618 19.7207 775.618 19.376V18.251C775.557 18.3116 775.44 18.3684 775.266 18.4214C775.095 18.4707 774.9 18.5142 774.68 18.5521C774.461 18.5862 774.247 18.6184 774.038 18.6487C773.83 18.6752 773.656 18.6979 773.516 18.7169C773.186 18.7585 772.885 18.8286 772.612 18.9271C772.343 19.0256 772.127 19.1676 771.964 19.3532C771.805 19.535 771.726 19.7775 771.726 20.0805C771.726 20.501 771.881 20.8191 772.192 21.035C772.502 21.2472 772.898 21.3532 773.379 21.3532ZM781.278 17.3419V22.5237H779.58V13.7964H781.21V15.2169H781.318C781.519 14.7547 781.833 14.3835 782.261 14.1032C782.693 13.8229 783.237 13.6828 783.892 13.6828C784.487 13.6828 785.008 13.8078 785.455 14.0578C785.902 14.304 786.248 14.6714 786.494 15.16C786.741 15.6487 786.864 16.2528 786.864 16.9725V22.5237H785.165V17.1771C785.165 16.5445 785 16.0502 784.67 15.6941C784.341 15.3343 783.888 15.1544 783.312 15.1544C782.919 15.1544 782.568 15.2396 782.261 15.41C781.958 15.5805 781.718 15.8305 781.54 16.16C781.366 16.4858 781.278 16.8797 781.278 17.3419ZM792.818 22.6998C791.973 22.6998 791.246 22.5085 790.636 22.126C790.03 21.7396 789.564 21.2074 789.239 20.5294C788.913 19.8513 788.75 19.0748 788.75 18.1998C788.75 17.3135 788.917 16.5313 789.25 15.8532C789.583 15.1714 790.053 14.6392 790.659 14.2566C791.265 13.8741 791.979 13.6828 792.801 13.6828C793.464 13.6828 794.055 13.8059 794.574 14.0521C795.093 14.2945 795.511 14.6354 795.83 15.0748C796.152 15.5142 796.343 16.0275 796.403 16.6146H794.75C794.659 16.2055 794.451 15.8532 794.125 15.5578C793.803 15.2623 793.371 15.1146 792.83 15.1146C792.356 15.1146 791.941 15.2396 791.585 15.4896C791.233 15.7358 790.958 16.0881 790.761 16.5464C790.564 17.001 790.466 17.5388 790.466 18.16C790.466 18.7964 790.563 19.3457 790.756 19.8078C790.949 20.2699 791.222 20.6278 791.574 20.8816C791.93 21.1354 792.348 21.2623 792.83 21.2623C793.152 21.2623 793.443 21.2036 793.705 21.0862C793.97 20.965 794.191 20.7926 794.369 20.5691C794.551 20.3457 794.678 20.0767 794.75 19.7623H796.403C796.343 20.3267 796.159 20.8305 795.852 21.2737C795.545 21.7169 795.134 22.0653 794.619 22.3191C794.108 22.5729 793.508 22.6998 792.818 22.6998ZM801.982 22.6998C801.122 22.6998 800.381 22.5161 799.76 22.1487C799.143 21.7775 798.665 21.2566 798.328 20.5862C797.995 19.9119 797.828 19.1222 797.828 18.2169C797.828 17.3229 797.995 16.535 798.328 15.8532C798.665 15.1714 799.135 14.6392 799.737 14.2566C800.343 13.8741 801.052 13.6828 801.862 13.6828C802.355 13.6828 802.832 13.7642 803.294 13.9271C803.756 14.09 804.171 14.3457 804.538 14.6941C804.906 15.0426 805.196 15.4953 805.408 16.0521C805.62 16.6051 805.726 17.2775 805.726 18.0691V18.6714H798.788V17.3987H804.061C804.061 16.9517 803.97 16.5559 803.788 16.2112C803.607 15.8627 803.351 15.5881 803.021 15.3873C802.696 15.1866 802.313 15.0862 801.874 15.0862C801.396 15.0862 800.98 15.2036 800.624 15.4385C800.271 15.6695 799.999 15.9725 799.805 16.3475C799.616 16.7188 799.521 17.1222 799.521 17.5578V18.5521C799.521 19.1354 799.624 19.6316 799.828 20.0407C800.036 20.4498 800.326 20.7623 800.697 20.9782C801.069 21.1903 801.502 21.2964 801.999 21.2964C802.321 21.2964 802.614 21.251 802.879 21.16C803.144 21.0653 803.374 20.9252 803.567 20.7396C803.76 20.554 803.908 20.3248 804.01 20.0521L805.618 20.3419C805.489 20.8153 805.258 21.2301 804.925 21.5862C804.595 21.9385 804.18 22.2131 803.68 22.41C803.184 22.6032 802.618 22.6998 801.982 22.6998ZM812.964 22.5237H811.101L815.288 10.8873H817.317L821.504 22.5237H819.641L816.351 13.001H816.26L812.964 22.5237ZM813.277 17.9669H819.322V19.4441H813.277V17.9669ZM823.048 22.5237V13.7964H824.679V15.2169H824.787C824.969 14.7358 825.266 14.3608 825.679 14.0919C826.092 13.8191 826.586 13.6828 827.162 13.6828C827.745 13.6828 828.234 13.8191 828.628 14.0919C829.026 14.3646 829.319 14.7396 829.509 15.2169H829.599C829.808 14.751 830.139 14.3797 830.594 14.1032C831.048 13.8229 831.59 13.6828 832.219 13.6828C833.01 13.6828 833.656 13.9309 834.156 14.4271C834.66 14.9233 834.912 15.6714 834.912 16.6714V22.5237H833.213V16.8305C833.213 16.2396 833.052 15.8116 832.73 15.5464C832.408 15.2813 832.024 15.1487 831.577 15.1487C831.024 15.1487 830.594 15.3191 830.287 15.66C829.98 15.9972 829.827 16.4309 829.827 16.9612V22.5237H828.134V16.7225C828.134 16.2491 827.986 15.8684 827.69 15.5805C827.395 15.2926 827.01 15.1487 826.537 15.1487C826.215 15.1487 825.918 15.2339 825.645 15.4044C825.376 15.571 825.158 15.804 824.991 16.1032C824.829 16.4025 824.747 16.7491 824.747 17.143V22.5237H823.048ZM840.865 22.6998C840.047 22.6998 839.333 22.5123 838.723 22.1373C838.113 21.7623 837.64 21.2377 837.303 20.5635C836.965 19.8892 836.797 19.1013 836.797 18.1998C836.797 17.2945 836.965 16.5028 837.303 15.8248C837.64 15.1468 838.113 14.6203 838.723 14.2453C839.333 13.8703 840.047 13.6828 840.865 13.6828C841.683 13.6828 842.397 13.8703 843.007 14.2453C843.617 14.6203 844.09 15.1468 844.428 15.8248C844.765 16.5028 844.933 17.2945 844.933 18.1998C844.933 19.1013 844.765 19.8892 844.428 20.5635C844.09 21.2377 843.617 21.7623 843.007 22.1373C842.397 22.5123 841.683 22.6998 840.865 22.6998ZM840.871 21.2737C841.401 21.2737 841.84 21.1335 842.189 20.8532C842.537 20.5729 842.795 20.1998 842.962 19.7339C843.132 19.268 843.217 18.7547 843.217 18.1941C843.217 17.6373 843.132 17.126 842.962 16.66C842.795 16.1903 842.537 15.8135 842.189 15.5294C841.84 15.2453 841.401 15.1032 840.871 15.1032C840.337 15.1032 839.893 15.2453 839.541 15.5294C839.193 15.8135 838.933 16.1903 838.763 16.66C838.596 17.126 838.513 17.6373 838.513 18.1941C838.513 18.7547 838.596 19.268 838.763 19.7339C838.933 20.1998 839.193 20.5729 839.541 20.8532C839.893 21.1335 840.337 21.2737 840.871 21.2737ZM852.358 18.9044V13.7964H854.062V22.5237H852.392V21.0123H852.301C852.1 21.4782 851.778 21.8665 851.335 22.1771C850.896 22.4839 850.348 22.6373 849.693 22.6373C849.133 22.6373 848.636 22.5142 848.205 22.268C847.777 22.018 847.439 21.6487 847.193 21.16C846.951 20.6714 846.83 20.0672 846.83 19.3475V13.7964H848.528V19.143C848.528 19.7377 848.693 20.2112 849.023 20.5635C849.352 20.9157 849.78 21.0919 850.307 21.0919C850.625 21.0919 850.941 21.0123 851.256 20.8532C851.574 20.6941 851.837 20.4536 852.045 20.1316C852.258 19.8097 852.362 19.4006 852.358 18.9044ZM858.044 17.3419V22.5237H856.345V13.7964H857.976V15.2169H858.084C858.285 14.7547 858.599 14.3835 859.027 14.1032C859.459 13.8229 860.002 13.6828 860.658 13.6828C861.252 13.6828 861.773 13.8078 862.22 14.0578C862.667 14.304 863.014 14.6714 863.26 15.16C863.506 15.6487 863.629 16.2528 863.629 16.9725V22.5237H861.93V17.1771C861.93 16.5445 861.766 16.0502 861.436 15.6941C861.107 15.3343 860.654 15.1544 860.078 15.1544C859.684 15.1544 859.334 15.2396 859.027 15.41C858.724 15.5805 858.483 15.8305 858.305 16.16C858.131 16.4858 858.044 16.8797 858.044 17.3419ZM869.982 13.7964V15.16H865.214V13.7964H869.982ZM866.493 11.7055H868.192V19.9612C868.192 20.2907 868.241 20.5388 868.339 20.7055C868.438 20.8684 868.565 20.9801 868.72 21.0407C868.879 21.0975 869.052 21.126 869.237 21.126C869.374 21.126 869.493 21.1165 869.595 21.0975C869.697 21.0786 869.777 21.0635 869.834 21.0521L870.141 22.4555C870.042 22.4934 869.902 22.5313 869.72 22.5691C869.538 22.6108 869.311 22.6335 869.038 22.6373C868.591 22.6449 868.175 22.5653 867.788 22.3987C867.402 22.232 867.089 21.9744 866.851 21.626C866.612 21.2775 866.493 20.84 866.493 20.3135V11.7055Z" fill="#635EFD"/>
<path d="M675.141 20.251V18.8305L680.169 10.8873H681.288V12.9782H680.578L676.982 18.6714V18.7623H683.874V20.251H675.141ZM680.658 22.5237V19.8191L680.669 19.1714V10.8873H682.334V22.5237H680.658Z" fill="#635EFD"/>
</svg>
