<svg width="868" height="33" viewBox="0 0 868 33" fill="none" xmlns="http://www.w3.org/2000/svg">
<circle cx="16" cy="16.5237" r="16" fill="#F5F6FA"/>
<path d="M45.4091 22.5237V10.8873H49.4773C50.2879 10.8873 50.9564 11.0275 51.483 11.3078C52.0095 11.5843 52.4015 11.9574 52.6591 12.4271C52.9167 12.893 53.0455 13.41 53.0455 13.9782C53.0455 14.4782 52.9564 14.8911 52.7784 15.2169C52.6042 15.5426 52.3731 15.8002 52.0852 15.9896C51.8011 16.179 51.4924 16.3191 51.1591 16.41V16.5237C51.5152 16.5464 51.8731 16.6714 52.233 16.8987C52.5928 17.126 52.8939 17.4517 53.1364 17.876C53.3788 18.3002 53.5 18.8191 53.5 19.4328C53.5 20.0161 53.3674 20.5407 53.1023 21.0066C52.8371 21.4725 52.4186 21.8419 51.8466 22.1146C51.2746 22.3873 50.5303 22.5237 49.6136 22.5237H45.4091ZM46.8182 21.2737H49.6136C50.5341 21.2737 51.1875 21.0957 51.5739 20.7396C51.964 20.3797 52.1591 19.9441 52.1591 19.4328C52.1591 19.0388 52.0587 18.6752 51.858 18.3419C51.6572 18.0047 51.3712 17.7358 51 17.535C50.6288 17.3305 50.1894 17.2282 49.6818 17.2282H46.8182V21.2737ZM46.8182 16.001H49.4318C49.8561 16.001 50.2386 15.9176 50.5795 15.751C50.9242 15.5843 51.197 15.3494 51.3977 15.0464C51.6023 14.7434 51.7045 14.3873 51.7045 13.9782C51.7045 13.4669 51.5265 13.0332 51.1705 12.6771C50.8144 12.3172 50.25 12.1373 49.4773 12.1373H46.8182V16.001ZM58.2017 22.7282C57.6487 22.7282 57.1468 22.6241 56.696 22.4157C56.2453 22.2036 55.8873 21.8987 55.6222 21.501C55.357 21.0994 55.2244 20.6146 55.2244 20.0464C55.2244 19.5464 55.3229 19.1411 55.5199 18.8305C55.7169 18.5161 55.9801 18.2699 56.3097 18.0919C56.6392 17.9138 57.0028 17.7813 57.4006 17.6941C57.8021 17.6032 58.2055 17.5313 58.6108 17.4782C59.1411 17.41 59.571 17.3589 59.9006 17.3248C60.2339 17.2869 60.4763 17.2244 60.6278 17.1373C60.7831 17.0502 60.8608 16.8987 60.8608 16.6828V16.6373C60.8608 16.0767 60.7074 15.6411 60.4006 15.3305C60.0975 15.0199 59.6373 14.8646 59.0199 14.8646C58.3797 14.8646 57.8778 15.0047 57.5142 15.285C57.1506 15.5653 56.8949 15.8646 56.7472 16.1828L55.4744 15.7282C55.7017 15.1979 56.0047 14.785 56.3835 14.4896C56.7661 14.1903 57.1828 13.982 57.6335 13.8646C58.0881 13.7434 58.535 13.6828 58.9744 13.6828C59.2547 13.6828 59.5767 13.7169 59.9403 13.785C60.3078 13.8494 60.6619 13.9839 61.0028 14.1885C61.3475 14.393 61.6335 14.7017 61.8608 15.1146C62.0881 15.5275 62.2017 16.0805 62.2017 16.7737V22.5237H60.8608V21.3419H60.7926C60.7017 21.5313 60.5502 21.7339 60.3381 21.9498C60.1259 22.1657 59.8438 22.3494 59.4915 22.501C59.1392 22.6525 58.7093 22.7282 58.2017 22.7282ZM58.4062 21.5237C58.9366 21.5237 59.3835 21.4195 59.7472 21.2112C60.1146 21.0028 60.3911 20.7339 60.5767 20.4044C60.7661 20.0748 60.8608 19.7282 60.8608 19.3646V18.1373C60.804 18.2055 60.679 18.268 60.4858 18.3248C60.2964 18.3778 60.0767 18.4252 59.8267 18.4669C59.5805 18.5047 59.34 18.5388 59.1051 18.5691C58.8741 18.5957 58.6866 18.6184 58.5426 18.6373C58.1941 18.6828 57.8684 18.7566 57.5653 18.8589C57.2661 18.9574 57.0237 19.107 56.8381 19.3078C56.6563 19.5047 56.5653 19.7737 56.5653 20.1146C56.5653 20.5805 56.7377 20.9328 57.0824 21.1714C57.4309 21.4063 57.8722 21.5237 58.4062 21.5237ZM70.831 15.751L69.6264 16.0919C69.5507 15.8911 69.4389 15.696 69.2912 15.5066C69.1473 15.3135 68.9503 15.1544 68.7003 15.0294C68.4503 14.9044 68.1302 14.8419 67.7401 14.8419C67.206 14.8419 66.7609 14.965 66.4048 15.2112C66.0526 15.4536 65.8764 15.7623 65.8764 16.1373C65.8764 16.4707 65.9976 16.7339 66.2401 16.9271C66.4825 17.1203 66.8613 17.2813 67.3764 17.41L68.6719 17.7282C69.4522 17.9176 70.0336 18.2074 70.4162 18.5975C70.7988 18.9839 70.9901 19.482 70.9901 20.0919C70.9901 20.5919 70.8461 21.0388 70.5582 21.4328C70.2741 21.8267 69.8764 22.1373 69.3651 22.3646C68.8537 22.5919 68.259 22.7055 67.581 22.7055C66.6908 22.7055 65.9541 22.5123 65.3707 22.126C64.7874 21.7396 64.4181 21.1752 64.2628 20.4328L65.5355 20.1146C65.6567 20.5843 65.8859 20.9366 66.223 21.1714C66.5639 21.4063 67.009 21.5237 67.5582 21.5237C68.1832 21.5237 68.6795 21.3911 69.0469 21.126C69.4181 20.857 69.6037 20.535 69.6037 20.16C69.6037 19.857 69.4976 19.6032 69.2855 19.3987C69.0734 19.1903 68.7476 19.035 68.3082 18.9328L66.8537 18.5919C66.0545 18.4025 65.4673 18.1089 65.0923 17.7112C64.7211 17.3097 64.5355 16.8078 64.5355 16.2055C64.5355 15.7131 64.6738 15.2775 64.9503 14.8987C65.2306 14.5199 65.6113 14.2225 66.0923 14.0066C66.5772 13.7907 67.1264 13.6828 67.7401 13.6828C68.6037 13.6828 69.2817 13.8722 69.7741 14.251C70.2704 14.6297 70.6226 15.1297 70.831 15.751ZM73.0085 22.5237V13.7964H74.3494V22.5237H73.0085ZM73.6903 12.3419C73.429 12.3419 73.2036 12.2528 73.0142 12.0748C72.8286 11.8968 72.7358 11.6828 72.7358 11.4328C72.7358 11.1828 72.8286 10.9688 73.0142 10.7907C73.2036 10.6127 73.429 10.5237 73.6903 10.5237C73.9517 10.5237 74.1752 10.6127 74.3608 10.7907C74.5502 10.9688 74.6449 11.1828 74.6449 11.4328C74.6449 11.6828 74.5502 11.8968 74.3608 12.0748C74.1752 12.2528 73.9517 12.3419 73.6903 12.3419ZM80.3509 22.7055C79.5327 22.7055 78.8281 22.5123 78.2372 22.126C77.6463 21.7396 77.1918 21.2074 76.8736 20.5294C76.5554 19.8513 76.3963 19.0767 76.3963 18.2055C76.3963 17.3191 76.5592 16.5369 76.8849 15.8589C77.2145 15.1771 77.6728 14.6449 78.2599 14.2623C78.8509 13.876 79.5402 13.6828 80.3281 13.6828C80.9418 13.6828 81.4948 13.7964 81.9872 14.0237C82.4796 14.251 82.883 14.5691 83.1974 14.9782C83.5118 15.3873 83.7069 15.8646 83.7827 16.41H82.4418C82.3395 16.0123 82.1122 15.66 81.7599 15.3532C81.4115 15.0426 80.9418 14.8873 80.3509 14.8873C79.8281 14.8873 79.3698 15.0237 78.9759 15.2964C78.5857 15.5653 78.2808 15.946 78.0611 16.4385C77.8452 16.9271 77.7372 17.501 77.7372 18.16C77.7372 18.8343 77.8433 19.4214 78.0554 19.9214C78.2713 20.4214 78.5743 20.8097 78.9645 21.0862C79.3584 21.3627 79.8205 21.501 80.3509 21.501C80.6993 21.501 81.0156 21.4403 81.2997 21.3191C81.5838 21.1979 81.8243 21.0237 82.0213 20.7964C82.2183 20.5691 82.3584 20.2964 82.4418 19.9782H83.7827C83.7069 20.4934 83.5194 20.9574 83.2202 21.3703C82.9247 21.7794 82.5327 22.1051 82.044 22.3475C81.5592 22.5862 80.9948 22.7055 80.3509 22.7055ZM91.8338 10.8873V22.5237H90.4247V10.8873H91.8338ZM95.8182 17.2737V22.5237H94.4773V13.7964H95.7727V15.16H95.8864C96.0909 14.7169 96.4015 14.3608 96.8182 14.0919C97.2348 13.8191 97.7727 13.6828 98.4318 13.6828C99.0227 13.6828 99.5398 13.804 99.983 14.0464C100.426 14.285 100.771 14.6487 101.017 15.1373C101.263 15.6222 101.386 16.2358 101.386 16.9782V22.5237H100.045V17.0691C100.045 16.3835 99.8674 15.8494 99.5114 15.4669C99.1553 15.0805 98.6667 14.8873 98.0455 14.8873C97.6174 14.8873 97.2348 14.9801 96.8977 15.1657C96.5644 15.3513 96.3011 15.6222 96.108 15.9782C95.9148 16.3343 95.8182 16.7661 95.8182 17.2737ZM107.723 13.7964V14.9328H103.018V13.7964H107.723ZM104.428 22.5237V12.5919C104.428 12.0919 104.545 11.6752 104.78 11.3419C105.015 11.0085 105.32 10.7585 105.695 10.5919C106.07 10.4252 106.465 10.3419 106.882 10.3419C107.212 10.3419 107.481 10.3684 107.689 10.4214C107.897 10.4744 108.053 10.5237 108.155 10.5691L107.768 11.7282C107.7 11.7055 107.606 11.6771 107.484 11.643C107.367 11.6089 107.212 11.5919 107.018 11.5919C106.575 11.5919 106.255 11.7036 106.058 11.9271C105.865 12.1506 105.768 12.4782 105.768 12.91V22.5237H104.428ZM112.788 22.7055C112 22.7055 111.309 22.518 110.714 22.143C110.124 21.768 109.661 21.2434 109.328 20.5691C108.999 19.8949 108.834 19.107 108.834 18.2055C108.834 17.2964 108.999 16.5028 109.328 15.8248C109.661 15.1468 110.124 14.6203 110.714 14.2453C111.309 13.8703 112 13.6828 112.788 13.6828C113.576 13.6828 114.266 13.8703 114.857 14.2453C115.451 14.6203 115.913 15.1468 116.243 15.8248C116.576 16.5028 116.743 17.2964 116.743 18.2055C116.743 19.107 116.576 19.8949 116.243 20.5691C115.913 21.2434 115.451 21.768 114.857 22.143C114.266 22.518 113.576 22.7055 112.788 22.7055ZM112.788 21.501C113.387 21.501 113.879 21.3475 114.266 21.0407C114.652 20.7339 114.938 20.3305 115.124 19.8305C115.309 19.3305 115.402 18.7888 115.402 18.2055C115.402 17.6222 115.309 17.0786 115.124 16.5748C114.938 16.071 114.652 15.6638 114.266 15.3532C113.879 15.0426 113.387 14.8873 112.788 14.8873C112.19 14.8873 111.697 15.0426 111.311 15.3532C110.925 15.6638 110.639 16.071 110.453 16.5748C110.268 17.0786 110.175 17.6222 110.175 18.2055C110.175 18.7888 110.268 19.3305 110.453 19.8305C110.639 20.3305 110.925 20.7339 111.311 21.0407C111.697 21.3475 112.19 21.501 112.788 21.501ZM118.79 22.5237V13.7964H120.085V15.1146H120.176C120.335 14.6828 120.623 14.3324 121.04 14.0635C121.456 13.7945 121.926 13.66 122.449 13.66C122.547 13.66 122.67 13.6619 122.818 13.6657C122.966 13.6695 123.078 13.6752 123.153 13.6828V15.0464C123.108 15.035 123.004 15.018 122.841 14.9953C122.682 14.9688 122.513 14.9555 122.335 14.9555C121.911 14.9555 121.532 15.0445 121.199 15.2225C120.869 15.3968 120.608 15.6392 120.415 15.9498C120.225 16.2566 120.131 16.607 120.131 17.001V22.5237H118.79ZM124.743 22.5237V13.7964H126.038V15.16H126.152C126.334 14.6941 126.627 14.3324 127.033 14.0748C127.438 13.8135 127.925 13.6828 128.493 13.6828C129.069 13.6828 129.548 13.8135 129.93 14.0748C130.317 14.3324 130.618 14.6941 130.834 15.16H130.925C131.148 14.7093 131.483 14.3513 131.93 14.0862C132.377 13.8172 132.913 13.6828 133.538 13.6828C134.319 13.6828 134.957 13.9271 135.453 14.4157C135.949 14.9006 136.197 15.6563 136.197 16.6828V22.5237H134.857V16.6828C134.857 16.0388 134.68 15.5786 134.328 15.3021C133.976 15.0256 133.561 14.8873 133.084 14.8873C132.47 14.8873 131.995 15.0729 131.658 15.4441C131.321 15.8116 131.152 16.2775 131.152 16.8419V22.5237H129.788V16.5464C129.788 16.0502 129.627 15.6506 129.305 15.3475C128.983 15.0407 128.569 14.8873 128.061 14.8873C127.713 14.8873 127.387 14.9801 127.084 15.1657C126.785 15.3513 126.542 15.6089 126.357 15.9385C126.175 16.2642 126.084 16.6411 126.084 17.0691V22.5237H124.743ZM141.217 22.7282C140.664 22.7282 140.162 22.6241 139.712 22.4157C139.261 22.2036 138.903 21.8987 138.638 21.501C138.373 21.0994 138.24 20.6146 138.24 20.0464C138.24 19.5464 138.339 19.1411 138.536 18.8305C138.732 18.5161 138.996 18.2699 139.325 18.0919C139.655 17.9138 140.018 17.7813 140.416 17.6941C140.818 17.6032 141.221 17.5313 141.626 17.4782C142.157 17.41 142.587 17.3589 142.916 17.3248C143.25 17.2869 143.492 17.2244 143.643 17.1373C143.799 17.0502 143.876 16.8987 143.876 16.6828V16.6373C143.876 16.0767 143.723 15.6411 143.416 15.3305C143.113 15.0199 142.653 14.8646 142.036 14.8646C141.395 14.8646 140.893 15.0047 140.53 15.285C140.166 15.5653 139.911 15.8646 139.763 16.1828L138.49 15.7282C138.717 15.1979 139.02 14.785 139.399 14.4896C139.782 14.1903 140.198 13.982 140.649 13.8646C141.104 13.7434 141.551 13.6828 141.99 13.6828C142.27 13.6828 142.592 13.7169 142.956 13.785C143.323 13.8494 143.678 13.9839 144.018 14.1885C144.363 14.393 144.649 14.7017 144.876 15.1146C145.104 15.5275 145.217 16.0805 145.217 16.7737V22.5237H143.876V21.3419H143.808C143.717 21.5313 143.566 21.7339 143.354 21.9498C143.142 22.1657 142.859 22.3494 142.507 22.501C142.155 22.6525 141.725 22.7282 141.217 22.7282ZM141.422 21.5237C141.952 21.5237 142.399 21.4195 142.763 21.2112C143.13 21.0028 143.407 20.7339 143.592 20.4044C143.782 20.0748 143.876 19.7282 143.876 19.3646V18.1373C143.82 18.2055 143.695 18.268 143.501 18.3248C143.312 18.3778 143.092 18.4252 142.842 18.4669C142.596 18.5047 142.356 18.5388 142.121 18.5691C141.89 18.5957 141.702 18.6184 141.558 18.6373C141.21 18.6828 140.884 18.7566 140.581 18.8589C140.282 18.9574 140.039 19.107 139.854 19.3078C139.672 19.5047 139.581 19.7737 139.581 20.1146C139.581 20.5805 139.753 20.9328 140.098 21.1714C140.446 21.4063 140.888 21.5237 141.422 21.5237ZM151.46 13.7964V14.9328H146.938V13.7964H151.46ZM148.256 11.7055H149.597V20.0237C149.597 20.4025 149.652 20.6866 149.761 20.876C149.875 21.0616 150.019 21.1866 150.193 21.251C150.371 21.3116 150.559 21.3419 150.756 21.3419C150.903 21.3419 151.025 21.3343 151.119 21.3191C151.214 21.3002 151.29 21.285 151.347 21.2737L151.619 22.4782C151.528 22.5123 151.402 22.5464 151.239 22.5805C151.076 22.6184 150.869 22.6373 150.619 22.6373C150.241 22.6373 149.869 22.5559 149.506 22.393C149.146 22.2301 148.847 21.982 148.608 21.6487C148.373 21.3153 148.256 20.8949 148.256 20.3873V11.7055ZM153.477 22.5237V13.7964H154.818V22.5237H153.477ZM154.159 12.3419C153.898 12.3419 153.672 12.2528 153.483 12.0748C153.297 11.8968 153.205 11.6828 153.205 11.4328C153.205 11.1828 153.297 10.9688 153.483 10.7907C153.672 10.6127 153.898 10.5237 154.159 10.5237C154.42 10.5237 154.644 10.6127 154.83 10.7907C155.019 10.9688 155.114 11.1828 155.114 11.4328C155.114 11.6828 155.019 11.8968 154.83 12.0748C154.644 12.2528 154.42 12.3419 154.159 12.3419ZM160.82 22.7055C160.032 22.7055 159.34 22.518 158.746 22.143C158.155 21.768 157.693 21.2434 157.359 20.5691C157.03 19.8949 156.865 19.107 156.865 18.2055C156.865 17.2964 157.03 16.5028 157.359 15.8248C157.693 15.1468 158.155 14.6203 158.746 14.2453C159.34 13.8703 160.032 13.6828 160.82 13.6828C161.607 13.6828 162.297 13.8703 162.888 14.2453C163.482 14.6203 163.945 15.1468 164.274 15.8248C164.607 16.5028 164.774 17.2964 164.774 18.2055C164.774 19.107 164.607 19.8949 164.274 20.5691C163.945 21.2434 163.482 21.768 162.888 22.143C162.297 22.518 161.607 22.7055 160.82 22.7055ZM160.82 21.501C161.418 21.501 161.911 21.3475 162.297 21.0407C162.683 20.7339 162.969 20.3305 163.155 19.8305C163.34 19.3305 163.433 18.7888 163.433 18.2055C163.433 17.6222 163.34 17.0786 163.155 16.5748C162.969 16.071 162.683 15.6638 162.297 15.3532C161.911 15.0426 161.418 14.8873 160.82 14.8873C160.221 14.8873 159.729 15.0426 159.342 15.3532C158.956 15.6638 158.67 16.071 158.484 16.5748C158.299 17.0786 158.206 17.6222 158.206 18.2055C158.206 18.7888 158.299 19.3305 158.484 19.8305C158.67 20.3305 158.956 20.7339 159.342 21.0407C159.729 21.3475 160.221 21.501 160.82 21.501ZM168.162 17.2737V22.5237H166.821V13.7964H168.116V15.16H168.23C168.435 14.7169 168.745 14.3608 169.162 14.0919C169.579 13.8191 170.116 13.6828 170.776 13.6828C171.366 13.6828 171.884 13.804 172.327 14.0464C172.77 14.285 173.115 14.6487 173.361 15.1373C173.607 15.6222 173.73 16.2358 173.73 16.9782V22.5237H172.389V17.0691C172.389 16.3835 172.211 15.8494 171.855 15.4669C171.499 15.0805 171.01 14.8873 170.389 14.8873C169.961 14.8873 169.579 14.9801 169.241 15.1657C168.908 15.3513 168.645 15.6222 168.452 15.9782C168.259 16.3343 168.162 16.7661 168.162 17.2737Z" fill="#5A607F"/>
<path fill-rule="evenodd" clip-rule="evenodd" d="M21.9526 11.2278C22.3344 10.8413 22.9592 10.8436 23.338 11.2331C23.7059 11.6114 23.7039 12.2143 23.3335 12.5901L13.544 22.5237L8.6645 17.5562C8.29508 17.1801 8.29358 16.5779 8.66113 16.1999C9.0403 15.8101 9.66581 15.808 10.0476 16.1953L13.544 19.7427L21.9526 11.2278Z" fill="#7E84A3"/>
<circle cx="231" cy="16.5237" r="16" fill="#F5F6FA"/>
<path d="M262.523 22.5237L259.341 10.8873H260.773L263.205 20.3646H263.318L265.795 10.8873H267.386L269.864 20.3646H269.977L272.409 10.8873H273.841L270.659 22.5237H269.205L266.636 13.251H266.545L263.977 22.5237H262.523ZM275.415 22.5237V13.7964H276.756V22.5237H275.415ZM276.097 12.3419C275.835 12.3419 275.61 12.2528 275.42 12.0748C275.235 11.8968 275.142 11.6828 275.142 11.4328C275.142 11.1828 275.235 10.9688 275.42 10.7907C275.61 10.6127 275.835 10.5237 276.097 10.5237C276.358 10.5237 276.581 10.6127 276.767 10.7907C276.956 10.9688 277.051 11.1828 277.051 11.4328C277.051 11.6828 276.956 11.8968 276.767 12.0748C276.581 12.2528 276.358 12.3419 276.097 12.3419ZM280.553 17.2737V22.5237H279.212V13.7964H280.507V15.16H280.621C280.825 14.7169 281.136 14.3608 281.553 14.0919C281.969 13.8191 282.507 13.6828 283.166 13.6828C283.757 13.6828 284.274 13.804 284.717 14.0464C285.161 14.285 285.505 14.6487 285.751 15.1373C285.998 15.6222 286.121 16.2358 286.121 16.9782V22.5237H284.78V17.0691C284.78 16.3835 284.602 15.8494 284.246 15.4669C283.89 15.0805 283.401 14.8873 282.78 14.8873C282.352 14.8873 281.969 14.9801 281.632 15.1657C281.299 15.3513 281.036 15.6222 280.842 15.9782C280.649 16.3343 280.553 16.7661 280.553 17.2737ZM292.094 25.9782C291.446 25.9782 290.889 25.8949 290.423 25.7282C289.957 25.5653 289.569 25.3494 289.259 25.0805C288.952 24.8153 288.707 24.5313 288.526 24.2282L289.594 23.4782C289.715 23.6373 289.868 23.8191 290.054 24.0237C290.24 24.232 290.493 24.4119 290.815 24.5635C291.141 24.7188 291.567 24.7964 292.094 24.7964C292.798 24.7964 293.38 24.626 293.838 24.285C294.296 23.9441 294.526 23.41 294.526 22.6828V20.91H294.412C294.313 21.0691 294.173 21.2661 293.991 21.501C293.813 21.732 293.556 21.9385 293.219 22.1203C292.885 22.2983 292.435 22.3873 291.866 22.3873C291.162 22.3873 290.529 22.2207 289.969 21.8873C289.412 21.554 288.971 21.0691 288.645 20.4328C288.323 19.7964 288.162 19.0237 288.162 18.1146C288.162 17.2207 288.319 16.4422 288.634 15.7794C288.948 15.1127 289.385 14.5975 289.946 14.2339C290.507 13.8665 291.154 13.6828 291.889 13.6828C292.457 13.6828 292.908 13.7775 293.241 13.9669C293.579 14.1525 293.836 14.3646 294.014 14.6032C294.196 14.8381 294.336 15.0313 294.435 15.1828H294.571V13.7964H295.866V22.7737C295.866 23.5237 295.696 24.1335 295.355 24.6032C295.018 25.0767 294.563 25.4233 293.991 25.643C293.423 25.8665 292.791 25.9782 292.094 25.9782ZM292.048 21.1828C292.586 21.1828 293.041 21.0597 293.412 20.8135C293.783 20.5672 294.065 20.2131 294.259 19.751C294.452 19.2888 294.548 18.7358 294.548 18.0919C294.548 17.4631 294.454 16.9082 294.264 16.4271C294.075 15.946 293.795 15.5691 293.423 15.2964C293.052 15.0237 292.594 14.8873 292.048 14.8873C291.48 14.8873 291.007 15.0313 290.628 15.3191C290.253 15.607 289.971 15.9934 289.781 16.4782C289.596 16.9631 289.503 17.501 289.503 18.0919C289.503 18.6979 289.598 19.2339 289.787 19.6998C289.98 20.1619 290.264 20.5256 290.639 20.7907C291.018 21.0521 291.488 21.1828 292.048 21.1828ZM304.412 10.8873V22.5237H303.003V10.8873H304.412ZM308.396 17.2737V22.5237H307.055V13.7964H308.351V15.16H308.464C308.669 14.7169 308.98 14.3608 309.396 14.0919C309.813 13.8191 310.351 13.6828 311.01 13.6828C311.601 13.6828 312.118 13.804 312.561 14.0464C313.004 14.285 313.349 14.6487 313.595 15.1373C313.841 15.6222 313.964 16.2358 313.964 16.9782V22.5237H312.624V17.0691C312.624 16.3835 312.446 15.8494 312.089 15.4669C311.733 15.0805 311.245 14.8873 310.624 14.8873C310.196 14.8873 309.813 14.9801 309.476 15.1657C309.143 15.3513 308.879 15.6222 308.686 15.9782C308.493 16.3343 308.396 16.7661 308.396 17.2737ZM320.301 13.7964V14.9328H315.597V13.7964H320.301ZM317.006 22.5237V12.5919C317.006 12.0919 317.123 11.6752 317.358 11.3419C317.593 11.0085 317.898 10.7585 318.273 10.5919C318.648 10.4252 319.044 10.3419 319.46 10.3419C319.79 10.3419 320.059 10.3684 320.267 10.4214C320.475 10.4744 320.631 10.5237 320.733 10.5691L320.347 11.7282C320.278 11.7055 320.184 11.6771 320.062 11.643C319.945 11.6089 319.79 11.5919 319.597 11.5919C319.153 11.5919 318.833 11.7036 318.636 11.9271C318.443 12.1506 318.347 12.4782 318.347 12.91V22.5237H317.006ZM325.366 22.7055C324.579 22.7055 323.887 22.518 323.293 22.143C322.702 21.768 322.24 21.2434 321.906 20.5691C321.577 19.8949 321.412 19.107 321.412 18.2055C321.412 17.2964 321.577 16.5028 321.906 15.8248C322.24 15.1468 322.702 14.6203 323.293 14.2453C323.887 13.8703 324.579 13.6828 325.366 13.6828C326.154 13.6828 326.844 13.8703 327.435 14.2453C328.029 14.6203 328.491 15.1468 328.821 15.8248C329.154 16.5028 329.321 17.2964 329.321 18.2055C329.321 19.107 329.154 19.8949 328.821 20.5691C328.491 21.2434 328.029 21.768 327.435 22.143C326.844 22.518 326.154 22.7055 325.366 22.7055ZM325.366 21.501C325.965 21.501 326.457 21.3475 326.844 21.0407C327.23 20.7339 327.516 20.3305 327.702 19.8305C327.887 19.3305 327.98 18.7888 327.98 18.2055C327.98 17.6222 327.887 17.0786 327.702 16.5748C327.516 16.071 327.23 15.6638 326.844 15.3532C326.457 15.0426 325.965 14.8873 325.366 14.8873C324.768 14.8873 324.276 15.0426 323.889 15.3532C323.503 15.6638 323.217 16.071 323.031 16.5748C322.846 17.0786 322.753 17.6222 322.753 18.2055C322.753 18.7888 322.846 19.3305 323.031 19.8305C323.217 20.3305 323.503 20.7339 323.889 21.0407C324.276 21.3475 324.768 21.501 325.366 21.501ZM331.368 22.5237V13.7964H332.663V15.1146H332.754C332.913 14.6828 333.201 14.3324 333.618 14.0635C334.035 13.7945 334.504 13.66 335.027 13.66C335.125 13.66 335.249 13.6619 335.396 13.6657C335.544 13.6695 335.656 13.6752 335.732 13.6828V15.0464C335.686 15.035 335.582 15.018 335.419 14.9953C335.26 14.9688 335.091 14.9555 334.913 14.9555C334.489 14.9555 334.11 15.0445 333.777 15.2225C333.447 15.3968 333.186 15.6392 332.993 15.9498C332.804 16.2566 332.709 16.607 332.709 17.001V22.5237H331.368ZM337.321 22.5237V13.7964H338.616V15.16H338.73C338.912 14.6941 339.205 14.3324 339.611 14.0748C340.016 13.8135 340.503 13.6828 341.071 13.6828C341.647 13.6828 342.126 13.8135 342.509 14.0748C342.895 14.3324 343.196 14.6941 343.412 15.16H343.503C343.726 14.7093 344.062 14.3513 344.509 14.0862C344.955 13.8172 345.491 13.6828 346.116 13.6828C346.897 13.6828 347.535 13.9271 348.031 14.4157C348.527 14.9006 348.776 15.6563 348.776 16.6828V22.5237H347.435V16.6828C347.435 16.0388 347.259 15.5786 346.906 15.3021C346.554 15.0256 346.139 14.8873 345.662 14.8873C345.048 14.8873 344.573 15.0729 344.236 15.4441C343.899 15.8116 343.73 16.2775 343.73 16.8419V22.5237H342.366V16.5464C342.366 16.0502 342.205 15.6506 341.884 15.3475C341.562 15.0407 341.147 14.8873 340.639 14.8873C340.291 14.8873 339.965 14.9801 339.662 15.1657C339.363 15.3513 339.12 15.6089 338.935 15.9385C338.753 16.2642 338.662 16.6411 338.662 17.0691V22.5237H337.321ZM353.795 22.7282C353.242 22.7282 352.741 22.6241 352.29 22.4157C351.839 22.2036 351.481 21.8987 351.216 21.501C350.951 21.0994 350.818 20.6146 350.818 20.0464C350.818 19.5464 350.917 19.1411 351.114 18.8305C351.311 18.5161 351.574 18.2699 351.903 18.0919C352.233 17.9138 352.597 17.7813 352.994 17.6941C353.396 17.6032 353.799 17.5313 354.205 17.4782C354.735 17.41 355.165 17.3589 355.494 17.3248C355.828 17.2869 356.07 17.2244 356.222 17.1373C356.377 17.0502 356.455 16.8987 356.455 16.6828V16.6373C356.455 16.0767 356.301 15.6411 355.994 15.3305C355.691 15.0199 355.231 14.8646 354.614 14.8646C353.973 14.8646 353.472 15.0047 353.108 15.285C352.744 15.5653 352.489 15.8646 352.341 16.1828L351.068 15.7282C351.295 15.1979 351.598 14.785 351.977 14.4896C352.36 14.1903 352.777 13.982 353.227 13.8646C353.682 13.7434 354.129 13.6828 354.568 13.6828C354.848 13.6828 355.17 13.7169 355.534 13.785C355.902 13.8494 356.256 13.9839 356.597 14.1885C356.941 14.393 357.227 14.7017 357.455 15.1146C357.682 15.5275 357.795 16.0805 357.795 16.7737V22.5237H356.455V21.3419H356.386C356.295 21.5313 356.144 21.7339 355.932 21.9498C355.72 22.1657 355.438 22.3494 355.085 22.501C354.733 22.6525 354.303 22.7282 353.795 22.7282ZM354 21.5237C354.53 21.5237 354.977 21.4195 355.341 21.2112C355.708 21.0028 355.985 20.7339 356.17 20.4044C356.36 20.0748 356.455 19.7282 356.455 19.3646V18.1373C356.398 18.2055 356.273 18.268 356.08 18.3248C355.89 18.3778 355.67 18.4252 355.42 18.4669C355.174 18.5047 354.934 18.5388 354.699 18.5691C354.468 18.5957 354.28 18.6184 354.136 18.6373C353.788 18.6828 353.462 18.7566 353.159 18.8589C352.86 18.9574 352.617 19.107 352.432 19.3078C352.25 19.5047 352.159 19.7737 352.159 20.1146C352.159 20.5805 352.331 20.9328 352.676 21.1714C353.025 21.4063 353.466 21.5237 354 21.5237ZM364.038 13.7964V14.9328H359.516V13.7964H364.038ZM360.834 11.7055H362.175V20.0237C362.175 20.4025 362.23 20.6866 362.339 20.876C362.453 21.0616 362.597 21.1866 362.771 21.251C362.949 21.3116 363.137 21.3419 363.334 21.3419C363.482 21.3419 363.603 21.3343 363.697 21.3191C363.792 21.3002 363.868 21.285 363.925 21.2737L364.197 22.4782C364.107 22.5123 363.98 22.5464 363.817 22.5805C363.654 22.6184 363.447 22.6373 363.197 22.6373C362.819 22.6373 362.447 22.5559 362.084 22.393C361.724 22.2301 361.425 21.982 361.186 21.6487C360.951 21.3153 360.834 20.8949 360.834 20.3873V11.7055ZM366.055 22.5237V13.7964H367.396V22.5237H366.055ZM366.737 12.3419C366.476 12.3419 366.25 12.2528 366.061 12.0748C365.875 11.8968 365.783 11.6828 365.783 11.4328C365.783 11.1828 365.875 10.9688 366.061 10.7907C366.25 10.6127 366.476 10.5237 366.737 10.5237C366.999 10.5237 367.222 10.6127 367.408 10.7907C367.597 10.9688 367.692 11.1828 367.692 11.4328C367.692 11.6828 367.597 11.8968 367.408 12.0748C367.222 12.2528 366.999 12.3419 366.737 12.3419ZM373.398 22.7055C372.61 22.7055 371.919 22.518 371.324 22.143C370.733 21.768 370.271 21.2434 369.938 20.5691C369.608 19.8949 369.443 19.107 369.443 18.2055C369.443 17.2964 369.608 16.5028 369.938 15.8248C370.271 15.1468 370.733 14.6203 371.324 14.2453C371.919 13.8703 372.61 13.6828 373.398 13.6828C374.186 13.6828 374.875 13.8703 375.466 14.2453C376.061 14.6203 376.523 15.1468 376.852 15.8248C377.186 16.5028 377.352 17.2964 377.352 18.2055C377.352 19.107 377.186 19.8949 376.852 20.5691C376.523 21.2434 376.061 21.768 375.466 22.143C374.875 22.518 374.186 22.7055 373.398 22.7055ZM373.398 21.501C373.996 21.501 374.489 21.3475 374.875 21.0407C375.261 20.7339 375.547 20.3305 375.733 19.8305C375.919 19.3305 376.011 18.7888 376.011 18.2055C376.011 17.6222 375.919 17.0786 375.733 16.5748C375.547 16.071 375.261 15.6638 374.875 15.3532C374.489 15.0426 373.996 14.8873 373.398 14.8873C372.799 14.8873 372.307 15.0426 371.92 15.3532C371.534 15.6638 371.248 16.071 371.062 16.5748C370.877 17.0786 370.784 17.6222 370.784 18.2055C370.784 18.7888 370.877 19.3305 371.062 19.8305C371.248 20.3305 371.534 20.7339 371.92 21.0407C372.307 21.3475 372.799 21.501 373.398 21.501ZM380.74 17.2737V22.5237H379.399V13.7964H380.695V15.16H380.808C381.013 14.7169 381.323 14.3608 381.74 14.0919C382.157 13.8191 382.695 13.6828 383.354 13.6828C383.945 13.6828 384.462 13.804 384.905 14.0464C385.348 14.285 385.693 14.6487 385.939 15.1373C386.185 15.6222 386.308 16.2358 386.308 16.9782V22.5237H384.967V17.0691C384.967 16.3835 384.789 15.8494 384.433 15.4669C384.077 15.0805 383.589 14.8873 382.967 14.8873C382.539 14.8873 382.157 14.9801 381.82 15.1657C381.486 15.3513 381.223 15.6222 381.03 15.9782C380.837 16.3343 380.74 16.7661 380.74 17.2737Z" fill="#5A607F"/>
<path fill-rule="evenodd" clip-rule="evenodd" d="M236.953 11.2278C237.334 10.8413 237.959 10.8436 238.338 11.2331C238.706 11.6114 238.704 12.2143 238.334 12.5901L228.544 22.5237L223.665 17.5562C223.295 17.1801 223.294 16.5779 223.661 16.1999C224.04 15.8101 224.666 15.808 225.048 16.1953L228.544 19.7427L236.953 11.2278Z" fill="#7E84A3"/>
<circle cx="444" cy="16.5237" r="15" fill="white" stroke="#635EFD" stroke-width="2"/>
<path d="M473.278 10.8873H475.409L479.114 19.9328H479.25L482.955 10.8873H485.085V22.5237H483.415V14.1032H483.307L479.875 22.5066H478.489L475.057 14.0975H474.949V22.5237H473.278V10.8873ZM490.041 22.7169C489.488 22.7169 488.988 22.6146 488.541 22.41C488.094 22.2017 487.74 21.9006 487.479 21.5066C487.221 21.1127 487.092 20.6297 487.092 20.0578C487.092 19.5653 487.187 19.16 487.376 18.8419C487.566 18.5237 487.821 18.2718 488.143 18.0862C488.465 17.9006 488.825 17.7604 489.223 17.6657C489.621 17.571 490.026 17.4991 490.439 17.4498C490.962 17.3892 491.386 17.34 491.712 17.3021C492.037 17.2604 492.274 17.1941 492.422 17.1032C492.57 17.0123 492.643 16.8646 492.643 16.66V16.6203C492.643 16.1241 492.503 15.7396 492.223 15.4669C491.946 15.1941 491.534 15.0578 490.984 15.0578C490.412 15.0578 489.962 15.1847 489.632 15.4385C489.306 15.6885 489.081 15.9669 488.956 16.2737L487.359 15.91C487.549 15.3797 487.825 14.9517 488.189 14.626C488.556 14.2964 488.979 14.0578 489.456 13.91C489.933 13.7585 490.435 13.6828 490.962 13.6828C491.31 13.6828 491.679 13.7244 492.07 13.8078C492.464 13.8873 492.831 14.035 493.172 14.251C493.517 14.4669 493.799 14.7756 494.018 15.1771C494.238 15.5748 494.348 16.0919 494.348 16.7282V22.5237H492.689V21.3305H492.621C492.511 21.5502 492.346 21.7661 492.126 21.9782C491.907 22.1903 491.625 22.3665 491.28 22.5066C490.935 22.6468 490.522 22.7169 490.041 22.7169ZM490.411 21.3532C490.88 21.3532 491.282 21.2604 491.615 21.0748C491.952 20.8892 492.208 20.6468 492.382 20.3475C492.56 20.0445 492.649 19.7207 492.649 19.376V18.251C492.589 18.3116 492.471 18.3684 492.297 18.4214C492.126 18.4707 491.931 18.5142 491.712 18.5521C491.492 18.5862 491.278 18.6184 491.07 18.6487C490.861 18.6752 490.687 18.6979 490.547 18.7169C490.217 18.7585 489.916 18.8286 489.643 18.9271C489.375 19.0256 489.159 19.1676 488.996 19.3532C488.837 19.535 488.757 19.7775 488.757 20.0805C488.757 20.501 488.912 20.8191 489.223 21.035C489.534 21.2472 489.929 21.3532 490.411 21.3532ZM496.611 22.5237V13.7964H498.31V22.5237H496.611ZM497.469 12.4498C497.173 12.4498 496.92 12.3513 496.707 12.1544C496.499 11.9536 496.395 11.715 496.395 11.4385C496.395 11.1582 496.499 10.9195 496.707 10.7225C496.92 10.5218 497.173 10.4214 497.469 10.4214C497.764 10.4214 498.016 10.5218 498.224 10.7225C498.437 10.9195 498.543 11.1582 498.543 11.4385C498.543 11.715 498.437 11.9536 498.224 12.1544C498.016 12.3513 497.764 12.4498 497.469 12.4498ZM502.294 17.3419V22.5237H500.595V13.7964H502.226V15.2169H502.334C502.535 14.7547 502.849 14.3835 503.277 14.1032C503.709 13.8229 504.252 13.6828 504.908 13.6828C505.502 13.6828 506.023 13.8078 506.47 14.0578C506.917 14.304 507.264 14.6714 507.51 15.16C507.756 15.6487 507.879 16.2528 507.879 16.9725V22.5237H506.18V17.1771C506.18 16.5445 506.016 16.0502 505.686 15.6941C505.357 15.3343 504.904 15.1544 504.328 15.1544C503.934 15.1544 503.584 15.2396 503.277 15.41C502.974 15.5805 502.733 15.8305 502.555 16.16C502.381 16.4858 502.294 16.8797 502.294 17.3419ZM514.232 13.7964V15.16H509.464V13.7964H514.232ZM510.743 11.7055H512.442V19.9612C512.442 20.2907 512.491 20.5388 512.589 20.7055C512.688 20.8684 512.815 20.9801 512.97 21.0407C513.129 21.0975 513.302 21.126 513.487 21.126C513.624 21.126 513.743 21.1165 513.845 21.0975C513.947 21.0786 514.027 21.0635 514.084 21.0521L514.391 22.4555C514.292 22.4934 514.152 22.5313 513.97 22.5691C513.788 22.6108 513.561 22.6335 513.288 22.6373C512.841 22.6449 512.425 22.5653 512.038 22.3987C511.652 22.232 511.339 21.9744 511.101 21.626C510.862 21.2775 510.743 20.84 510.743 20.3135V11.7055ZM519.778 22.6998C518.919 22.6998 518.178 22.5161 517.557 22.1487C516.939 21.7775 516.462 21.2566 516.125 20.5862C515.792 19.9119 515.625 19.1222 515.625 18.2169C515.625 17.3229 515.792 16.535 516.125 15.8532C516.462 15.1714 516.932 14.6392 517.534 14.2566C518.14 13.8741 518.848 13.6828 519.659 13.6828C520.152 13.6828 520.629 13.7642 521.091 13.9271C521.553 14.09 521.968 14.3457 522.335 14.6941C522.703 15.0426 522.992 15.4953 523.205 16.0521C523.417 16.6051 523.523 17.2775 523.523 18.0691V18.6714H516.585V17.3987H521.858C521.858 16.9517 521.767 16.5559 521.585 16.2112C521.403 15.8627 521.148 15.5881 520.818 15.3873C520.492 15.1866 520.11 15.0862 519.67 15.0862C519.193 15.0862 518.777 15.2036 518.42 15.4385C518.068 15.6695 517.795 15.9725 517.602 16.3475C517.413 16.7188 517.318 17.1222 517.318 17.5578V18.5521C517.318 19.1354 517.42 19.6316 517.625 20.0407C517.833 20.4498 518.123 20.7623 518.494 20.9782C518.866 21.1903 519.299 21.2964 519.795 21.2964C520.117 21.2964 520.411 21.251 520.676 21.16C520.941 21.0653 521.17 20.9252 521.364 20.7396C521.557 20.554 521.705 20.3248 521.807 20.0521L523.415 20.3419C523.286 20.8153 523.055 21.2301 522.722 21.5862C522.392 21.9385 521.977 22.2131 521.477 22.41C520.981 22.6032 520.415 22.6998 519.778 22.6998ZM527.107 17.3419V22.5237H525.408V13.7964H527.038V15.2169H527.146C527.347 14.7547 527.661 14.3835 528.089 14.1032C528.521 13.8229 529.065 13.6828 529.72 13.6828C530.315 13.6828 530.836 13.8078 531.283 14.0578C531.73 14.304 532.076 14.6714 532.322 15.16C532.569 15.6487 532.692 16.2528 532.692 16.9725V22.5237H530.993V17.1771C530.993 16.5445 530.828 16.0502 530.499 15.6941C530.169 15.3343 529.716 15.1544 529.141 15.1544C528.747 15.1544 528.396 15.2396 528.089 15.41C527.786 15.5805 527.546 15.8305 527.368 16.16C527.194 16.4858 527.107 16.8797 527.107 17.3419ZM537.51 22.7169C536.957 22.7169 536.457 22.6146 536.01 22.41C535.563 22.2017 535.209 21.9006 534.947 21.5066C534.69 21.1127 534.561 20.6297 534.561 20.0578C534.561 19.5653 534.656 19.16 534.845 18.8419C535.035 18.5237 535.29 18.2718 535.612 18.0862C535.934 17.9006 536.294 17.7604 536.692 17.6657C537.089 17.571 537.495 17.4991 537.908 17.4498C538.43 17.3892 538.855 17.34 539.18 17.3021C539.506 17.2604 539.743 17.1941 539.891 17.1032C540.038 17.0123 540.112 16.8646 540.112 16.66V16.6203C540.112 16.1241 539.972 15.7396 539.692 15.4669C539.415 15.1941 539.002 15.0578 538.453 15.0578C537.881 15.0578 537.43 15.1847 537.101 15.4385C536.775 15.6885 536.55 15.9669 536.425 16.2737L534.828 15.91C535.018 15.3797 535.294 14.9517 535.658 14.626C536.025 14.2964 536.447 14.0578 536.925 13.91C537.402 13.7585 537.904 13.6828 538.43 13.6828C538.779 13.6828 539.148 13.7244 539.538 13.8078C539.932 13.8873 540.3 14.035 540.641 14.251C540.985 14.4669 541.268 14.7756 541.487 15.1771C541.707 15.5748 541.817 16.0919 541.817 16.7282V22.5237H540.158V21.3305H540.089C539.98 21.5502 539.815 21.7661 539.595 21.9782C539.375 22.1903 539.093 22.3665 538.749 22.5066C538.404 22.6468 537.991 22.7169 537.51 22.7169ZM537.879 21.3532C538.349 21.3532 538.75 21.2604 539.084 21.0748C539.421 20.8892 539.677 20.6468 539.851 20.3475C540.029 20.0445 540.118 19.7207 540.118 19.376V18.251C540.057 18.3116 539.94 18.3684 539.766 18.4214C539.595 18.4707 539.4 18.5142 539.18 18.5521C538.961 18.5862 538.747 18.6184 538.538 18.6487C538.33 18.6752 538.156 18.6979 538.016 18.7169C537.686 18.7585 537.385 18.8286 537.112 18.9271C536.843 19.0256 536.627 19.1676 536.464 19.3532C536.305 19.535 536.226 19.7775 536.226 20.0805C536.226 20.501 536.381 20.8191 536.692 21.035C537.002 21.2472 537.398 21.3532 537.879 21.3532ZM545.778 17.3419V22.5237H544.08V13.7964H545.71V15.2169H545.818C546.019 14.7547 546.333 14.3835 546.761 14.1032C547.193 13.8229 547.737 13.6828 548.392 13.6828C548.987 13.6828 549.508 13.8078 549.955 14.0578C550.402 14.304 550.748 14.6714 550.994 15.16C551.241 15.6487 551.364 16.2528 551.364 16.9725V22.5237H549.665V17.1771C549.665 16.5445 549.5 16.0502 549.17 15.6941C548.841 15.3343 548.388 15.1544 547.812 15.1544C547.419 15.1544 547.068 15.2396 546.761 15.41C546.458 15.5805 546.218 15.8305 546.04 16.16C545.866 16.4858 545.778 16.8797 545.778 17.3419ZM557.318 22.6998C556.473 22.6998 555.746 22.5085 555.136 22.126C554.53 21.7396 554.064 21.2074 553.739 20.5294C553.413 19.8513 553.25 19.0748 553.25 18.1998C553.25 17.3135 553.417 16.5313 553.75 15.8532C554.083 15.1714 554.553 14.6392 555.159 14.2566C555.765 13.8741 556.479 13.6828 557.301 13.6828C557.964 13.6828 558.555 13.8059 559.074 14.0521C559.593 14.2945 560.011 14.6354 560.33 15.0748C560.652 15.5142 560.843 16.0275 560.903 16.6146H559.25C559.159 16.2055 558.951 15.8532 558.625 15.5578C558.303 15.2623 557.871 15.1146 557.33 15.1146C556.856 15.1146 556.441 15.2396 556.085 15.4896C555.733 15.7358 555.458 16.0881 555.261 16.5464C555.064 17.001 554.966 17.5388 554.966 18.16C554.966 18.7964 555.063 19.3457 555.256 19.8078C555.449 20.2699 555.722 20.6278 556.074 20.8816C556.43 21.1354 556.848 21.2623 557.33 21.2623C557.652 21.2623 557.943 21.2036 558.205 21.0862C558.47 20.965 558.691 20.7926 558.869 20.5691C559.051 20.3457 559.178 20.0767 559.25 19.7623H560.903C560.843 20.3267 560.659 20.8305 560.352 21.2737C560.045 21.7169 559.634 22.0653 559.119 22.3191C558.608 22.5729 558.008 22.6998 557.318 22.6998ZM566.482 22.6998C565.622 22.6998 564.881 22.5161 564.26 22.1487C563.643 21.7775 563.165 21.2566 562.828 20.5862C562.495 19.9119 562.328 19.1222 562.328 18.2169C562.328 17.3229 562.495 16.535 562.828 15.8532C563.165 15.1714 563.635 14.6392 564.237 14.2566C564.843 13.8741 565.552 13.6828 566.362 13.6828C566.855 13.6828 567.332 13.7642 567.794 13.9271C568.256 14.09 568.671 14.3457 569.038 14.6941C569.406 15.0426 569.696 15.4953 569.908 16.0521C570.12 16.6051 570.226 17.2775 570.226 18.0691V18.6714H563.288V17.3987H568.561C568.561 16.9517 568.47 16.5559 568.288 16.2112C568.107 15.8627 567.851 15.5881 567.521 15.3873C567.196 15.1866 566.813 15.0862 566.374 15.0862C565.896 15.0862 565.48 15.2036 565.124 15.4385C564.771 15.6695 564.499 15.9725 564.305 16.3475C564.116 16.7188 564.021 17.1222 564.021 17.5578V18.5521C564.021 19.1354 564.124 19.6316 564.328 20.0407C564.536 20.4498 564.826 20.7623 565.197 20.9782C565.569 21.1903 566.002 21.2964 566.499 21.2964C566.821 21.2964 567.114 21.251 567.379 21.16C567.644 21.0653 567.874 20.9252 568.067 20.7396C568.26 20.554 568.408 20.3248 568.51 20.0521L570.118 20.3419C569.989 20.8153 569.758 21.2301 569.425 21.5862C569.095 21.9385 568.68 22.2131 568.18 22.41C567.684 22.6032 567.118 22.6998 566.482 22.6998ZM576.482 22.5237V10.8873H578.237V15.9441H584.038V10.8873H585.8V22.5237H584.038V17.4498H578.237V22.5237H576.482ZM591.982 22.6998C591.122 22.6998 590.381 22.5161 589.76 22.1487C589.143 21.7775 588.665 21.2566 588.328 20.5862C587.995 19.9119 587.828 19.1222 587.828 18.2169C587.828 17.3229 587.995 16.535 588.328 15.8532C588.665 15.1714 589.135 14.6392 589.737 14.2566C590.343 13.8741 591.052 13.6828 591.862 13.6828C592.355 13.6828 592.832 13.7642 593.294 13.9271C593.756 14.09 594.171 14.3457 594.538 14.6941C594.906 15.0426 595.196 15.4953 595.408 16.0521C595.62 16.6051 595.726 17.2775 595.726 18.0691V18.6714H588.788V17.3987H594.061C594.061 16.9517 593.97 16.5559 593.788 16.2112C593.607 15.8627 593.351 15.5881 593.021 15.3873C592.696 15.1866 592.313 15.0862 591.874 15.0862C591.396 15.0862 590.98 15.2036 590.624 15.4385C590.271 15.6695 589.999 15.9725 589.805 16.3475C589.616 16.7188 589.521 17.1222 589.521 17.5578V18.5521C589.521 19.1354 589.624 19.6316 589.828 20.0407C590.036 20.4498 590.326 20.7623 590.697 20.9782C591.069 21.1903 591.502 21.2964 591.999 21.2964C592.321 21.2964 592.614 21.251 592.879 21.16C593.144 21.0653 593.374 20.9252 593.567 20.7396C593.76 20.554 593.908 20.3248 594.01 20.0521L595.618 20.3419C595.489 20.8153 595.258 21.2301 594.925 21.5862C594.595 21.9385 594.18 22.2131 593.68 22.41C593.184 22.6032 592.618 22.6998 591.982 22.6998ZM600.151 22.7169C599.598 22.7169 599.098 22.6146 598.651 22.41C598.204 22.2017 597.849 21.9006 597.588 21.5066C597.33 21.1127 597.202 20.6297 597.202 20.0578C597.202 19.5653 597.296 19.16 597.486 18.8419C597.675 18.5237 597.931 18.2718 598.253 18.0862C598.575 17.9006 598.935 17.7604 599.332 17.6657C599.73 17.571 600.135 17.4991 600.548 17.4498C601.071 17.3892 601.495 17.34 601.821 17.3021C602.147 17.2604 602.384 17.1941 602.531 17.1032C602.679 17.0123 602.753 16.8646 602.753 16.66V16.6203C602.753 16.1241 602.613 15.7396 602.332 15.4669C602.056 15.1941 601.643 15.0578 601.094 15.0578C600.522 15.0578 600.071 15.1847 599.741 15.4385C599.416 15.6885 599.19 15.9669 599.065 16.2737L597.469 15.91C597.658 15.3797 597.935 14.9517 598.298 14.626C598.666 14.2964 599.088 14.0578 599.565 13.91C600.043 13.7585 600.545 13.6828 601.071 13.6828C601.42 13.6828 601.789 13.7244 602.179 13.8078C602.573 13.8873 602.94 14.035 603.281 14.251C603.626 14.4669 603.908 14.7756 604.128 15.1771C604.348 15.5748 604.457 16.0919 604.457 16.7282V22.5237H602.798V21.3305H602.73C602.62 21.5502 602.455 21.7661 602.236 21.9782C602.016 22.1903 601.734 22.3665 601.389 22.5066C601.045 22.6468 600.632 22.7169 600.151 22.7169ZM600.52 21.3532C600.99 21.3532 601.391 21.2604 601.724 21.0748C602.062 20.8892 602.317 20.6468 602.491 20.3475C602.67 20.0445 602.759 19.7207 602.759 19.376V18.251C602.698 18.3116 602.58 18.3684 602.406 18.4214C602.236 18.4707 602.041 18.5142 601.821 18.5521C601.601 18.5862 601.387 18.6184 601.179 18.6487C600.971 18.6752 600.796 18.6979 600.656 18.7169C600.327 18.7585 600.026 18.8286 599.753 18.9271C599.484 19.0256 599.268 19.1676 599.105 19.3532C598.946 19.535 598.866 19.7775 598.866 20.0805C598.866 20.501 599.022 20.8191 599.332 21.035C599.643 21.2472 600.039 21.3532 600.52 21.3532ZM609.987 22.6941C609.283 22.6941 608.654 22.5142 608.101 22.1544C607.552 21.7907 607.12 21.2737 606.805 20.6032C606.495 19.929 606.339 19.1203 606.339 18.1771C606.339 17.2339 606.497 16.4271 606.811 15.7566C607.129 15.0862 607.565 14.5729 608.118 14.2169C608.671 13.8608 609.298 13.6828 609.999 13.6828C610.54 13.6828 610.976 13.7737 611.305 13.9555C611.639 14.1335 611.896 14.3419 612.078 14.5805C612.264 14.8191 612.408 15.0294 612.51 15.2112H612.612V10.8873H614.311V22.5237H612.652V21.1657H612.51C612.408 21.3513 612.26 21.5635 612.067 21.8021C611.877 22.0407 611.616 22.2491 611.283 22.4271C610.949 22.6051 610.518 22.6941 609.987 22.6941ZM610.362 21.2453C610.851 21.2453 611.264 21.1165 611.601 20.8589C611.942 20.5975 612.199 20.2358 612.374 19.7737C612.552 19.3116 612.641 18.7737 612.641 18.16C612.641 17.554 612.554 17.0237 612.379 16.5691C612.205 16.1146 611.949 15.7604 611.612 15.5066C611.275 15.2528 610.858 15.126 610.362 15.126C609.851 15.126 609.425 15.2585 609.084 15.5237C608.743 15.7888 608.485 16.1506 608.311 16.6089C608.141 17.0672 608.055 17.5843 608.055 18.16C608.055 18.7434 608.143 19.268 608.317 19.7339C608.491 20.1998 608.749 20.5691 609.089 20.8419C609.434 21.1108 609.858 21.2453 610.362 21.2453ZM623.276 15.9271L621.736 16.1998C621.671 16.0028 621.569 15.8153 621.429 15.6373C621.293 15.4593 621.107 15.3135 620.872 15.1998C620.637 15.0862 620.344 15.0294 619.991 15.0294C619.51 15.0294 619.109 15.1373 618.787 15.3532C618.465 15.5653 618.304 15.84 618.304 16.1771C618.304 16.4688 618.412 16.7036 618.628 16.8816C618.844 17.0597 619.192 17.2055 619.673 17.3191L621.06 17.6373C621.863 17.8229 622.461 18.1089 622.855 18.4953C623.249 18.8816 623.446 19.3835 623.446 20.001C623.446 20.5237 623.295 20.9896 622.991 21.3987C622.692 21.804 622.274 22.1222 621.736 22.3532C621.202 22.5843 620.582 22.6998 619.878 22.6998C618.901 22.6998 618.103 22.4915 617.486 22.0748C616.868 21.6544 616.49 21.0578 616.349 20.285L617.991 20.035C618.094 20.4631 618.304 20.7869 618.622 21.0066C618.94 21.2225 619.355 21.3305 619.866 21.3305C620.423 21.3305 620.868 21.215 621.202 20.9839C621.535 20.7491 621.702 20.4631 621.702 20.126C621.702 19.8532 621.599 19.6241 621.395 19.4385C621.194 19.2528 620.885 19.1127 620.469 19.018L618.991 18.6941C618.177 18.5085 617.575 18.2131 617.185 17.8078C616.798 17.4025 616.605 16.8892 616.605 16.268C616.605 15.7528 616.749 15.3021 617.037 14.9157C617.325 14.5294 617.723 14.2282 618.23 14.0123C618.738 13.7926 619.319 13.6828 619.974 13.6828C620.918 13.6828 621.66 13.8873 622.202 14.2964C622.743 14.7017 623.101 15.2453 623.276 15.9271Z" fill="#635EFD"/>
<path d="M444.014 22.6828C443.234 22.6828 442.537 22.5483 441.923 22.2794C441.313 22.0104 440.83 21.6373 440.474 21.16C440.122 20.679 439.933 20.1222 439.906 19.4896H441.69C441.713 19.8343 441.829 20.1335 442.037 20.3873C442.249 20.6373 442.526 20.8305 442.866 20.9669C443.207 21.1032 443.586 21.1714 444.003 21.1714C444.461 21.1714 444.866 21.0919 445.219 20.9328C445.575 20.7737 445.853 20.5521 446.054 20.268C446.255 19.9801 446.355 19.6487 446.355 19.2737C446.355 18.8835 446.255 18.5407 446.054 18.2453C445.857 17.946 445.567 17.7112 445.185 17.5407C444.806 17.3703 444.348 17.285 443.81 17.285H442.827V15.8532H443.81C444.241 15.8532 444.62 15.7756 444.946 15.6203C445.276 15.465 445.533 15.2491 445.719 14.9725C445.904 14.6922 445.997 14.3646 445.997 13.9896C445.997 13.6297 445.916 13.3172 445.753 13.0521C445.594 12.7832 445.366 12.5729 445.071 12.4214C444.779 12.2699 444.435 12.1941 444.037 12.1941C443.658 12.1941 443.304 12.2642 442.974 12.4044C442.649 12.5407 442.384 12.7377 442.179 12.9953C441.974 13.2491 441.865 13.554 441.849 13.91H440.151C440.17 13.2813 440.355 12.7282 440.707 12.251C441.063 11.7737 441.533 11.4006 442.116 11.1316C442.7 10.8627 443.348 10.7282 444.06 10.7282C444.806 10.7282 445.45 10.8741 445.991 11.1657C446.537 11.4536 446.957 11.8381 447.253 12.3191C447.552 12.8002 447.7 13.3267 447.696 13.8987C447.7 14.5502 447.518 15.1032 447.151 15.5578C446.787 16.0123 446.302 16.3172 445.696 16.4725V16.5635C446.469 16.6809 447.067 16.9877 447.491 17.4839C447.92 17.9801 448.132 18.5957 448.128 19.3305C448.132 19.9707 447.954 20.5445 447.594 21.0521C447.238 21.5597 446.751 21.9593 446.134 22.251C445.516 22.5388 444.81 22.6828 444.014 22.6828Z" fill="#635EFD"/>
<circle cx="681" cy="16.5237" r="16" fill="#F5F6FA"/>
<path d="M710.409 10.8873H712.091L716.045 20.5464H716.182L720.136 10.8873H721.818V22.5237H720.5V13.6828H720.386L716.75 22.5237H715.477L711.841 13.6828H711.727V22.5237H710.409V10.8873ZM727.03 22.7282C726.477 22.7282 725.975 22.6241 725.524 22.4157C725.073 22.2036 724.715 21.8987 724.45 21.501C724.185 21.0994 724.053 20.6146 724.053 20.0464C724.053 19.5464 724.151 19.1411 724.348 18.8305C724.545 18.5161 724.808 18.2699 725.138 18.0919C725.467 17.9138 725.831 17.7813 726.229 17.6941C726.63 17.6032 727.034 17.5313 727.439 17.4782C727.969 17.41 728.399 17.3589 728.729 17.3248C729.062 17.2869 729.304 17.2244 729.456 17.1373C729.611 17.0502 729.689 16.8987 729.689 16.6828V16.6373C729.689 16.0767 729.536 15.6411 729.229 15.3305C728.926 15.0199 728.465 14.8646 727.848 14.8646C727.208 14.8646 726.706 15.0047 726.342 15.285C725.979 15.5653 725.723 15.8646 725.575 16.1828L724.303 15.7282C724.53 15.1979 724.833 14.785 725.212 14.4896C725.594 14.1903 726.011 13.982 726.462 13.8646C726.916 13.7434 727.363 13.6828 727.803 13.6828C728.083 13.6828 728.405 13.7169 728.768 13.785C729.136 13.8494 729.49 13.9839 729.831 14.1885C730.176 14.393 730.462 14.7017 730.689 15.1146C730.916 15.5275 731.03 16.0805 731.03 16.7737V22.5237H729.689V21.3419H729.621C729.53 21.5313 729.378 21.7339 729.166 21.9498C728.954 22.1657 728.672 22.3494 728.32 22.501C727.967 22.6525 727.537 22.7282 727.03 22.7282ZM727.234 21.5237C727.765 21.5237 728.212 21.4195 728.575 21.2112C728.943 21.0028 729.219 20.7339 729.405 20.4044C729.594 20.0748 729.689 19.7282 729.689 19.3646V18.1373C729.632 18.2055 729.507 18.268 729.314 18.3248C729.125 18.3778 728.905 18.4252 728.655 18.4669C728.409 18.5047 728.168 18.5388 727.933 18.5691C727.702 18.5957 727.515 18.6184 727.371 18.6373C727.022 18.6828 726.696 18.7566 726.393 18.8589C726.094 18.9574 725.852 19.107 725.666 19.3078C725.484 19.5047 725.393 19.7737 725.393 20.1146C725.393 20.5805 725.566 20.9328 725.911 21.1714C726.259 21.4063 726.7 21.5237 727.234 21.5237ZM733.477 22.5237V13.7964H734.818V22.5237H733.477ZM734.159 12.3419C733.898 12.3419 733.672 12.2528 733.483 12.0748C733.297 11.8968 733.205 11.6828 733.205 11.4328C733.205 11.1828 733.297 10.9688 733.483 10.7907C733.672 10.6127 733.898 10.5237 734.159 10.5237C734.42 10.5237 734.644 10.6127 734.83 10.7907C735.019 10.9688 735.114 11.1828 735.114 11.4328C735.114 11.6828 735.019 11.8968 734.83 12.0748C734.644 12.2528 734.42 12.3419 734.159 12.3419ZM738.615 17.2737V22.5237H737.274V13.7964H738.57V15.16H738.683C738.888 14.7169 739.198 14.3608 739.615 14.0919C740.032 13.8191 740.57 13.6828 741.229 13.6828C741.82 13.6828 742.337 13.804 742.78 14.0464C743.223 14.285 743.568 14.6487 743.814 15.1373C744.06 15.6222 744.183 16.2358 744.183 16.9782V22.5237H742.842V17.0691C742.842 16.3835 742.664 15.8494 742.308 15.4669C741.952 15.0805 741.464 14.8873 740.842 14.8873C740.414 14.8873 740.032 14.9801 739.695 15.1657C739.361 15.3513 739.098 15.6222 738.905 15.9782C738.712 16.3343 738.615 16.7661 738.615 17.2737ZM750.429 13.7964V14.9328H745.906V13.7964H750.429ZM747.224 11.7055H748.565V20.0237C748.565 20.4025 748.62 20.6866 748.73 20.876C748.844 21.0616 748.988 21.1866 749.162 21.251C749.34 21.3116 749.527 21.3419 749.724 21.3419C749.872 21.3419 749.993 21.3343 750.088 21.3191C750.183 21.3002 750.259 21.285 750.315 21.2737L750.588 22.4782C750.497 22.5123 750.37 22.5464 750.207 22.5805C750.045 22.6184 749.838 22.6373 749.588 22.6373C749.209 22.6373 748.838 22.5559 748.474 22.393C748.115 22.2301 747.815 21.982 747.577 21.6487C747.342 21.3153 747.224 20.8949 747.224 20.3873V11.7055ZM756.011 22.7055C755.17 22.7055 754.445 22.5199 753.835 22.1487C753.229 21.7737 752.761 21.251 752.432 20.5805C752.106 19.9063 751.943 19.1222 751.943 18.2282C751.943 17.3343 752.106 16.5464 752.432 15.8646C752.761 15.179 753.22 14.6449 753.807 14.2623C754.398 13.876 755.087 13.6828 755.875 13.6828C756.33 13.6828 756.778 13.7585 757.222 13.91C757.665 14.0616 758.068 14.3078 758.432 14.6487C758.795 14.9858 759.085 15.4328 759.301 15.9896C759.517 16.5464 759.625 17.232 759.625 18.0464V18.6146H752.898V17.4555H758.261C758.261 16.9631 758.163 16.5237 757.966 16.1373C757.773 15.751 757.496 15.446 757.136 15.2225C756.78 14.9991 756.36 14.8873 755.875 14.8873C755.341 14.8873 754.879 15.0199 754.489 15.285C754.102 15.5464 753.805 15.8873 753.597 16.3078C753.388 16.7282 753.284 17.179 753.284 17.66V18.4328C753.284 19.0919 753.398 19.6506 753.625 20.1089C753.856 20.5635 754.176 20.91 754.585 21.1487C754.994 21.3835 755.47 21.501 756.011 21.501C756.364 21.501 756.682 21.4517 756.966 21.3532C757.254 21.251 757.502 21.0994 757.71 20.8987C757.919 20.6941 758.08 20.4403 758.193 20.1373L759.489 20.501C759.352 20.9403 759.123 21.3267 758.801 21.66C758.479 21.9896 758.081 22.2472 757.608 22.4328C757.134 22.6146 756.602 22.7055 756.011 22.7055ZM763.006 17.2737V22.5237H761.665V13.7964H762.96V15.16H763.074C763.278 14.7169 763.589 14.3608 764.006 14.0919C764.422 13.8191 764.96 13.6828 765.619 13.6828C766.21 13.6828 766.727 13.804 767.17 14.0464C767.614 14.285 767.958 14.6487 768.205 15.1373C768.451 15.6222 768.574 16.2358 768.574 16.9782V22.5237H767.233V17.0691C767.233 16.3835 767.055 15.8494 766.699 15.4669C766.343 15.0805 765.854 14.8873 765.233 14.8873C764.805 14.8873 764.422 14.9801 764.085 15.1657C763.752 15.3513 763.489 15.6222 763.295 15.9782C763.102 16.3343 763.006 16.7661 763.006 17.2737ZM773.592 22.7282C773.039 22.7282 772.537 22.6241 772.087 22.4157C771.636 22.2036 771.278 21.8987 771.013 21.501C770.748 21.0994 770.615 20.6146 770.615 20.0464C770.615 19.5464 770.714 19.1411 770.911 18.8305C771.107 18.5161 771.371 18.2699 771.7 18.0919C772.03 17.9138 772.393 17.7813 772.791 17.6941C773.193 17.6032 773.596 17.5313 774.001 17.4782C774.532 17.41 774.962 17.3589 775.291 17.3248C775.625 17.2869 775.867 17.2244 776.018 17.1373C776.174 17.0502 776.251 16.8987 776.251 16.6828V16.6373C776.251 16.0767 776.098 15.6411 775.791 15.3305C775.488 15.0199 775.028 14.8646 774.411 14.8646C773.77 14.8646 773.268 15.0047 772.905 15.285C772.541 15.5653 772.286 15.8646 772.138 16.1828L770.865 15.7282C771.092 15.1979 771.395 14.785 771.774 14.4896C772.157 14.1903 772.573 13.982 773.024 13.8646C773.479 13.7434 773.926 13.6828 774.365 13.6828C774.645 13.6828 774.967 13.7169 775.331 13.785C775.698 13.8494 776.053 13.9839 776.393 14.1885C776.738 14.393 777.024 14.7017 777.251 15.1146C777.479 15.5275 777.592 16.0805 777.592 16.7737V22.5237H776.251V21.3419H776.183C776.092 21.5313 775.941 21.7339 775.729 21.9498C775.517 22.1657 775.234 22.3494 774.882 22.501C774.53 22.6525 774.1 22.7282 773.592 22.7282ZM773.797 21.5237C774.327 21.5237 774.774 21.4195 775.138 21.2112C775.505 21.0028 775.782 20.7339 775.967 20.4044C776.157 20.0748 776.251 19.7282 776.251 19.3646V18.1373C776.195 18.2055 776.07 18.268 775.876 18.3248C775.687 18.3778 775.467 18.4252 775.217 18.4669C774.971 18.5047 774.731 18.5388 774.496 18.5691C774.265 18.5957 774.077 18.6184 773.933 18.6373C773.585 18.6828 773.259 18.7566 772.956 18.8589C772.657 18.9574 772.414 19.107 772.229 19.3078C772.047 19.5047 771.956 19.7737 771.956 20.1146C771.956 20.5805 772.128 20.9328 772.473 21.1714C772.821 21.4063 773.263 21.5237 773.797 21.5237ZM781.381 17.2737V22.5237H780.04V13.7964H781.335V15.16H781.449C781.653 14.7169 781.964 14.3608 782.381 14.0919C782.797 13.8191 783.335 13.6828 783.994 13.6828C784.585 13.6828 785.102 13.804 785.545 14.0464C785.989 14.285 786.333 14.6487 786.58 15.1373C786.826 15.6222 786.949 16.2358 786.949 16.9782V22.5237H785.608V17.0691C785.608 16.3835 785.43 15.8494 785.074 15.4669C784.718 15.0805 784.229 14.8873 783.608 14.8873C783.18 14.8873 782.797 14.9801 782.46 15.1657C782.127 15.3513 781.864 15.6222 781.67 15.9782C781.477 16.3343 781.381 16.7661 781.381 17.2737ZM792.945 22.7055C792.126 22.7055 791.422 22.5123 790.831 22.126C790.24 21.7396 789.786 21.2074 789.467 20.5294C789.149 19.8513 788.99 19.0767 788.99 18.2055C788.99 17.3191 789.153 16.5369 789.479 15.8589C789.808 15.1771 790.267 14.6449 790.854 14.2623C791.445 13.876 792.134 13.6828 792.922 13.6828C793.536 13.6828 794.089 13.7964 794.581 14.0237C795.073 14.251 795.477 14.5691 795.791 14.9782C796.106 15.3873 796.301 15.8646 796.376 16.41H795.036C794.933 16.0123 794.706 15.66 794.354 15.3532C794.005 15.0426 793.536 14.8873 792.945 14.8873C792.422 14.8873 791.964 15.0237 791.57 15.2964C791.179 15.5653 790.875 15.946 790.655 16.4385C790.439 16.9271 790.331 17.501 790.331 18.16C790.331 18.8343 790.437 19.4214 790.649 19.9214C790.865 20.4214 791.168 20.8097 791.558 21.0862C791.952 21.3627 792.414 21.501 792.945 21.501C793.293 21.501 793.609 21.4403 793.893 21.3191C794.178 21.1979 794.418 21.0237 794.615 20.7964C794.812 20.5691 794.952 20.2964 795.036 19.9782H796.376C796.301 20.4934 796.113 20.9574 795.814 21.3703C795.518 21.7794 795.126 22.1051 794.638 22.3475C794.153 22.5862 793.589 22.7055 792.945 22.7055ZM801.996 22.7055C801.155 22.7055 800.429 22.5199 799.82 22.1487C799.214 21.7737 798.746 21.251 798.416 20.5805C798.09 19.9063 797.928 19.1222 797.928 18.2282C797.928 17.3343 798.09 16.5464 798.416 15.8646C798.746 15.179 799.204 14.6449 799.791 14.2623C800.382 13.876 801.071 13.6828 801.859 13.6828C802.314 13.6828 802.763 13.7585 803.206 13.91C803.649 14.0616 804.053 14.3078 804.416 14.6487C804.78 14.9858 805.07 15.4328 805.286 15.9896C805.501 16.5464 805.609 17.232 805.609 18.0464V18.6146H798.882V17.4555H804.246C804.246 16.9631 804.147 16.5237 803.95 16.1373C803.757 15.751 803.481 15.446 803.121 15.2225C802.765 14.9991 802.344 14.8873 801.859 14.8873C801.325 14.8873 800.863 15.0199 800.473 15.285C800.087 15.5464 799.789 15.8873 799.581 16.3078C799.373 16.7282 799.268 17.179 799.268 17.66V18.4328C799.268 19.0919 799.382 19.6506 799.609 20.1089C799.84 20.5635 800.161 20.91 800.57 21.1487C800.979 21.3835 801.454 21.501 801.996 21.501C802.348 21.501 802.666 21.4517 802.95 21.3532C803.238 21.251 803.486 21.0994 803.695 20.8987C803.903 20.6941 804.064 20.4403 804.178 20.1373L805.473 20.501C805.337 20.9403 805.107 21.3267 804.786 21.66C804.464 21.9896 804.066 22.2472 803.592 22.4328C803.119 22.6146 802.587 22.7055 801.996 22.7055ZM814.717 22.7282C814.164 22.7282 813.662 22.6241 813.212 22.4157C812.761 22.2036 812.403 21.8987 812.138 21.501C811.873 21.0994 811.74 20.6146 811.74 20.0464C811.74 19.5464 811.839 19.1411 812.036 18.8305C812.232 18.5161 812.496 18.2699 812.825 18.0919C813.155 17.9138 813.518 17.7813 813.916 17.6941C814.318 17.6032 814.721 17.5313 815.126 17.4782C815.657 17.41 816.087 17.3589 816.416 17.3248C816.75 17.2869 816.992 17.2244 817.143 17.1373C817.299 17.0502 817.376 16.8987 817.376 16.6828V16.6373C817.376 16.0767 817.223 15.6411 816.916 15.3305C816.613 15.0199 816.153 14.8646 815.536 14.8646C814.895 14.8646 814.393 15.0047 814.03 15.285C813.666 15.5653 813.411 15.8646 813.263 16.1828L811.99 15.7282C812.217 15.1979 812.52 14.785 812.899 14.4896C813.282 14.1903 813.698 13.982 814.149 13.8646C814.604 13.7434 815.051 13.6828 815.49 13.6828C815.77 13.6828 816.092 13.7169 816.456 13.785C816.823 13.8494 817.178 13.9839 817.518 14.1885C817.863 14.393 818.149 14.7017 818.376 15.1146C818.604 15.5275 818.717 16.0805 818.717 16.7737V22.5237H817.376V21.3419H817.308C817.217 21.5313 817.066 21.7339 816.854 21.9498C816.642 22.1657 816.359 22.3494 816.007 22.501C815.655 22.6525 815.225 22.7282 814.717 22.7282ZM814.922 21.5237C815.452 21.5237 815.899 21.4195 816.263 21.2112C816.63 21.0028 816.907 20.7339 817.092 20.4044C817.282 20.0748 817.376 19.7282 817.376 19.3646V18.1373C817.32 18.2055 817.195 18.268 817.001 18.3248C816.812 18.3778 816.592 18.4252 816.342 18.4669C816.096 18.5047 815.856 18.5388 815.621 18.5691C815.39 18.5957 815.202 18.6184 815.058 18.6373C814.71 18.6828 814.384 18.7566 814.081 18.8589C813.782 18.9574 813.539 19.107 813.354 19.3078C813.172 19.5047 813.081 19.7737 813.081 20.1146C813.081 20.5805 813.253 20.9328 813.598 21.1714C813.946 21.4063 814.388 21.5237 814.922 21.5237ZM821.165 22.5237V13.7964H822.46V15.16H822.574C822.756 14.6941 823.049 14.3324 823.455 14.0748C823.86 13.8135 824.347 13.6828 824.915 13.6828C825.491 13.6828 825.97 13.8135 826.352 14.0748C826.739 14.3324 827.04 14.6941 827.256 15.16H827.347C827.57 14.7093 827.905 14.3513 828.352 14.0862C828.799 13.8172 829.335 13.6828 829.96 13.6828C830.741 13.6828 831.379 13.9271 831.875 14.4157C832.371 14.9006 832.619 15.6563 832.619 16.6828V22.5237H831.278V16.6828C831.278 16.0388 831.102 15.5786 830.75 15.3021C830.398 15.0256 829.983 14.8873 829.506 14.8873C828.892 14.8873 828.417 15.0729 828.08 15.4441C827.742 15.8116 827.574 16.2775 827.574 16.8419V22.5237H826.21V16.5464C826.21 16.0502 826.049 15.6506 825.727 15.3475C825.405 15.0407 824.991 14.8873 824.483 14.8873C824.134 14.8873 823.809 14.9801 823.506 15.1657C823.206 15.3513 822.964 15.6089 822.778 15.9385C822.597 16.2642 822.506 16.6411 822.506 17.0691V22.5237H821.165ZM838.616 22.7055C837.829 22.7055 837.137 22.518 836.543 22.143C835.952 21.768 835.49 21.2434 835.156 20.5691C834.827 19.8949 834.662 19.107 834.662 18.2055C834.662 17.2964 834.827 16.5028 835.156 15.8248C835.49 15.1468 835.952 14.6203 836.543 14.2453C837.137 13.8703 837.829 13.6828 838.616 13.6828C839.404 13.6828 840.094 13.8703 840.685 14.2453C841.279 14.6203 841.741 15.1468 842.071 15.8248C842.404 16.5028 842.571 17.2964 842.571 18.2055C842.571 19.107 842.404 19.8949 842.071 20.5691C841.741 21.2434 841.279 21.768 840.685 22.143C840.094 22.518 839.404 22.7055 838.616 22.7055ZM838.616 21.501C839.215 21.501 839.707 21.3475 840.094 21.0407C840.48 20.7339 840.766 20.3305 840.952 19.8305C841.137 19.3305 841.23 18.7888 841.23 18.2055C841.23 17.6222 841.137 17.0786 840.952 16.5748C840.766 16.071 840.48 15.6638 840.094 15.3532C839.707 15.0426 839.215 14.8873 838.616 14.8873C838.018 14.8873 837.526 15.0426 837.139 15.3532C836.753 15.6638 836.467 16.071 836.281 16.5748C836.096 17.0786 836.003 17.6222 836.003 18.2055C836.003 18.7888 836.096 19.3305 836.281 19.8305C836.467 20.3305 836.753 20.7339 837.139 21.0407C837.526 21.3475 838.018 21.501 838.616 21.501ZM850.118 18.9555V13.7964H851.459V22.5237H850.118V21.0464H850.027C849.822 21.4896 849.504 21.8665 849.072 22.1771C848.641 22.4839 848.095 22.6373 847.436 22.6373C846.891 22.6373 846.406 22.518 845.982 22.2794C845.557 22.0369 845.224 21.6733 844.982 21.1885C844.739 20.6998 844.618 20.0843 844.618 19.3419V13.7964H845.959V19.251C845.959 19.8873 846.137 20.3949 846.493 20.7737C846.853 21.1525 847.311 21.3419 847.868 21.3419C848.201 21.3419 848.54 21.2566 848.885 21.0862C849.233 20.9157 849.525 20.6544 849.76 20.3021C849.999 19.9498 850.118 19.501 850.118 18.9555ZM855.256 17.2737V22.5237H853.915V13.7964H855.21V15.16H855.324C855.528 14.7169 855.839 14.3608 856.256 14.0919C856.672 13.8191 857.21 13.6828 857.869 13.6828C858.46 13.6828 858.977 13.804 859.42 14.0464C859.864 14.285 860.208 14.6487 860.455 15.1373C860.701 15.6222 860.824 16.2358 860.824 16.9782V22.5237H859.483V17.0691C859.483 16.3835 859.305 15.8494 858.949 15.4669C858.593 15.0805 858.104 14.8873 857.483 14.8873C857.055 14.8873 856.672 14.9801 856.335 15.1657C856.002 15.3513 855.739 15.6222 855.545 15.9782C855.352 16.3343 855.256 16.7661 855.256 17.2737ZM867.07 13.7964V14.9328H862.547V13.7964H867.07ZM863.865 11.7055H865.206V20.0237C865.206 20.4025 865.261 20.6866 865.371 20.876C865.484 21.0616 865.628 21.1866 865.803 21.251C865.981 21.3116 866.168 21.3419 866.365 21.3419C866.513 21.3419 866.634 21.3343 866.729 21.3191C866.823 21.3002 866.899 21.285 866.956 21.2737L867.229 22.4782C867.138 22.5123 867.011 22.5464 866.848 22.5805C866.685 22.6184 866.479 22.6373 866.229 22.6373C865.85 22.6373 865.479 22.5559 865.115 22.393C864.755 22.2301 864.456 21.982 864.217 21.6487C863.982 21.3153 863.865 20.8949 863.865 20.3873V11.7055Z" fill="#5A607F"/>
<path d="M676.799 20.1373V18.9782L681.913 10.8873H682.754V12.6828H682.185L678.322 18.7964V18.8873H685.208V20.1373H676.799ZM682.276 22.5237V19.785V19.2453V10.8873H683.617V22.5237H682.276Z" fill="#A1A7C4"/>
</svg>
