<svg width="871" height="33" viewBox="0 0 871 33" fill="none" xmlns="http://www.w3.org/2000/svg">
<circle cx="16" cy="16.5237" r="16" fill="#F5F6FA"/>
<path d="M45.4091 22.5237V10.8873H49.4773C50.2879 10.8873 50.9564 11.0275 51.483 11.3078C52.0095 11.5843 52.4015 11.9574 52.6591 12.4271C52.9167 12.893 53.0455 13.41 53.0455 13.9782C53.0455 14.4782 52.9564 14.8911 52.7784 15.2169C52.6042 15.5426 52.3731 15.8002 52.0852 15.9896C51.8011 16.179 51.4924 16.3191 51.1591 16.41V16.5237C51.5152 16.5464 51.8731 16.6714 52.233 16.8987C52.5928 17.126 52.8939 17.4517 53.1364 17.876C53.3788 18.3002 53.5 18.8191 53.5 19.4328C53.5 20.0161 53.3674 20.5407 53.1023 21.0066C52.8371 21.4725 52.4186 21.8419 51.8466 22.1146C51.2746 22.3873 50.5303 22.5237 49.6136 22.5237H45.4091ZM46.8182 21.2737H49.6136C50.5341 21.2737 51.1875 21.0957 51.5739 20.7396C51.964 20.3797 52.1591 19.9441 52.1591 19.4328C52.1591 19.0388 52.0587 18.6752 51.858 18.3419C51.6572 18.0047 51.3712 17.7358 51 17.535C50.6288 17.3305 50.1894 17.2282 49.6818 17.2282H46.8182V21.2737ZM46.8182 16.001H49.4318C49.8561 16.001 50.2386 15.9176 50.5795 15.751C50.9242 15.5843 51.197 15.3494 51.3977 15.0464C51.6023 14.7434 51.7045 14.3873 51.7045 13.9782C51.7045 13.4669 51.5265 13.0332 51.1705 12.6771C50.8144 12.3172 50.25 12.1373 49.4773 12.1373H46.8182V16.001ZM58.2017 22.7282C57.6487 22.7282 57.1468 22.6241 56.696 22.4157C56.2453 22.2036 55.8873 21.8987 55.6222 21.501C55.357 21.0994 55.2244 20.6146 55.2244 20.0464C55.2244 19.5464 55.3229 19.1411 55.5199 18.8305C55.7169 18.5161 55.9801 18.2699 56.3097 18.0919C56.6392 17.9138 57.0028 17.7813 57.4006 17.6941C57.8021 17.6032 58.2055 17.5313 58.6108 17.4782C59.1411 17.41 59.571 17.3589 59.9006 17.3248C60.2339 17.2869 60.4763 17.2244 60.6278 17.1373C60.7831 17.0502 60.8608 16.8987 60.8608 16.6828V16.6373C60.8608 16.0767 60.7074 15.6411 60.4006 15.3305C60.0975 15.0199 59.6373 14.8646 59.0199 14.8646C58.3797 14.8646 57.8778 15.0047 57.5142 15.285C57.1506 15.5653 56.8949 15.8646 56.7472 16.1828L55.4744 15.7282C55.7017 15.1979 56.0047 14.785 56.3835 14.4896C56.7661 14.1903 57.1828 13.982 57.6335 13.8646C58.0881 13.7434 58.535 13.6828 58.9744 13.6828C59.2547 13.6828 59.5767 13.7169 59.9403 13.785C60.3078 13.8494 60.6619 13.9839 61.0028 14.1885C61.3475 14.393 61.6335 14.7017 61.8608 15.1146C62.0881 15.5275 62.2017 16.0805 62.2017 16.7737V22.5237H60.8608V21.3419H60.7926C60.7017 21.5313 60.5502 21.7339 60.3381 21.9498C60.1259 22.1657 59.8438 22.3494 59.4915 22.501C59.1392 22.6525 58.7093 22.7282 58.2017 22.7282ZM58.4062 21.5237C58.9366 21.5237 59.3835 21.4195 59.7472 21.2112C60.1146 21.0028 60.3911 20.7339 60.5767 20.4044C60.7661 20.0748 60.8608 19.7282 60.8608 19.3646V18.1373C60.804 18.2055 60.679 18.268 60.4858 18.3248C60.2964 18.3778 60.0767 18.4252 59.8267 18.4669C59.5805 18.5047 59.34 18.5388 59.1051 18.5691C58.8741 18.5957 58.6866 18.6184 58.5426 18.6373C58.1941 18.6828 57.8684 18.7566 57.5653 18.8589C57.2661 18.9574 57.0237 19.107 56.8381 19.3078C56.6563 19.5047 56.5653 19.7737 56.5653 20.1146C56.5653 20.5805 56.7377 20.9328 57.0824 21.1714C57.4309 21.4063 57.8722 21.5237 58.4062 21.5237ZM70.831 15.751L69.6264 16.0919C69.5507 15.8911 69.4389 15.696 69.2912 15.5066C69.1473 15.3135 68.9503 15.1544 68.7003 15.0294C68.4503 14.9044 68.1302 14.8419 67.7401 14.8419C67.206 14.8419 66.7609 14.965 66.4048 15.2112C66.0526 15.4536 65.8764 15.7623 65.8764 16.1373C65.8764 16.4707 65.9976 16.7339 66.2401 16.9271C66.4825 17.1203 66.8613 17.2813 67.3764 17.41L68.6719 17.7282C69.4522 17.9176 70.0336 18.2074 70.4162 18.5975C70.7988 18.9839 70.9901 19.482 70.9901 20.0919C70.9901 20.5919 70.8461 21.0388 70.5582 21.4328C70.2741 21.8267 69.8764 22.1373 69.3651 22.3646C68.8537 22.5919 68.259 22.7055 67.581 22.7055C66.6908 22.7055 65.9541 22.5123 65.3707 22.126C64.7874 21.7396 64.4181 21.1752 64.2628 20.4328L65.5355 20.1146C65.6567 20.5843 65.8859 20.9366 66.223 21.1714C66.5639 21.4063 67.009 21.5237 67.5582 21.5237C68.1832 21.5237 68.6795 21.3911 69.0469 21.126C69.4181 20.857 69.6037 20.535 69.6037 20.16C69.6037 19.857 69.4976 19.6032 69.2855 19.3987C69.0734 19.1903 68.7476 19.035 68.3082 18.9328L66.8537 18.5919C66.0545 18.4025 65.4673 18.1089 65.0923 17.7112C64.7211 17.3097 64.5355 16.8078 64.5355 16.2055C64.5355 15.7131 64.6738 15.2775 64.9503 14.8987C65.2306 14.5199 65.6113 14.2225 66.0923 14.0066C66.5772 13.7907 67.1264 13.6828 67.7401 13.6828C68.6037 13.6828 69.2817 13.8722 69.7741 14.251C70.2704 14.6297 70.6226 15.1297 70.831 15.751ZM73.0085 22.5237V13.7964H74.3494V22.5237H73.0085ZM73.6903 12.3419C73.429 12.3419 73.2036 12.2528 73.0142 12.0748C72.8286 11.8968 72.7358 11.6828 72.7358 11.4328C72.7358 11.1828 72.8286 10.9688 73.0142 10.7907C73.2036 10.6127 73.429 10.5237 73.6903 10.5237C73.9517 10.5237 74.1752 10.6127 74.3608 10.7907C74.5502 10.9688 74.6449 11.1828 74.6449 11.4328C74.6449 11.6828 74.5502 11.8968 74.3608 12.0748C74.1752 12.2528 73.9517 12.3419 73.6903 12.3419ZM80.3509 22.7055C79.5327 22.7055 78.8281 22.5123 78.2372 22.126C77.6463 21.7396 77.1918 21.2074 76.8736 20.5294C76.5554 19.8513 76.3963 19.0767 76.3963 18.2055C76.3963 17.3191 76.5592 16.5369 76.8849 15.8589C77.2145 15.1771 77.6728 14.6449 78.2599 14.2623C78.8509 13.876 79.5402 13.6828 80.3281 13.6828C80.9418 13.6828 81.4948 13.7964 81.9872 14.0237C82.4796 14.251 82.883 14.5691 83.1974 14.9782C83.5118 15.3873 83.7069 15.8646 83.7827 16.41H82.4418C82.3395 16.0123 82.1122 15.66 81.7599 15.3532C81.4115 15.0426 80.9418 14.8873 80.3509 14.8873C79.8281 14.8873 79.3698 15.0237 78.9759 15.2964C78.5857 15.5653 78.2808 15.946 78.0611 16.4385C77.8452 16.9271 77.7372 17.501 77.7372 18.16C77.7372 18.8343 77.8433 19.4214 78.0554 19.9214C78.2713 20.4214 78.5743 20.8097 78.9645 21.0862C79.3584 21.3627 79.8205 21.501 80.3509 21.501C80.6993 21.501 81.0156 21.4403 81.2997 21.3191C81.5838 21.1979 81.8243 21.0237 82.0213 20.7964C82.2183 20.5691 82.3584 20.2964 82.4418 19.9782H83.7827C83.7069 20.4934 83.5194 20.9574 83.2202 21.3703C82.9247 21.7794 82.5327 22.1051 82.044 22.3475C81.5592 22.5862 80.9948 22.7055 80.3509 22.7055ZM91.8338 10.8873V22.5237H90.4247V10.8873H91.8338ZM95.8182 17.2737V22.5237H94.4773V13.7964H95.7727V15.16H95.8864C96.0909 14.7169 96.4015 14.3608 96.8182 14.0919C97.2348 13.8191 97.7727 13.6828 98.4318 13.6828C99.0227 13.6828 99.5398 13.804 99.983 14.0464C100.426 14.285 100.771 14.6487 101.017 15.1373C101.263 15.6222 101.386 16.2358 101.386 16.9782V22.5237H100.045V17.0691C100.045 16.3835 99.8674 15.8494 99.5114 15.4669C99.1553 15.0805 98.6667 14.8873 98.0455 14.8873C97.6174 14.8873 97.2348 14.9801 96.8977 15.1657C96.5644 15.3513 96.3011 15.6222 96.108 15.9782C95.9148 16.3343 95.8182 16.7661 95.8182 17.2737ZM107.723 13.7964V14.9328H103.018V13.7964H107.723ZM104.428 22.5237V12.5919C104.428 12.0919 104.545 11.6752 104.78 11.3419C105.015 11.0085 105.32 10.7585 105.695 10.5919C106.07 10.4252 106.465 10.3419 106.882 10.3419C107.212 10.3419 107.481 10.3684 107.689 10.4214C107.897 10.4744 108.053 10.5237 108.155 10.5691L107.768 11.7282C107.7 11.7055 107.606 11.6771 107.484 11.643C107.367 11.6089 107.212 11.5919 107.018 11.5919C106.575 11.5919 106.255 11.7036 106.058 11.9271C105.865 12.1506 105.768 12.4782 105.768 12.91V22.5237H104.428ZM112.788 22.7055C112 22.7055 111.309 22.518 110.714 22.143C110.124 21.768 109.661 21.2434 109.328 20.5691C108.999 19.8949 108.834 19.107 108.834 18.2055C108.834 17.2964 108.999 16.5028 109.328 15.8248C109.661 15.1468 110.124 14.6203 110.714 14.2453C111.309 13.8703 112 13.6828 112.788 13.6828C113.576 13.6828 114.266 13.8703 114.857 14.2453C115.451 14.6203 115.913 15.1468 116.243 15.8248C116.576 16.5028 116.743 17.2964 116.743 18.2055C116.743 19.107 116.576 19.8949 116.243 20.5691C115.913 21.2434 115.451 21.768 114.857 22.143C114.266 22.518 113.576 22.7055 112.788 22.7055ZM112.788 21.501C113.387 21.501 113.879 21.3475 114.266 21.0407C114.652 20.7339 114.938 20.3305 115.124 19.8305C115.309 19.3305 115.402 18.7888 115.402 18.2055C115.402 17.6222 115.309 17.0786 115.124 16.5748C114.938 16.071 114.652 15.6638 114.266 15.3532C113.879 15.0426 113.387 14.8873 112.788 14.8873C112.19 14.8873 111.697 15.0426 111.311 15.3532C110.925 15.6638 110.639 16.071 110.453 16.5748C110.268 17.0786 110.175 17.6222 110.175 18.2055C110.175 18.7888 110.268 19.3305 110.453 19.8305C110.639 20.3305 110.925 20.7339 111.311 21.0407C111.697 21.3475 112.19 21.501 112.788 21.501ZM118.79 22.5237V13.7964H120.085V15.1146H120.176C120.335 14.6828 120.623 14.3324 121.04 14.0635C121.456 13.7945 121.926 13.66 122.449 13.66C122.547 13.66 122.67 13.6619 122.818 13.6657C122.966 13.6695 123.078 13.6752 123.153 13.6828V15.0464C123.108 15.035 123.004 15.018 122.841 14.9953C122.682 14.9688 122.513 14.9555 122.335 14.9555C121.911 14.9555 121.532 15.0445 121.199 15.2225C120.869 15.3968 120.608 15.6392 120.415 15.9498C120.225 16.2566 120.131 16.607 120.131 17.001V22.5237H118.79ZM124.743 22.5237V13.7964H126.038V15.16H126.152C126.334 14.6941 126.627 14.3324 127.033 14.0748C127.438 13.8135 127.925 13.6828 128.493 13.6828C129.069 13.6828 129.548 13.8135 129.93 14.0748C130.317 14.3324 130.618 14.6941 130.834 15.16H130.925C131.148 14.7093 131.483 14.3513 131.93 14.0862C132.377 13.8172 132.913 13.6828 133.538 13.6828C134.319 13.6828 134.957 13.9271 135.453 14.4157C135.949 14.9006 136.197 15.6563 136.197 16.6828V22.5237H134.857V16.6828C134.857 16.0388 134.68 15.5786 134.328 15.3021C133.976 15.0256 133.561 14.8873 133.084 14.8873C132.47 14.8873 131.995 15.0729 131.658 15.4441C131.321 15.8116 131.152 16.2775 131.152 16.8419V22.5237H129.788V16.5464C129.788 16.0502 129.627 15.6506 129.305 15.3475C128.983 15.0407 128.569 14.8873 128.061 14.8873C127.713 14.8873 127.387 14.9801 127.084 15.1657C126.785 15.3513 126.542 15.6089 126.357 15.9385C126.175 16.2642 126.084 16.6411 126.084 17.0691V22.5237H124.743ZM141.217 22.7282C140.664 22.7282 140.162 22.6241 139.712 22.4157C139.261 22.2036 138.903 21.8987 138.638 21.501C138.373 21.0994 138.24 20.6146 138.24 20.0464C138.24 19.5464 138.339 19.1411 138.536 18.8305C138.732 18.5161 138.996 18.2699 139.325 18.0919C139.655 17.9138 140.018 17.7813 140.416 17.6941C140.818 17.6032 141.221 17.5313 141.626 17.4782C142.157 17.41 142.587 17.3589 142.916 17.3248C143.25 17.2869 143.492 17.2244 143.643 17.1373C143.799 17.0502 143.876 16.8987 143.876 16.6828V16.6373C143.876 16.0767 143.723 15.6411 143.416 15.3305C143.113 15.0199 142.653 14.8646 142.036 14.8646C141.395 14.8646 140.893 15.0047 140.53 15.285C140.166 15.5653 139.911 15.8646 139.763 16.1828L138.49 15.7282C138.717 15.1979 139.02 14.785 139.399 14.4896C139.782 14.1903 140.198 13.982 140.649 13.8646C141.104 13.7434 141.551 13.6828 141.99 13.6828C142.27 13.6828 142.592 13.7169 142.956 13.785C143.323 13.8494 143.678 13.9839 144.018 14.1885C144.363 14.393 144.649 14.7017 144.876 15.1146C145.104 15.5275 145.217 16.0805 145.217 16.7737V22.5237H143.876V21.3419H143.808C143.717 21.5313 143.566 21.7339 143.354 21.9498C143.142 22.1657 142.859 22.3494 142.507 22.501C142.155 22.6525 141.725 22.7282 141.217 22.7282ZM141.422 21.5237C141.952 21.5237 142.399 21.4195 142.763 21.2112C143.13 21.0028 143.407 20.7339 143.592 20.4044C143.782 20.0748 143.876 19.7282 143.876 19.3646V18.1373C143.82 18.2055 143.695 18.268 143.501 18.3248C143.312 18.3778 143.092 18.4252 142.842 18.4669C142.596 18.5047 142.356 18.5388 142.121 18.5691C141.89 18.5957 141.702 18.6184 141.558 18.6373C141.21 18.6828 140.884 18.7566 140.581 18.8589C140.282 18.9574 140.039 19.107 139.854 19.3078C139.672 19.5047 139.581 19.7737 139.581 20.1146C139.581 20.5805 139.753 20.9328 140.098 21.1714C140.446 21.4063 140.888 21.5237 141.422 21.5237ZM151.46 13.7964V14.9328H146.938V13.7964H151.46ZM148.256 11.7055H149.597V20.0237C149.597 20.4025 149.652 20.6866 149.761 20.876C149.875 21.0616 150.019 21.1866 150.193 21.251C150.371 21.3116 150.559 21.3419 150.756 21.3419C150.903 21.3419 151.025 21.3343 151.119 21.3191C151.214 21.3002 151.29 21.285 151.347 21.2737L151.619 22.4782C151.528 22.5123 151.402 22.5464 151.239 22.5805C151.076 22.6184 150.869 22.6373 150.619 22.6373C150.241 22.6373 149.869 22.5559 149.506 22.393C149.146 22.2301 148.847 21.982 148.608 21.6487C148.373 21.3153 148.256 20.8949 148.256 20.3873V11.7055ZM153.477 22.5237V13.7964H154.818V22.5237H153.477ZM154.159 12.3419C153.898 12.3419 153.672 12.2528 153.483 12.0748C153.297 11.8968 153.205 11.6828 153.205 11.4328C153.205 11.1828 153.297 10.9688 153.483 10.7907C153.672 10.6127 153.898 10.5237 154.159 10.5237C154.42 10.5237 154.644 10.6127 154.83 10.7907C155.019 10.9688 155.114 11.1828 155.114 11.4328C155.114 11.6828 155.019 11.8968 154.83 12.0748C154.644 12.2528 154.42 12.3419 154.159 12.3419ZM160.82 22.7055C160.032 22.7055 159.34 22.518 158.746 22.143C158.155 21.768 157.693 21.2434 157.359 20.5691C157.03 19.8949 156.865 19.107 156.865 18.2055C156.865 17.2964 157.03 16.5028 157.359 15.8248C157.693 15.1468 158.155 14.6203 158.746 14.2453C159.34 13.8703 160.032 13.6828 160.82 13.6828C161.607 13.6828 162.297 13.8703 162.888 14.2453C163.482 14.6203 163.945 15.1468 164.274 15.8248C164.607 16.5028 164.774 17.2964 164.774 18.2055C164.774 19.107 164.607 19.8949 164.274 20.5691C163.945 21.2434 163.482 21.768 162.888 22.143C162.297 22.518 161.607 22.7055 160.82 22.7055ZM160.82 21.501C161.418 21.501 161.911 21.3475 162.297 21.0407C162.683 20.7339 162.969 20.3305 163.155 19.8305C163.34 19.3305 163.433 18.7888 163.433 18.2055C163.433 17.6222 163.34 17.0786 163.155 16.5748C162.969 16.071 162.683 15.6638 162.297 15.3532C161.911 15.0426 161.418 14.8873 160.82 14.8873C160.221 14.8873 159.729 15.0426 159.342 15.3532C158.956 15.6638 158.67 16.071 158.484 16.5748C158.299 17.0786 158.206 17.6222 158.206 18.2055C158.206 18.7888 158.299 19.3305 158.484 19.8305C158.67 20.3305 158.956 20.7339 159.342 21.0407C159.729 21.3475 160.221 21.501 160.82 21.501ZM168.162 17.2737V22.5237H166.821V13.7964H168.116V15.16H168.23C168.435 14.7169 168.745 14.3608 169.162 14.0919C169.579 13.8191 170.116 13.6828 170.776 13.6828C171.366 13.6828 171.884 13.804 172.327 14.0464C172.77 14.285 173.115 14.6487 173.361 15.1373C173.607 15.6222 173.73 16.2358 173.73 16.9782V22.5237H172.389V17.0691C172.389 16.3835 172.211 15.8494 171.855 15.4669C171.499 15.0805 171.01 14.8873 170.389 14.8873C169.961 14.8873 169.579 14.9801 169.241 15.1657C168.908 15.3513 168.645 15.6222 168.452 15.9782C168.259 16.3343 168.162 16.7661 168.162 17.2737Z" fill="#5A607F"/>
<path fill-rule="evenodd" clip-rule="evenodd" d="M21.9526 11.2278C22.3344 10.8413 22.9592 10.8436 23.338 11.2331C23.7059 11.6114 23.7039 12.2143 23.3335 12.5901L13.544 22.5237L8.6645 17.5562C8.29508 17.1801 8.29358 16.5779 8.66113 16.1999C9.0403 15.8101 9.66581 15.808 10.0476 16.1953L13.544 19.7427L21.9526 11.2278Z" fill="#7E84A3"/>
<circle cx="231" cy="16.5237" r="15" fill="white" stroke="#635EFD" stroke-width="2"/>
<path d="M262.597 22.5237L259.312 10.8873H261.58L263.676 19.4385H263.784L266.023 10.8873H268.085L270.33 19.4441H270.432L272.528 10.8873H274.795L271.511 22.5237H269.432L267.102 14.3589H267.011L264.676 22.5237H262.597ZM276.166 22.5237V13.7964H278.223V22.5237H276.166ZM277.2 12.5578C276.875 12.5578 276.594 12.4498 276.359 12.2339C276.125 12.0142 276.007 11.751 276.007 11.4441C276.007 11.1335 276.125 10.8703 276.359 10.6544C276.594 10.4347 276.875 10.3248 277.2 10.3248C277.53 10.3248 277.81 10.4347 278.041 10.6544C278.276 10.8703 278.393 11.1335 278.393 11.4441C278.393 11.751 278.276 12.0142 278.041 12.2339C277.81 12.4498 277.53 12.5578 277.2 12.5578ZM282.395 17.41V22.5237H280.338V13.7964H282.304V15.2794H282.406C282.607 14.7907 282.927 14.4025 283.366 14.1146C283.81 13.8267 284.357 13.6828 285.009 13.6828C285.611 13.6828 286.135 13.8116 286.582 14.0691C287.033 14.3267 287.382 14.6998 287.628 15.1885C287.878 15.6771 288.001 16.2699 287.997 16.9669V22.5237H285.94V17.285C285.94 16.7017 285.789 16.2453 285.486 15.9157C285.187 15.5862 284.772 15.4214 284.241 15.4214C283.882 15.4214 283.562 15.501 283.281 15.66C283.005 15.8153 282.787 16.0407 282.628 16.3362C282.473 16.6316 282.395 16.9896 282.395 17.41ZM293.884 25.9782C293.145 25.9782 292.51 25.8778 291.98 25.6771C291.45 25.4801 291.024 25.215 290.702 24.8816C290.38 24.5483 290.156 24.179 290.031 23.7737L291.884 23.3248C291.967 23.4953 292.088 23.6638 292.247 23.8305C292.406 24.001 292.62 24.1411 292.889 24.251C293.162 24.3646 293.505 24.4214 293.918 24.4214C294.501 24.4214 294.984 24.2794 295.366 23.9953C295.749 23.715 295.94 23.2528 295.94 22.6089V20.9555H295.838C295.732 21.1676 295.577 21.3854 295.372 21.6089C295.171 21.8324 294.904 22.0199 294.571 22.1714C294.241 22.3229 293.827 22.3987 293.327 22.3987C292.656 22.3987 292.048 22.2415 291.503 21.9271C290.961 21.6089 290.529 21.1354 290.207 20.5066C289.889 19.8741 289.73 19.0824 289.73 18.1316C289.73 17.1733 289.889 16.3646 290.207 15.7055C290.529 15.0426 290.963 14.5407 291.509 14.1998C292.054 13.8551 292.662 13.6828 293.332 13.6828C293.844 13.6828 294.264 13.7699 294.594 13.9441C294.927 14.1146 295.192 14.321 295.389 14.5635C295.586 14.8021 295.736 15.0275 295.838 15.2396H295.952V13.7964H297.98V22.6657C297.98 23.4119 297.802 24.0294 297.446 24.518C297.09 25.0066 296.603 25.3722 295.986 25.6146C295.368 25.857 294.668 25.9782 293.884 25.9782ZM293.901 20.785C294.336 20.785 294.707 20.679 295.014 20.4669C295.321 20.2547 295.554 19.9498 295.713 19.5521C295.872 19.1544 295.952 18.6771 295.952 18.1203C295.952 17.571 295.872 17.09 295.713 16.6771C295.558 16.2642 295.327 15.9441 295.02 15.7169C294.717 15.4858 294.344 15.3703 293.901 15.3703C293.442 15.3703 293.06 15.4896 292.753 15.7282C292.446 15.9669 292.215 16.2945 292.06 16.7112C291.904 17.1241 291.827 17.5938 291.827 18.1203C291.827 18.6544 291.904 19.1222 292.06 19.5237C292.219 19.9214 292.452 20.232 292.759 20.4555C293.069 20.6752 293.45 20.785 293.901 20.785ZM306.256 10.8873V22.5237H304.148V10.8873H306.256ZM310.504 17.41V22.5237H308.447V13.7964H310.413V15.2794H310.516C310.716 14.7907 311.036 14.4025 311.476 14.1146C311.919 13.8267 312.466 13.6828 313.118 13.6828C313.72 13.6828 314.245 13.8116 314.692 14.0691C315.143 14.3267 315.491 14.6998 315.737 15.1885C315.987 15.6771 316.11 16.2699 316.107 16.9669V22.5237H314.05V17.285C314.05 16.7017 313.898 16.2453 313.595 15.9157C313.296 15.5862 312.881 15.4214 312.351 15.4214C311.991 15.4214 311.671 15.501 311.391 15.66C311.114 15.8153 310.896 16.0407 310.737 16.3362C310.582 16.6316 310.504 16.9896 310.504 17.41ZM322.618 13.7964V15.3873H317.459V13.7964H322.618ZM318.749 22.5237V12.9725C318.749 12.3854 318.87 11.8968 319.112 11.5066C319.358 11.1165 319.688 10.8248 320.101 10.6316C320.514 10.4385 320.972 10.3419 321.476 10.3419C321.832 10.3419 322.148 10.3703 322.425 10.4271C322.701 10.4839 322.906 10.535 323.038 10.5805L322.629 12.1714C322.542 12.1449 322.432 12.1184 322.3 12.0919C322.167 12.0616 322.019 12.0464 321.857 12.0464C321.474 12.0464 321.203 12.1392 321.044 12.3248C320.889 12.5066 320.811 12.768 320.811 13.1089V22.5237H318.749ZM327.707 22.6941C326.855 22.6941 326.116 22.5066 325.491 22.1316C324.866 21.7566 324.382 21.232 324.037 20.5578C323.696 19.8835 323.526 19.0957 323.526 18.1941C323.526 17.2926 323.696 16.5028 324.037 15.8248C324.382 15.1468 324.866 14.6203 325.491 14.2453C326.116 13.8703 326.855 13.6828 327.707 13.6828C328.56 13.6828 329.298 13.8703 329.923 14.2453C330.548 14.6203 331.031 15.1468 331.372 15.8248C331.717 16.5028 331.889 17.2926 331.889 18.1941C331.889 19.0957 331.717 19.8835 331.372 20.5578C331.031 21.232 330.548 21.7566 329.923 22.1316C329.298 22.5066 328.56 22.6941 327.707 22.6941ZM327.719 21.0464C328.181 21.0464 328.567 20.9195 328.878 20.6657C329.188 20.4082 329.42 20.0635 329.571 19.6316C329.726 19.1998 329.804 18.7188 329.804 18.1885C329.804 17.6544 329.726 17.1714 329.571 16.7396C329.42 16.304 329.188 15.9574 328.878 15.6998C328.567 15.4422 328.181 15.3135 327.719 15.3135C327.245 15.3135 326.851 15.4422 326.537 15.6998C326.226 15.9574 325.993 16.304 325.838 16.7396C325.687 17.1714 325.611 17.6544 325.611 18.1885C325.611 18.7188 325.687 19.1998 325.838 19.6316C325.993 20.0635 326.226 20.4082 326.537 20.6657C326.851 20.9195 327.245 21.0464 327.719 21.0464ZM333.635 22.5237V13.7964H335.629V15.251H335.72C335.879 14.7472 336.152 14.3589 336.538 14.0862C336.929 13.8097 337.374 13.6714 337.874 13.6714C337.987 13.6714 338.114 13.6771 338.254 13.6885C338.398 13.696 338.518 13.7093 338.612 13.7282V15.6203C338.525 15.59 338.387 15.5635 338.197 15.5407C338.012 15.5142 337.832 15.501 337.658 15.501C337.283 15.501 336.946 15.5824 336.646 15.7453C336.351 15.9044 336.118 16.126 335.947 16.41C335.777 16.6941 335.692 17.0218 335.692 17.393V22.5237H333.635ZM339.979 22.5237V13.7964H341.945V15.2794H342.047C342.229 14.7794 342.53 14.3892 342.95 14.1089C343.371 13.8248 343.873 13.6828 344.456 13.6828C345.047 13.6828 345.545 13.8267 345.95 14.1146C346.359 14.3987 346.647 14.7869 346.814 15.2794H346.905C347.098 14.7945 347.424 14.4082 347.882 14.1203C348.344 13.8286 348.892 13.6828 349.524 13.6828C350.327 13.6828 350.982 13.9366 351.49 14.4441C351.998 14.9517 352.251 15.6922 352.251 16.6657V22.5237H350.189V16.9839C350.189 16.4422 350.045 16.0464 349.757 15.7964C349.469 15.5426 349.117 15.4157 348.7 15.4157C348.204 15.4157 347.816 15.571 347.536 15.8816C347.259 16.1885 347.121 16.5881 347.121 17.0805V22.5237H345.104V16.8987C345.104 16.4479 344.967 16.0881 344.695 15.8191C344.426 15.5502 344.073 15.4157 343.638 15.4157C343.342 15.4157 343.073 15.4915 342.831 15.643C342.589 15.7907 342.395 16.001 342.251 16.2737C342.107 16.5426 342.036 16.857 342.036 17.2169V22.5237H339.979ZM356.849 22.6998C356.296 22.6998 355.798 22.6013 355.355 22.4044C354.916 22.2036 354.567 21.9082 354.31 21.518C354.056 21.1278 353.929 20.6468 353.929 20.0748C353.929 19.5824 354.02 19.1752 354.202 18.8532C354.384 18.5313 354.632 18.2737 354.946 18.0805C355.26 17.8873 355.615 17.7415 356.009 17.643C356.406 17.5407 356.817 17.4669 357.241 17.4214C357.753 17.3684 358.168 17.321 358.486 17.2794C358.804 17.2339 359.035 17.1657 359.179 17.0748C359.327 16.9801 359.401 16.8343 359.401 16.6373V16.6032C359.401 16.1752 359.274 15.8438 359.02 15.6089C358.766 15.3741 358.401 15.2566 357.923 15.2566C357.42 15.2566 357.02 15.3665 356.724 15.5862C356.433 15.8059 356.236 16.0653 356.134 16.3646L354.213 16.0919C354.365 15.5616 354.615 15.1184 354.963 14.7623C355.312 14.4025 355.738 14.1335 356.241 13.9555C356.745 13.7737 357.302 13.6828 357.912 13.6828C358.332 13.6828 358.751 13.732 359.168 13.8305C359.584 13.929 359.965 14.0919 360.31 14.3191C360.654 14.5426 360.931 14.8475 361.139 15.2339C361.351 15.6203 361.457 16.1032 361.457 16.6828V22.5237H359.48V21.3248H359.412C359.287 21.5672 359.111 21.7945 358.884 22.0066C358.66 22.215 358.378 22.3835 358.037 22.5123C357.7 22.6373 357.304 22.6998 356.849 22.6998ZM357.384 21.1885C357.796 21.1885 358.154 21.107 358.457 20.9441C358.76 20.7775 358.993 20.5578 359.156 20.285C359.323 20.0123 359.406 19.715 359.406 19.393V18.3646C359.342 18.4176 359.232 18.4669 359.077 18.5123C358.925 18.5578 358.755 18.5975 358.565 18.6316C358.376 18.6657 358.188 18.696 358.003 18.7225C357.817 18.7491 357.656 18.7718 357.52 18.7907C357.213 18.8324 356.938 18.9006 356.696 18.9953C356.454 19.09 356.262 19.2225 356.122 19.393C355.982 19.5597 355.912 19.7756 355.912 20.0407C355.912 20.4195 356.05 20.7055 356.327 20.8987C356.603 21.0919 356.955 21.1885 357.384 21.1885ZM367.884 13.7964V15.3873H362.866V13.7964H367.884ZM364.105 11.7055H366.162V19.8987C366.162 20.1752 366.204 20.3873 366.287 20.535C366.374 20.679 366.488 20.7775 366.628 20.8305C366.768 20.8835 366.923 20.91 367.094 20.91C367.223 20.91 367.34 20.9006 367.446 20.8816C367.556 20.8627 367.639 20.8457 367.696 20.8305L368.043 22.4385C367.933 22.4763 367.776 22.518 367.571 22.5635C367.37 22.6089 367.124 22.6354 366.832 22.643C366.317 22.6582 365.853 22.5805 365.44 22.41C365.027 22.2358 364.7 21.9669 364.457 21.6032C364.219 21.2396 364.101 20.785 364.105 20.2396V11.7055ZM369.604 22.5237V13.7964H371.661V22.5237H369.604ZM370.638 12.5578C370.312 12.5578 370.032 12.4498 369.797 12.2339C369.562 12.0142 369.445 11.751 369.445 11.4441C369.445 11.1335 369.562 10.8703 369.797 10.6544C370.032 10.4347 370.312 10.3248 370.638 10.3248C370.967 10.3248 371.248 10.4347 371.479 10.6544C371.714 10.8703 371.831 11.1335 371.831 11.4441C371.831 11.751 371.714 12.0142 371.479 12.2339C371.248 12.4498 370.967 12.5578 370.638 12.5578ZM377.582 22.6941C376.73 22.6941 375.991 22.5066 375.366 22.1316C374.741 21.7566 374.257 21.232 373.912 20.5578C373.571 19.8835 373.401 19.0957 373.401 18.1941C373.401 17.2926 373.571 16.5028 373.912 15.8248C374.257 15.1468 374.741 14.6203 375.366 14.2453C375.991 13.8703 376.73 13.6828 377.582 13.6828C378.435 13.6828 379.173 13.8703 379.798 14.2453C380.423 14.6203 380.906 15.1468 381.247 15.8248C381.592 16.5028 381.764 17.2926 381.764 18.1941C381.764 19.0957 381.592 19.8835 381.247 20.5578C380.906 21.232 380.423 21.7566 379.798 22.1316C379.173 22.5066 378.435 22.6941 377.582 22.6941ZM377.594 21.0464C378.056 21.0464 378.442 20.9195 378.753 20.6657C379.063 20.4082 379.295 20.0635 379.446 19.6316C379.601 19.1998 379.679 18.7188 379.679 18.1885C379.679 17.6544 379.601 17.1714 379.446 16.7396C379.295 16.304 379.063 15.9574 378.753 15.6998C378.442 15.4422 378.056 15.3135 377.594 15.3135C377.12 15.3135 376.726 15.4422 376.412 15.6998C376.101 15.9574 375.868 16.304 375.713 16.7396C375.562 17.1714 375.486 17.6544 375.486 18.1885C375.486 18.7188 375.562 19.1998 375.713 19.6316C375.868 20.0635 376.101 20.4082 376.412 20.6657C376.726 20.9195 377.12 21.0464 377.594 21.0464ZM385.567 17.41V22.5237H383.51V13.7964H385.476V15.2794H385.578C385.779 14.7907 386.099 14.4025 386.538 14.1146C386.982 13.8267 387.529 13.6828 388.18 13.6828C388.783 13.6828 389.307 13.8116 389.754 14.0691C390.205 14.3267 390.554 14.6998 390.8 15.1885C391.05 15.6771 391.173 16.2699 391.169 16.9669V22.5237H389.112V17.285C389.112 16.7017 388.961 16.2453 388.658 15.9157C388.358 15.5862 387.944 15.4214 387.413 15.4214C387.054 15.4214 386.733 15.501 386.453 15.66C386.177 15.8153 385.959 16.0407 385.8 16.3362C385.644 16.6316 385.567 16.9896 385.567 17.41Z" fill="#635EFD"/>
<path d="M227.065 22.5237V21.001L231.105 17.0407C231.491 16.6506 231.813 16.304 232.071 16.001C232.329 15.6979 232.522 15.4044 232.651 15.1203C232.779 14.8362 232.844 14.5332 232.844 14.2112C232.844 13.8438 232.76 13.5294 232.594 13.268C232.427 13.0028 232.198 12.7983 231.906 12.6544C231.615 12.5104 231.283 12.4385 230.912 12.4385C230.529 12.4385 230.194 12.518 229.906 12.6771C229.618 12.8324 229.395 13.054 229.236 13.3419C229.08 13.6297 229.003 13.9725 229.003 14.3703H226.997C226.997 13.6316 227.166 12.9896 227.503 12.4441C227.84 11.8987 228.304 11.4763 228.895 11.1771C229.49 10.8778 230.171 10.7282 230.94 10.7282C231.721 10.7282 232.406 10.8741 232.997 11.1657C233.588 11.4574 234.046 11.857 234.372 12.3646C234.702 12.8722 234.866 13.4517 234.866 14.1032C234.866 14.5388 234.783 14.9669 234.616 15.3873C234.45 15.8078 234.156 16.2737 233.736 16.785C233.319 17.2964 232.734 17.9157 231.98 18.643L229.974 20.6828V20.7623H235.043V22.5237H227.065Z" fill="#635EFD"/>
<circle cx="449" cy="16.5237" r="16" fill="#F5F6FA"/>
<path d="M478.409 10.8873H480.091L484.045 20.5464H484.182L488.136 10.8873H489.818V22.5237H488.5V13.6828H488.386L484.75 22.5237H483.477L479.841 13.6828H479.727V22.5237H478.409V10.8873ZM495.03 22.7282C494.477 22.7282 493.975 22.6241 493.524 22.4157C493.073 22.2036 492.715 21.8987 492.45 21.501C492.185 21.0994 492.053 20.6146 492.053 20.0464C492.053 19.5464 492.151 19.1411 492.348 18.8305C492.545 18.5161 492.808 18.2699 493.138 18.0919C493.467 17.9138 493.831 17.7813 494.229 17.6941C494.63 17.6032 495.034 17.5313 495.439 17.4782C495.969 17.41 496.399 17.3589 496.729 17.3248C497.062 17.2869 497.304 17.2244 497.456 17.1373C497.611 17.0502 497.689 16.8987 497.689 16.6828V16.6373C497.689 16.0767 497.536 15.6411 497.229 15.3305C496.926 15.0199 496.465 14.8646 495.848 14.8646C495.208 14.8646 494.706 15.0047 494.342 15.285C493.979 15.5653 493.723 15.8646 493.575 16.1828L492.303 15.7282C492.53 15.1979 492.833 14.785 493.212 14.4896C493.594 14.1903 494.011 13.982 494.462 13.8646C494.916 13.7434 495.363 13.6828 495.803 13.6828C496.083 13.6828 496.405 13.7169 496.768 13.785C497.136 13.8494 497.49 13.9839 497.831 14.1885C498.176 14.393 498.462 14.7017 498.689 15.1146C498.916 15.5275 499.03 16.0805 499.03 16.7737V22.5237H497.689V21.3419H497.621C497.53 21.5313 497.378 21.7339 497.166 21.9498C496.954 22.1657 496.672 22.3494 496.32 22.501C495.967 22.6525 495.537 22.7282 495.03 22.7282ZM495.234 21.5237C495.765 21.5237 496.212 21.4195 496.575 21.2112C496.943 21.0028 497.219 20.7339 497.405 20.4044C497.594 20.0748 497.689 19.7282 497.689 19.3646V18.1373C497.632 18.2055 497.507 18.268 497.314 18.3248C497.125 18.3778 496.905 18.4252 496.655 18.4669C496.409 18.5047 496.168 18.5388 495.933 18.5691C495.702 18.5957 495.515 18.6184 495.371 18.6373C495.022 18.6828 494.696 18.7566 494.393 18.8589C494.094 18.9574 493.852 19.107 493.666 19.3078C493.484 19.5047 493.393 19.7737 493.393 20.1146C493.393 20.5805 493.566 20.9328 493.911 21.1714C494.259 21.4063 494.7 21.5237 495.234 21.5237ZM501.477 22.5237V13.7964H502.818V22.5237H501.477ZM502.159 12.3419C501.898 12.3419 501.672 12.2528 501.483 12.0748C501.297 11.8968 501.205 11.6828 501.205 11.4328C501.205 11.1828 501.297 10.9688 501.483 10.7907C501.672 10.6127 501.898 10.5237 502.159 10.5237C502.42 10.5237 502.644 10.6127 502.83 10.7907C503.019 10.9688 503.114 11.1828 503.114 11.4328C503.114 11.6828 503.019 11.8968 502.83 12.0748C502.644 12.2528 502.42 12.3419 502.159 12.3419ZM506.615 17.2737V22.5237H505.274V13.7964H506.57V15.16H506.683C506.888 14.7169 507.198 14.3608 507.615 14.0919C508.032 13.8191 508.57 13.6828 509.229 13.6828C509.82 13.6828 510.337 13.804 510.78 14.0464C511.223 14.285 511.568 14.6487 511.814 15.1373C512.06 15.6222 512.183 16.2358 512.183 16.9782V22.5237H510.842V17.0691C510.842 16.3835 510.664 15.8494 510.308 15.4669C509.952 15.0805 509.464 14.8873 508.842 14.8873C508.414 14.8873 508.032 14.9801 507.695 15.1657C507.361 15.3513 507.098 15.6222 506.905 15.9782C506.712 16.3343 506.615 16.7661 506.615 17.2737ZM518.429 13.7964V14.9328H513.906V13.7964H518.429ZM515.224 11.7055H516.565V20.0237C516.565 20.4025 516.62 20.6866 516.73 20.876C516.844 21.0616 516.988 21.1866 517.162 21.251C517.34 21.3116 517.527 21.3419 517.724 21.3419C517.872 21.3419 517.993 21.3343 518.088 21.3191C518.183 21.3002 518.259 21.285 518.315 21.2737L518.588 22.4782C518.497 22.5123 518.37 22.5464 518.207 22.5805C518.045 22.6184 517.838 22.6373 517.588 22.6373C517.209 22.6373 516.838 22.5559 516.474 22.393C516.115 22.2301 515.815 21.982 515.577 21.6487C515.342 21.3153 515.224 20.8949 515.224 20.3873V11.7055ZM524.011 22.7055C523.17 22.7055 522.445 22.5199 521.835 22.1487C521.229 21.7737 520.761 21.251 520.432 20.5805C520.106 19.9063 519.943 19.1222 519.943 18.2282C519.943 17.3343 520.106 16.5464 520.432 15.8646C520.761 15.179 521.22 14.6449 521.807 14.2623C522.398 13.876 523.087 13.6828 523.875 13.6828C524.33 13.6828 524.778 13.7585 525.222 13.91C525.665 14.0616 526.068 14.3078 526.432 14.6487C526.795 14.9858 527.085 15.4328 527.301 15.9896C527.517 16.5464 527.625 17.232 527.625 18.0464V18.6146H520.898V17.4555H526.261C526.261 16.9631 526.163 16.5237 525.966 16.1373C525.773 15.751 525.496 15.446 525.136 15.2225C524.78 14.9991 524.36 14.8873 523.875 14.8873C523.341 14.8873 522.879 15.0199 522.489 15.285C522.102 15.5464 521.805 15.8873 521.597 16.3078C521.388 16.7282 521.284 17.179 521.284 17.66V18.4328C521.284 19.0919 521.398 19.6506 521.625 20.1089C521.856 20.5635 522.176 20.91 522.585 21.1487C522.994 21.3835 523.47 21.501 524.011 21.501C524.364 21.501 524.682 21.4517 524.966 21.3532C525.254 21.251 525.502 21.0994 525.71 20.8987C525.919 20.6941 526.08 20.4403 526.193 20.1373L527.489 20.501C527.352 20.9403 527.123 21.3267 526.801 21.66C526.479 21.9896 526.081 22.2472 525.608 22.4328C525.134 22.6146 524.602 22.7055 524.011 22.7055ZM531.006 17.2737V22.5237H529.665V13.7964H530.96V15.16H531.074C531.278 14.7169 531.589 14.3608 532.006 14.0919C532.422 13.8191 532.96 13.6828 533.619 13.6828C534.21 13.6828 534.727 13.804 535.17 14.0464C535.614 14.285 535.958 14.6487 536.205 15.1373C536.451 15.6222 536.574 16.2358 536.574 16.9782V22.5237H535.233V17.0691C535.233 16.3835 535.055 15.8494 534.699 15.4669C534.343 15.0805 533.854 14.8873 533.233 14.8873C532.805 14.8873 532.422 14.9801 532.085 15.1657C531.752 15.3513 531.489 15.6222 531.295 15.9782C531.102 16.3343 531.006 16.7661 531.006 17.2737ZM541.592 22.7282C541.039 22.7282 540.537 22.6241 540.087 22.4157C539.636 22.2036 539.278 21.8987 539.013 21.501C538.748 21.0994 538.615 20.6146 538.615 20.0464C538.615 19.5464 538.714 19.1411 538.911 18.8305C539.107 18.5161 539.371 18.2699 539.7 18.0919C540.03 17.9138 540.393 17.7813 540.791 17.6941C541.193 17.6032 541.596 17.5313 542.001 17.4782C542.532 17.41 542.962 17.3589 543.291 17.3248C543.625 17.2869 543.867 17.2244 544.018 17.1373C544.174 17.0502 544.251 16.8987 544.251 16.6828V16.6373C544.251 16.0767 544.098 15.6411 543.791 15.3305C543.488 15.0199 543.028 14.8646 542.411 14.8646C541.77 14.8646 541.268 15.0047 540.905 15.285C540.541 15.5653 540.286 15.8646 540.138 16.1828L538.865 15.7282C539.092 15.1979 539.395 14.785 539.774 14.4896C540.157 14.1903 540.573 13.982 541.024 13.8646C541.479 13.7434 541.926 13.6828 542.365 13.6828C542.645 13.6828 542.967 13.7169 543.331 13.785C543.698 13.8494 544.053 13.9839 544.393 14.1885C544.738 14.393 545.024 14.7017 545.251 15.1146C545.479 15.5275 545.592 16.0805 545.592 16.7737V22.5237H544.251V21.3419H544.183C544.092 21.5313 543.941 21.7339 543.729 21.9498C543.517 22.1657 543.234 22.3494 542.882 22.501C542.53 22.6525 542.1 22.7282 541.592 22.7282ZM541.797 21.5237C542.327 21.5237 542.774 21.4195 543.138 21.2112C543.505 21.0028 543.782 20.7339 543.967 20.4044C544.157 20.0748 544.251 19.7282 544.251 19.3646V18.1373C544.195 18.2055 544.07 18.268 543.876 18.3248C543.687 18.3778 543.467 18.4252 543.217 18.4669C542.971 18.5047 542.731 18.5388 542.496 18.5691C542.265 18.5957 542.077 18.6184 541.933 18.6373C541.585 18.6828 541.259 18.7566 540.956 18.8589C540.657 18.9574 540.414 19.107 540.229 19.3078C540.047 19.5047 539.956 19.7737 539.956 20.1146C539.956 20.5805 540.128 20.9328 540.473 21.1714C540.821 21.4063 541.263 21.5237 541.797 21.5237ZM549.381 17.2737V22.5237H548.04V13.7964H549.335V15.16H549.449C549.653 14.7169 549.964 14.3608 550.381 14.0919C550.797 13.8191 551.335 13.6828 551.994 13.6828C552.585 13.6828 553.102 13.804 553.545 14.0464C553.989 14.285 554.333 14.6487 554.58 15.1373C554.826 15.6222 554.949 16.2358 554.949 16.9782V22.5237H553.608V17.0691C553.608 16.3835 553.43 15.8494 553.074 15.4669C552.718 15.0805 552.229 14.8873 551.608 14.8873C551.18 14.8873 550.797 14.9801 550.46 15.1657C550.127 15.3513 549.864 15.6222 549.67 15.9782C549.477 16.3343 549.381 16.7661 549.381 17.2737ZM560.945 22.7055C560.126 22.7055 559.422 22.5123 558.831 22.126C558.24 21.7396 557.786 21.2074 557.467 20.5294C557.149 19.8513 556.99 19.0767 556.99 18.2055C556.99 17.3191 557.153 16.5369 557.479 15.8589C557.808 15.1771 558.267 14.6449 558.854 14.2623C559.445 13.876 560.134 13.6828 560.922 13.6828C561.536 13.6828 562.089 13.7964 562.581 14.0237C563.073 14.251 563.477 14.5691 563.791 14.9782C564.106 15.3873 564.301 15.8646 564.376 16.41H563.036C562.933 16.0123 562.706 15.66 562.354 15.3532C562.005 15.0426 561.536 14.8873 560.945 14.8873C560.422 14.8873 559.964 15.0237 559.57 15.2964C559.179 15.5653 558.875 15.946 558.655 16.4385C558.439 16.9271 558.331 17.501 558.331 18.16C558.331 18.8343 558.437 19.4214 558.649 19.9214C558.865 20.4214 559.168 20.8097 559.558 21.0862C559.952 21.3627 560.414 21.501 560.945 21.501C561.293 21.501 561.609 21.4403 561.893 21.3191C562.178 21.1979 562.418 21.0237 562.615 20.7964C562.812 20.5691 562.952 20.2964 563.036 19.9782H564.376C564.301 20.4934 564.113 20.9574 563.814 21.3703C563.518 21.7794 563.126 22.1051 562.638 22.3475C562.153 22.5862 561.589 22.7055 560.945 22.7055ZM569.996 22.7055C569.155 22.7055 568.429 22.5199 567.82 22.1487C567.214 21.7737 566.746 21.251 566.416 20.5805C566.09 19.9063 565.928 19.1222 565.928 18.2282C565.928 17.3343 566.09 16.5464 566.416 15.8646C566.746 15.179 567.204 14.6449 567.791 14.2623C568.382 13.876 569.071 13.6828 569.859 13.6828C570.314 13.6828 570.763 13.7585 571.206 13.91C571.649 14.0616 572.053 14.3078 572.416 14.6487C572.78 14.9858 573.07 15.4328 573.286 15.9896C573.501 16.5464 573.609 17.232 573.609 18.0464V18.6146H566.882V17.4555H572.246C572.246 16.9631 572.147 16.5237 571.95 16.1373C571.757 15.751 571.481 15.446 571.121 15.2225C570.765 14.9991 570.344 14.8873 569.859 14.8873C569.325 14.8873 568.863 15.0199 568.473 15.285C568.087 15.5464 567.789 15.8873 567.581 16.3078C567.373 16.7282 567.268 17.179 567.268 17.66V18.4328C567.268 19.0919 567.382 19.6506 567.609 20.1089C567.84 20.5635 568.161 20.91 568.57 21.1487C568.979 21.3835 569.454 21.501 569.996 21.501C570.348 21.501 570.666 21.4517 570.95 21.3532C571.238 21.251 571.486 21.0994 571.695 20.8987C571.903 20.6941 572.064 20.4403 572.178 20.1373L573.473 20.501C573.337 20.9403 573.107 21.3267 572.786 21.66C572.464 21.9896 572.066 22.2472 571.592 22.4328C571.119 22.6146 570.587 22.7055 569.996 22.7055ZM580.331 22.5237V10.8873H581.74V16.0691H587.945V10.8873H589.354V22.5237H587.945V17.3191H581.74V22.5237H580.331ZM595.652 22.7055C594.811 22.7055 594.086 22.5199 593.476 22.1487C592.87 21.7737 592.402 21.251 592.072 20.5805C591.747 19.9063 591.584 19.1222 591.584 18.2282C591.584 17.3343 591.747 16.5464 592.072 15.8646C592.402 15.179 592.86 14.6449 593.447 14.2623C594.038 13.876 594.728 13.6828 595.516 13.6828C595.97 13.6828 596.419 13.7585 596.862 13.91C597.305 14.0616 597.709 14.3078 598.072 14.6487C598.436 14.9858 598.726 15.4328 598.942 15.9896C599.158 16.5464 599.266 17.232 599.266 18.0464V18.6146H592.538V17.4555H597.902C597.902 16.9631 597.804 16.5237 597.607 16.1373C597.413 15.751 597.137 15.446 596.777 15.2225C596.421 14.9991 596 14.8873 595.516 14.8873C594.982 14.8873 594.519 15.0199 594.129 15.285C593.743 15.5464 593.446 15.8873 593.237 16.3078C593.029 16.7282 592.925 17.179 592.925 17.66V18.4328C592.925 19.0919 593.038 19.6506 593.266 20.1089C593.497 20.5635 593.817 20.91 594.226 21.1487C594.635 21.3835 595.11 21.501 595.652 21.501C596.004 21.501 596.322 21.4517 596.607 21.3532C596.894 21.251 597.143 21.0994 597.351 20.8987C597.559 20.6941 597.72 20.4403 597.834 20.1373L599.129 20.501C598.993 20.9403 598.764 21.3267 598.442 21.66C598.12 21.9896 597.722 22.2472 597.249 22.4328C596.775 22.6146 596.243 22.7055 595.652 22.7055ZM603.874 22.7282C603.321 22.7282 602.819 22.6241 602.368 22.4157C601.917 22.2036 601.559 21.8987 601.294 21.501C601.029 21.0994 600.896 20.6146 600.896 20.0464C600.896 19.5464 600.995 19.1411 601.192 18.8305C601.389 18.5161 601.652 18.2699 601.982 18.0919C602.311 17.9138 602.675 17.7813 603.072 17.6941C603.474 17.6032 603.877 17.5313 604.283 17.4782C604.813 17.41 605.243 17.3589 605.572 17.3248C605.906 17.2869 606.148 17.2244 606.3 17.1373C606.455 17.0502 606.533 16.8987 606.533 16.6828V16.6373C606.533 16.0767 606.379 15.6411 606.072 15.3305C605.769 15.0199 605.309 14.8646 604.692 14.8646C604.052 14.8646 603.55 15.0047 603.186 15.285C602.822 15.5653 602.567 15.8646 602.419 16.1828L601.146 15.7282C601.374 15.1979 601.677 14.785 602.055 14.4896C602.438 14.1903 602.855 13.982 603.305 13.8646C603.76 13.7434 604.207 13.6828 604.646 13.6828C604.927 13.6828 605.249 13.7169 605.612 13.785C605.98 13.8494 606.334 13.9839 606.675 14.1885C607.019 14.393 607.305 14.7017 607.533 15.1146C607.76 15.5275 607.874 16.0805 607.874 16.7737V22.5237H606.533V21.3419H606.464C606.374 21.5313 606.222 21.7339 606.01 21.9498C605.798 22.1657 605.516 22.3494 605.163 22.501C604.811 22.6525 604.381 22.7282 603.874 22.7282ZM604.078 21.5237C604.608 21.5237 605.055 21.4195 605.419 21.2112C605.786 21.0028 606.063 20.7339 606.249 20.4044C606.438 20.0748 606.533 19.7282 606.533 19.3646V18.1373C606.476 18.2055 606.351 18.268 606.158 18.3248C605.968 18.3778 605.749 18.4252 605.499 18.4669C605.252 18.5047 605.012 18.5388 604.777 18.5691C604.546 18.5957 604.358 18.6184 604.214 18.6373C603.866 18.6828 603.54 18.7566 603.237 18.8589C602.938 18.9574 602.696 19.107 602.51 19.3078C602.328 19.5047 602.237 19.7737 602.237 20.1146C602.237 20.5805 602.41 20.9328 602.754 21.1714C603.103 21.4063 603.544 21.5237 604.078 21.5237ZM613.616 22.7055C612.889 22.7055 612.247 22.5218 611.69 22.1544C611.134 21.7832 610.698 21.2604 610.384 20.5862C610.069 19.9082 609.912 19.107 609.912 18.1828C609.912 17.2661 610.069 16.4707 610.384 15.7964C610.698 15.1222 611.135 14.6013 611.696 14.2339C612.257 13.8665 612.904 13.6828 613.639 13.6828C614.207 13.6828 614.656 13.7775 614.986 13.9669C615.319 14.1525 615.573 14.3646 615.747 14.6032C615.925 14.8381 616.063 15.0313 616.162 15.1828H616.276V10.8873H617.616V22.5237H616.321V21.1828H616.162C616.063 21.3419 615.923 21.5426 615.741 21.785C615.56 22.0237 615.3 22.2377 614.963 22.4271C614.626 22.6127 614.177 22.7055 613.616 22.7055ZM613.798 21.501C614.336 21.501 614.791 21.3608 615.162 21.0805C615.533 20.7964 615.815 20.4044 616.009 19.9044C616.202 19.4006 616.298 18.8191 616.298 18.16C616.298 17.5085 616.204 16.9385 616.014 16.4498C615.825 15.9574 615.545 15.5748 615.173 15.3021C614.802 15.0256 614.344 14.8873 613.798 14.8873C613.23 14.8873 612.757 15.0332 612.378 15.3248C612.003 15.6127 611.721 16.0047 611.531 16.501C611.346 16.9934 611.253 17.5464 611.253 18.16C611.253 18.7813 611.348 19.3457 611.537 19.8532C611.73 20.357 612.014 20.7585 612.389 21.0578C612.768 21.3532 613.238 21.501 613.798 21.501ZM626.44 15.751L625.236 16.0919C625.16 15.8911 625.048 15.696 624.901 15.5066C624.757 15.3135 624.56 15.1544 624.31 15.0294C624.06 14.9044 623.74 14.8419 623.349 14.8419C622.815 14.8419 622.37 14.965 622.014 15.2112C621.662 15.4536 621.486 15.7623 621.486 16.1373C621.486 16.4707 621.607 16.7339 621.849 16.9271C622.092 17.1203 622.471 17.2813 622.986 17.41L624.281 17.7282C625.062 17.9176 625.643 18.2074 626.026 18.5975C626.408 18.9839 626.599 19.482 626.599 20.0919C626.599 20.5919 626.455 21.0388 626.168 21.4328C625.884 21.8267 625.486 22.1373 624.974 22.3646C624.463 22.5919 623.868 22.7055 623.19 22.7055C622.3 22.7055 621.563 22.5123 620.98 22.126C620.397 21.7396 620.027 21.1752 619.872 20.4328L621.145 20.1146C621.266 20.5843 621.495 20.9366 621.832 21.1714C622.173 21.4063 622.618 21.5237 623.168 21.5237C623.793 21.5237 624.289 21.3911 624.656 21.126C625.027 20.857 625.213 20.535 625.213 20.16C625.213 19.857 625.107 19.6032 624.895 19.3987C624.683 19.1903 624.357 19.035 623.918 18.9328L622.463 18.5919C621.664 18.4025 621.077 18.1089 620.702 17.7112C620.33 17.3097 620.145 16.8078 620.145 16.2055C620.145 15.7131 620.283 15.2775 620.56 14.8987C620.84 14.5199 621.221 14.2225 621.702 14.0066C622.187 13.7907 622.736 13.6828 623.349 13.6828C624.213 13.6828 624.891 13.8722 625.384 14.251C625.88 14.6297 626.232 15.1297 626.44 15.751Z" fill="#5A607F"/>
<path d="M449.043 22.6828C448.293 22.6828 447.624 22.554 447.037 22.2964C446.454 22.0388 445.99 21.6809 445.645 21.2225C445.304 20.7604 445.118 20.2244 445.088 19.6146H446.52C446.55 19.9896 446.679 20.3135 446.906 20.5862C447.134 20.8551 447.431 21.0635 447.798 21.2112C448.166 21.3589 448.573 21.4328 449.02 21.4328C449.52 21.4328 449.963 21.3457 450.349 21.1714C450.736 20.9972 451.039 20.7547 451.259 20.4441C451.478 20.1335 451.588 19.7737 451.588 19.3646C451.588 18.9366 451.482 18.5597 451.27 18.2339C451.058 17.9044 450.747 17.6468 450.338 17.4612C449.929 17.2756 449.429 17.1828 448.838 17.1828H447.906V15.9328H448.838C449.3 15.9328 449.705 15.8494 450.054 15.6828C450.406 15.5161 450.681 15.2813 450.878 14.9782C451.079 14.6752 451.179 14.3191 451.179 13.91C451.179 13.5161 451.092 13.1733 450.918 12.8816C450.743 12.59 450.497 12.3627 450.179 12.1998C449.865 12.0369 449.493 11.9555 449.065 11.9555C448.664 11.9555 448.285 12.0294 447.929 12.1771C447.577 12.321 447.289 12.5313 447.065 12.8078C446.842 13.0805 446.721 13.41 446.702 13.7964H445.338C445.361 13.1866 445.545 12.6525 445.889 12.1941C446.234 11.732 446.685 11.3722 447.241 11.1146C447.802 10.857 448.418 10.7282 449.088 10.7282C449.808 10.7282 450.425 10.8741 450.94 11.1657C451.455 11.4536 451.851 11.8343 452.128 12.3078C452.404 12.7813 452.543 13.2926 452.543 13.8419C452.543 14.4972 452.37 15.0559 452.026 15.518C451.685 15.9801 451.221 16.3002 450.634 16.4782V16.5691C451.368 16.6903 451.942 17.0028 452.355 17.5066C452.768 18.0066 452.974 18.626 452.974 19.3646C452.974 19.9972 452.802 20.5653 452.457 21.0691C452.116 21.5691 451.651 21.9631 451.06 22.251C450.469 22.5388 449.796 22.6828 449.043 22.6828Z" fill="#A1A7C4"/>
<circle cx="684" cy="16.5237" r="16" fill="#F5F6FA"/>
<path d="M713.409 10.8873H715.091L719.045 20.5464H719.182L723.136 10.8873H724.818V22.5237H723.5V13.6828H723.386L719.75 22.5237H718.477L714.841 13.6828H714.727V22.5237H713.409V10.8873ZM730.03 22.7282C729.477 22.7282 728.975 22.6241 728.524 22.4157C728.073 22.2036 727.715 21.8987 727.45 21.501C727.185 21.0994 727.053 20.6146 727.053 20.0464C727.053 19.5464 727.151 19.1411 727.348 18.8305C727.545 18.5161 727.808 18.2699 728.138 18.0919C728.467 17.9138 728.831 17.7813 729.229 17.6941C729.63 17.6032 730.034 17.5313 730.439 17.4782C730.969 17.41 731.399 17.3589 731.729 17.3248C732.062 17.2869 732.304 17.2244 732.456 17.1373C732.611 17.0502 732.689 16.8987 732.689 16.6828V16.6373C732.689 16.0767 732.536 15.6411 732.229 15.3305C731.926 15.0199 731.465 14.8646 730.848 14.8646C730.208 14.8646 729.706 15.0047 729.342 15.285C728.979 15.5653 728.723 15.8646 728.575 16.1828L727.303 15.7282C727.53 15.1979 727.833 14.785 728.212 14.4896C728.594 14.1903 729.011 13.982 729.462 13.8646C729.916 13.7434 730.363 13.6828 730.803 13.6828C731.083 13.6828 731.405 13.7169 731.768 13.785C732.136 13.8494 732.49 13.9839 732.831 14.1885C733.176 14.393 733.462 14.7017 733.689 15.1146C733.916 15.5275 734.03 16.0805 734.03 16.7737V22.5237H732.689V21.3419H732.621C732.53 21.5313 732.378 21.7339 732.166 21.9498C731.954 22.1657 731.672 22.3494 731.32 22.501C730.967 22.6525 730.537 22.7282 730.03 22.7282ZM730.234 21.5237C730.765 21.5237 731.212 21.4195 731.575 21.2112C731.943 21.0028 732.219 20.7339 732.405 20.4044C732.594 20.0748 732.689 19.7282 732.689 19.3646V18.1373C732.632 18.2055 732.507 18.268 732.314 18.3248C732.125 18.3778 731.905 18.4252 731.655 18.4669C731.409 18.5047 731.168 18.5388 730.933 18.5691C730.702 18.5957 730.515 18.6184 730.371 18.6373C730.022 18.6828 729.696 18.7566 729.393 18.8589C729.094 18.9574 728.852 19.107 728.666 19.3078C728.484 19.5047 728.393 19.7737 728.393 20.1146C728.393 20.5805 728.566 20.9328 728.911 21.1714C729.259 21.4063 729.7 21.5237 730.234 21.5237ZM736.477 22.5237V13.7964H737.818V22.5237H736.477ZM737.159 12.3419C736.898 12.3419 736.672 12.2528 736.483 12.0748C736.297 11.8968 736.205 11.6828 736.205 11.4328C736.205 11.1828 736.297 10.9688 736.483 10.7907C736.672 10.6127 736.898 10.5237 737.159 10.5237C737.42 10.5237 737.644 10.6127 737.83 10.7907C738.019 10.9688 738.114 11.1828 738.114 11.4328C738.114 11.6828 738.019 11.8968 737.83 12.0748C737.644 12.2528 737.42 12.3419 737.159 12.3419ZM741.615 17.2737V22.5237H740.274V13.7964H741.57V15.16H741.683C741.888 14.7169 742.198 14.3608 742.615 14.0919C743.032 13.8191 743.57 13.6828 744.229 13.6828C744.82 13.6828 745.337 13.804 745.78 14.0464C746.223 14.285 746.568 14.6487 746.814 15.1373C747.06 15.6222 747.183 16.2358 747.183 16.9782V22.5237H745.842V17.0691C745.842 16.3835 745.664 15.8494 745.308 15.4669C744.952 15.0805 744.464 14.8873 743.842 14.8873C743.414 14.8873 743.032 14.9801 742.695 15.1657C742.361 15.3513 742.098 15.6222 741.905 15.9782C741.712 16.3343 741.615 16.7661 741.615 17.2737ZM753.429 13.7964V14.9328H748.906V13.7964H753.429ZM750.224 11.7055H751.565V20.0237C751.565 20.4025 751.62 20.6866 751.73 20.876C751.844 21.0616 751.988 21.1866 752.162 21.251C752.34 21.3116 752.527 21.3419 752.724 21.3419C752.872 21.3419 752.993 21.3343 753.088 21.3191C753.183 21.3002 753.259 21.285 753.315 21.2737L753.588 22.4782C753.497 22.5123 753.37 22.5464 753.207 22.5805C753.045 22.6184 752.838 22.6373 752.588 22.6373C752.209 22.6373 751.838 22.5559 751.474 22.393C751.115 22.2301 750.815 21.982 750.577 21.6487C750.342 21.3153 750.224 20.8949 750.224 20.3873V11.7055ZM759.011 22.7055C758.17 22.7055 757.445 22.5199 756.835 22.1487C756.229 21.7737 755.761 21.251 755.432 20.5805C755.106 19.9063 754.943 19.1222 754.943 18.2282C754.943 17.3343 755.106 16.5464 755.432 15.8646C755.761 15.179 756.22 14.6449 756.807 14.2623C757.398 13.876 758.087 13.6828 758.875 13.6828C759.33 13.6828 759.778 13.7585 760.222 13.91C760.665 14.0616 761.068 14.3078 761.432 14.6487C761.795 14.9858 762.085 15.4328 762.301 15.9896C762.517 16.5464 762.625 17.232 762.625 18.0464V18.6146H755.898V17.4555H761.261C761.261 16.9631 761.163 16.5237 760.966 16.1373C760.773 15.751 760.496 15.446 760.136 15.2225C759.78 14.9991 759.36 14.8873 758.875 14.8873C758.341 14.8873 757.879 15.0199 757.489 15.285C757.102 15.5464 756.805 15.8873 756.597 16.3078C756.388 16.7282 756.284 17.179 756.284 17.66V18.4328C756.284 19.0919 756.398 19.6506 756.625 20.1089C756.856 20.5635 757.176 20.91 757.585 21.1487C757.994 21.3835 758.47 21.501 759.011 21.501C759.364 21.501 759.682 21.4517 759.966 21.3532C760.254 21.251 760.502 21.0994 760.71 20.8987C760.919 20.6941 761.08 20.4403 761.193 20.1373L762.489 20.501C762.352 20.9403 762.123 21.3267 761.801 21.66C761.479 21.9896 761.081 22.2472 760.608 22.4328C760.134 22.6146 759.602 22.7055 759.011 22.7055ZM766.006 17.2737V22.5237H764.665V13.7964H765.96V15.16H766.074C766.278 14.7169 766.589 14.3608 767.006 14.0919C767.422 13.8191 767.96 13.6828 768.619 13.6828C769.21 13.6828 769.727 13.804 770.17 14.0464C770.614 14.285 770.958 14.6487 771.205 15.1373C771.451 15.6222 771.574 16.2358 771.574 16.9782V22.5237H770.233V17.0691C770.233 16.3835 770.055 15.8494 769.699 15.4669C769.343 15.0805 768.854 14.8873 768.233 14.8873C767.805 14.8873 767.422 14.9801 767.085 15.1657C766.752 15.3513 766.489 15.6222 766.295 15.9782C766.102 16.3343 766.006 16.7661 766.006 17.2737ZM776.592 22.7282C776.039 22.7282 775.537 22.6241 775.087 22.4157C774.636 22.2036 774.278 21.8987 774.013 21.501C773.748 21.0994 773.615 20.6146 773.615 20.0464C773.615 19.5464 773.714 19.1411 773.911 18.8305C774.107 18.5161 774.371 18.2699 774.7 18.0919C775.03 17.9138 775.393 17.7813 775.791 17.6941C776.193 17.6032 776.596 17.5313 777.001 17.4782C777.532 17.41 777.962 17.3589 778.291 17.3248C778.625 17.2869 778.867 17.2244 779.018 17.1373C779.174 17.0502 779.251 16.8987 779.251 16.6828V16.6373C779.251 16.0767 779.098 15.6411 778.791 15.3305C778.488 15.0199 778.028 14.8646 777.411 14.8646C776.77 14.8646 776.268 15.0047 775.905 15.285C775.541 15.5653 775.286 15.8646 775.138 16.1828L773.865 15.7282C774.092 15.1979 774.395 14.785 774.774 14.4896C775.157 14.1903 775.573 13.982 776.024 13.8646C776.479 13.7434 776.926 13.6828 777.365 13.6828C777.645 13.6828 777.967 13.7169 778.331 13.785C778.698 13.8494 779.053 13.9839 779.393 14.1885C779.738 14.393 780.024 14.7017 780.251 15.1146C780.479 15.5275 780.592 16.0805 780.592 16.7737V22.5237H779.251V21.3419H779.183C779.092 21.5313 778.941 21.7339 778.729 21.9498C778.517 22.1657 778.234 22.3494 777.882 22.501C777.53 22.6525 777.1 22.7282 776.592 22.7282ZM776.797 21.5237C777.327 21.5237 777.774 21.4195 778.138 21.2112C778.505 21.0028 778.782 20.7339 778.967 20.4044C779.157 20.0748 779.251 19.7282 779.251 19.3646V18.1373C779.195 18.2055 779.07 18.268 778.876 18.3248C778.687 18.3778 778.467 18.4252 778.217 18.4669C777.971 18.5047 777.731 18.5388 777.496 18.5691C777.265 18.5957 777.077 18.6184 776.933 18.6373C776.585 18.6828 776.259 18.7566 775.956 18.8589C775.657 18.9574 775.414 19.107 775.229 19.3078C775.047 19.5047 774.956 19.7737 774.956 20.1146C774.956 20.5805 775.128 20.9328 775.473 21.1714C775.821 21.4063 776.263 21.5237 776.797 21.5237ZM784.381 17.2737V22.5237H783.04V13.7964H784.335V15.16H784.449C784.653 14.7169 784.964 14.3608 785.381 14.0919C785.797 13.8191 786.335 13.6828 786.994 13.6828C787.585 13.6828 788.102 13.804 788.545 14.0464C788.989 14.285 789.333 14.6487 789.58 15.1373C789.826 15.6222 789.949 16.2358 789.949 16.9782V22.5237H788.608V17.0691C788.608 16.3835 788.43 15.8494 788.074 15.4669C787.718 15.0805 787.229 14.8873 786.608 14.8873C786.18 14.8873 785.797 14.9801 785.46 15.1657C785.127 15.3513 784.864 15.6222 784.67 15.9782C784.477 16.3343 784.381 16.7661 784.381 17.2737ZM795.945 22.7055C795.126 22.7055 794.422 22.5123 793.831 22.126C793.24 21.7396 792.786 21.2074 792.467 20.5294C792.149 19.8513 791.99 19.0767 791.99 18.2055C791.99 17.3191 792.153 16.5369 792.479 15.8589C792.808 15.1771 793.267 14.6449 793.854 14.2623C794.445 13.876 795.134 13.6828 795.922 13.6828C796.536 13.6828 797.089 13.7964 797.581 14.0237C798.073 14.251 798.477 14.5691 798.791 14.9782C799.106 15.3873 799.301 15.8646 799.376 16.41H798.036C797.933 16.0123 797.706 15.66 797.354 15.3532C797.005 15.0426 796.536 14.8873 795.945 14.8873C795.422 14.8873 794.964 15.0237 794.57 15.2964C794.179 15.5653 793.875 15.946 793.655 16.4385C793.439 16.9271 793.331 17.501 793.331 18.16C793.331 18.8343 793.437 19.4214 793.649 19.9214C793.865 20.4214 794.168 20.8097 794.558 21.0862C794.952 21.3627 795.414 21.501 795.945 21.501C796.293 21.501 796.609 21.4403 796.893 21.3191C797.178 21.1979 797.418 21.0237 797.615 20.7964C797.812 20.5691 797.952 20.2964 798.036 19.9782H799.376C799.301 20.4934 799.113 20.9574 798.814 21.3703C798.518 21.7794 798.126 22.1051 797.638 22.3475C797.153 22.5862 796.589 22.7055 795.945 22.7055ZM804.996 22.7055C804.155 22.7055 803.429 22.5199 802.82 22.1487C802.214 21.7737 801.746 21.251 801.416 20.5805C801.09 19.9063 800.928 19.1222 800.928 18.2282C800.928 17.3343 801.09 16.5464 801.416 15.8646C801.746 15.179 802.204 14.6449 802.791 14.2623C803.382 13.876 804.071 13.6828 804.859 13.6828C805.314 13.6828 805.763 13.7585 806.206 13.91C806.649 14.0616 807.053 14.3078 807.416 14.6487C807.78 14.9858 808.07 15.4328 808.286 15.9896C808.501 16.5464 808.609 17.232 808.609 18.0464V18.6146H801.882V17.4555H807.246C807.246 16.9631 807.147 16.5237 806.95 16.1373C806.757 15.751 806.481 15.446 806.121 15.2225C805.765 14.9991 805.344 14.8873 804.859 14.8873C804.325 14.8873 803.863 15.0199 803.473 15.285C803.087 15.5464 802.789 15.8873 802.581 16.3078C802.373 16.7282 802.268 17.179 802.268 17.66V18.4328C802.268 19.0919 802.382 19.6506 802.609 20.1089C802.84 20.5635 803.161 20.91 803.57 21.1487C803.979 21.3835 804.454 21.501 804.996 21.501C805.348 21.501 805.666 21.4517 805.95 21.3532C806.238 21.251 806.486 21.0994 806.695 20.8987C806.903 20.6941 807.064 20.4403 807.178 20.1373L808.473 20.501C808.337 20.9403 808.107 21.3267 807.786 21.66C807.464 21.9896 807.066 22.2472 806.592 22.4328C806.119 22.6146 805.587 22.7055 804.996 22.7055ZM817.717 22.7282C817.164 22.7282 816.662 22.6241 816.212 22.4157C815.761 22.2036 815.403 21.8987 815.138 21.501C814.873 21.0994 814.74 20.6146 814.74 20.0464C814.74 19.5464 814.839 19.1411 815.036 18.8305C815.232 18.5161 815.496 18.2699 815.825 18.0919C816.155 17.9138 816.518 17.7813 816.916 17.6941C817.318 17.6032 817.721 17.5313 818.126 17.4782C818.657 17.41 819.087 17.3589 819.416 17.3248C819.75 17.2869 819.992 17.2244 820.143 17.1373C820.299 17.0502 820.376 16.8987 820.376 16.6828V16.6373C820.376 16.0767 820.223 15.6411 819.916 15.3305C819.613 15.0199 819.153 14.8646 818.536 14.8646C817.895 14.8646 817.393 15.0047 817.03 15.285C816.666 15.5653 816.411 15.8646 816.263 16.1828L814.99 15.7282C815.217 15.1979 815.52 14.785 815.899 14.4896C816.282 14.1903 816.698 13.982 817.149 13.8646C817.604 13.7434 818.051 13.6828 818.49 13.6828C818.77 13.6828 819.092 13.7169 819.456 13.785C819.823 13.8494 820.178 13.9839 820.518 14.1885C820.863 14.393 821.149 14.7017 821.376 15.1146C821.604 15.5275 821.717 16.0805 821.717 16.7737V22.5237H820.376V21.3419H820.308C820.217 21.5313 820.066 21.7339 819.854 21.9498C819.642 22.1657 819.359 22.3494 819.007 22.501C818.655 22.6525 818.225 22.7282 817.717 22.7282ZM817.922 21.5237C818.452 21.5237 818.899 21.4195 819.263 21.2112C819.63 21.0028 819.907 20.7339 820.092 20.4044C820.282 20.0748 820.376 19.7282 820.376 19.3646V18.1373C820.32 18.2055 820.195 18.268 820.001 18.3248C819.812 18.3778 819.592 18.4252 819.342 18.4669C819.096 18.5047 818.856 18.5388 818.621 18.5691C818.39 18.5957 818.202 18.6184 818.058 18.6373C817.71 18.6828 817.384 18.7566 817.081 18.8589C816.782 18.9574 816.539 19.107 816.354 19.3078C816.172 19.5047 816.081 19.7737 816.081 20.1146C816.081 20.5805 816.253 20.9328 816.598 21.1714C816.946 21.4063 817.388 21.5237 817.922 21.5237ZM824.165 22.5237V13.7964H825.46V15.16H825.574C825.756 14.6941 826.049 14.3324 826.455 14.0748C826.86 13.8135 827.347 13.6828 827.915 13.6828C828.491 13.6828 828.97 13.8135 829.352 14.0748C829.739 14.3324 830.04 14.6941 830.256 15.16H830.347C830.57 14.7093 830.905 14.3513 831.352 14.0862C831.799 13.8172 832.335 13.6828 832.96 13.6828C833.741 13.6828 834.379 13.9271 834.875 14.4157C835.371 14.9006 835.619 15.6563 835.619 16.6828V22.5237H834.278V16.6828C834.278 16.0388 834.102 15.5786 833.75 15.3021C833.398 15.0256 832.983 14.8873 832.506 14.8873C831.892 14.8873 831.417 15.0729 831.08 15.4441C830.742 15.8116 830.574 16.2775 830.574 16.8419V22.5237H829.21V16.5464C829.21 16.0502 829.049 15.6506 828.727 15.3475C828.405 15.0407 827.991 14.8873 827.483 14.8873C827.134 14.8873 826.809 14.9801 826.506 15.1657C826.206 15.3513 825.964 15.6089 825.778 15.9385C825.597 16.2642 825.506 16.6411 825.506 17.0691V22.5237H824.165ZM841.616 22.7055C840.829 22.7055 840.137 22.518 839.543 22.143C838.952 21.768 838.49 21.2434 838.156 20.5691C837.827 19.8949 837.662 19.107 837.662 18.2055C837.662 17.2964 837.827 16.5028 838.156 15.8248C838.49 15.1468 838.952 14.6203 839.543 14.2453C840.137 13.8703 840.829 13.6828 841.616 13.6828C842.404 13.6828 843.094 13.8703 843.685 14.2453C844.279 14.6203 844.741 15.1468 845.071 15.8248C845.404 16.5028 845.571 17.2964 845.571 18.2055C845.571 19.107 845.404 19.8949 845.071 20.5691C844.741 21.2434 844.279 21.768 843.685 22.143C843.094 22.518 842.404 22.7055 841.616 22.7055ZM841.616 21.501C842.215 21.501 842.707 21.3475 843.094 21.0407C843.48 20.7339 843.766 20.3305 843.952 19.8305C844.137 19.3305 844.23 18.7888 844.23 18.2055C844.23 17.6222 844.137 17.0786 843.952 16.5748C843.766 16.071 843.48 15.6638 843.094 15.3532C842.707 15.0426 842.215 14.8873 841.616 14.8873C841.018 14.8873 840.526 15.0426 840.139 15.3532C839.753 15.6638 839.467 16.071 839.281 16.5748C839.096 17.0786 839.003 17.6222 839.003 18.2055C839.003 18.7888 839.096 19.3305 839.281 19.8305C839.467 20.3305 839.753 20.7339 840.139 21.0407C840.526 21.3475 841.018 21.501 841.616 21.501ZM853.118 18.9555V13.7964H854.459V22.5237H853.118V21.0464H853.027C852.822 21.4896 852.504 21.8665 852.072 22.1771C851.641 22.4839 851.095 22.6373 850.436 22.6373C849.891 22.6373 849.406 22.518 848.982 22.2794C848.557 22.0369 848.224 21.6733 847.982 21.1885C847.739 20.6998 847.618 20.0843 847.618 19.3419V13.7964H848.959V19.251C848.959 19.8873 849.137 20.3949 849.493 20.7737C849.853 21.1525 850.311 21.3419 850.868 21.3419C851.201 21.3419 851.54 21.2566 851.885 21.0862C852.233 20.9157 852.525 20.6544 852.76 20.3021C852.999 19.9498 853.118 19.501 853.118 18.9555ZM858.256 17.2737V22.5237H856.915V13.7964H858.21V15.16H858.324C858.528 14.7169 858.839 14.3608 859.256 14.0919C859.672 13.8191 860.21 13.6828 860.869 13.6828C861.46 13.6828 861.977 13.804 862.42 14.0464C862.864 14.285 863.208 14.6487 863.455 15.1373C863.701 15.6222 863.824 16.2358 863.824 16.9782V22.5237H862.483V17.0691C862.483 16.3835 862.305 15.8494 861.949 15.4669C861.593 15.0805 861.104 14.8873 860.483 14.8873C860.055 14.8873 859.672 14.9801 859.335 15.1657C859.002 15.3513 858.739 15.6222 858.545 15.9782C858.352 16.3343 858.256 16.7661 858.256 17.2737ZM870.07 13.7964V14.9328H865.547V13.7964H870.07ZM866.865 11.7055H868.206V20.0237C868.206 20.4025 868.261 20.6866 868.371 20.876C868.484 21.0616 868.628 21.1866 868.803 21.251C868.981 21.3116 869.168 21.3419 869.365 21.3419C869.513 21.3419 869.634 21.3343 869.729 21.3191C869.823 21.3002 869.899 21.285 869.956 21.2737L870.229 22.4782C870.138 22.5123 870.011 22.5464 869.848 22.5805C869.685 22.6184 869.479 22.6373 869.229 22.6373C868.85 22.6373 868.479 22.5559 868.115 22.393C867.755 22.2301 867.456 21.982 867.217 21.6487C866.982 21.3153 866.865 20.8949 866.865 20.3873V11.7055Z" fill="#5A607F"/>
<path d="M684.043 22.6828C683.293 22.6828 682.624 22.554 682.037 22.2964C681.454 22.0388 680.99 21.6809 680.645 21.2225C680.304 20.7604 680.118 20.2244 680.088 19.6146H681.52C681.55 19.9896 681.679 20.3135 681.906 20.5862C682.134 20.8551 682.431 21.0635 682.798 21.2112C683.166 21.3589 683.573 21.4328 684.02 21.4328C684.52 21.4328 684.963 21.3457 685.349 21.1714C685.736 20.9972 686.039 20.7547 686.259 20.4441C686.478 20.1335 686.588 19.7737 686.588 19.3646C686.588 18.9366 686.482 18.5597 686.27 18.2339C686.058 17.9044 685.747 17.6468 685.338 17.4612C684.929 17.2756 684.429 17.1828 683.838 17.1828H682.906V15.9328H683.838C684.3 15.9328 684.705 15.8494 685.054 15.6828C685.406 15.5161 685.681 15.2813 685.878 14.9782C686.079 14.6752 686.179 14.3191 686.179 13.91C686.179 13.5161 686.092 13.1733 685.918 12.8816C685.743 12.59 685.497 12.3627 685.179 12.1998C684.865 12.0369 684.493 11.9555 684.065 11.9555C683.664 11.9555 683.285 12.0294 682.929 12.1771C682.577 12.321 682.289 12.5313 682.065 12.8078C681.842 13.0805 681.721 13.41 681.702 13.7964H680.338C680.361 13.1866 680.545 12.6525 680.889 12.1941C681.234 11.732 681.685 11.3722 682.241 11.1146C682.802 10.857 683.418 10.7282 684.088 10.7282C684.808 10.7282 685.425 10.8741 685.94 11.1657C686.455 11.4536 686.851 11.8343 687.128 12.3078C687.404 12.7813 687.543 13.2926 687.543 13.8419C687.543 14.4972 687.37 15.0559 687.026 15.518C686.685 15.9801 686.221 16.3002 685.634 16.4782V16.5691C686.368 16.6903 686.942 17.0028 687.355 17.5066C687.768 18.0066 687.974 18.626 687.974 19.3646C687.974 19.9972 687.802 20.5653 687.457 21.0691C687.116 21.5691 686.651 21.9631 686.06 22.251C685.469 22.5388 684.796 22.6828 684.043 22.6828Z" fill="#A1A7C4"/>
</svg>
