<svg width="25" height="26" viewBox="0 0 25 26" fill="none" xmlns="http://www.w3.org/2000/svg">
<g clip-path="url(#clip0_9_3422)">
<path d="M12.3218 12.5663C13.9762 12.5663 15.4088 11.9729 16.5794 10.8022C17.7499 9.63162 18.3433 8.19939 18.3433 6.54478C18.3433 4.89073 17.7499 3.45832 16.5792 2.2874C15.4085 1.11706 13.976 0.523682 12.3218 0.523682C10.6672 0.523682 9.23494 1.11706 8.0644 2.28759C6.89386 3.45813 6.30029 4.89054 6.30029 6.54478C6.30029 8.19939 6.89386 9.63181 8.06459 10.8023C9.23532 11.9727 10.6677 12.5663 12.3218 12.5663Z" fill="#B1B1B1"/>
<path d="M22.8579 19.7474C22.8241 19.2602 22.7558 18.7288 22.6553 18.1677C22.5538 17.6024 22.4232 17.0679 22.2668 16.5795C22.1052 16.0746 21.8855 15.576 21.6139 15.0982C21.332 14.6023 21.0009 14.1705 20.6293 13.8152C20.2408 13.4434 19.7651 13.1445 19.215 12.9265C18.6668 12.7097 18.0593 12.5998 17.4095 12.5998C17.1543 12.5998 16.9075 12.7045 16.4309 13.0148C16.1375 13.2061 15.7944 13.4274 15.4114 13.6721C15.0839 13.8808 14.6402 14.0763 14.0923 14.2533C13.5576 14.4263 13.0148 14.514 12.479 14.514C11.9432 14.514 11.4006 14.4263 10.8654 14.2533C10.318 14.0765 9.87434 13.881 9.54723 13.6723C9.16786 13.4299 8.82454 13.2086 8.5268 13.0146C8.05073 12.7043 7.80373 12.5996 7.54852 12.5996C6.8985 12.5996 6.2912 12.7097 5.74322 12.9267C5.19352 13.1443 4.71764 13.4432 4.32873 13.8153C3.95737 14.1709 3.62606 14.6025 3.34454 15.0982C3.07312 15.576 2.85339 16.0744 2.69165 16.5797C2.53544 17.0681 2.40479 17.6024 2.30331 18.1677C2.2028 18.7281 2.13451 19.2597 2.10075 19.7479C2.06757 20.2263 2.05078 20.7228 2.05078 21.2242C2.05078 22.5292 2.46563 23.5857 3.28369 24.3648C4.09164 25.1337 5.16071 25.5237 6.46076 25.5237H18.4984C19.7985 25.5237 20.8672 25.1339 21.6753 24.3648C22.4936 23.5863 22.9084 22.5296 22.9084 21.224C22.9082 20.7203 22.8912 20.2234 22.8579 19.7474Z" fill="#B1B1B1"/>
</g>
<defs>
<clipPath id="clip0_9_3422">
<rect width="25" height="25" fill="white" transform="translate(0 0.523682)"/>
</clipPath>
</defs>
</svg>
