<svg width="24" height="25" viewBox="0 0 24 25" fill="none" xmlns="http://www.w3.org/2000/svg">
<path d="M20.7 16.4237C20.5702 16.3263 20.4123 16.2737 20.25 16.2737H19.5V6.52368C19.5 5.72803 19.1839 4.96497 18.6213 4.40236C18.0587 3.83975 17.2956 3.52368 16.5 3.52368H3.75C2.95435 3.52368 2.19129 3.83975 1.62868 4.40236C1.06607 4.96497 0.75 5.72803 0.75 6.52368C0.75 7.79962 1.69219 8.54306 1.8 8.62368C1.92947 8.72173 2.0876 8.77444 2.25 8.77368C2.40631 8.77325 2.55858 8.724 2.68553 8.6328C2.81248 8.5416 2.90776 8.41301 2.95806 8.26501C3.00836 8.11702 3.01115 7.957 2.96606 7.80733C2.92097 7.65767 2.83025 7.52583 2.70656 7.43024C2.70281 7.42556 2.25 7.06181 2.25 6.52368C2.25 6.12586 2.40804 5.74433 2.68934 5.46302C2.97064 5.18172 3.35218 5.02368 3.75 5.02368C4.14782 5.02368 4.52936 5.18172 4.81066 5.46302C5.09196 5.74433 5.25 6.12586 5.25 6.52368V18.5237C5.25 19.3193 5.56607 20.0824 6.12868 20.645C6.69129 21.2076 7.45435 21.5237 8.25 21.5237H18.75C19.5456 21.5237 20.3087 21.2076 20.8713 20.645C21.4339 20.0824 21.75 19.3193 21.75 18.5237C21.75 17.2477 20.8125 16.5043 20.7 16.4237ZM9.75 9.52368H15.75C15.9489 9.52368 16.1397 9.6027 16.2803 9.74335C16.421 9.884 16.5 10.0748 16.5 10.2737C16.5 10.4726 16.421 10.6634 16.2803 10.804C16.1397 10.9447 15.9489 11.0237 15.75 11.0237H9.75C9.55109 11.0237 9.36032 10.9447 9.21967 10.804C9.07902 10.6634 9 10.4726 9 10.2737C9 10.0748 9.07902 9.884 9.21967 9.74335C9.36032 9.6027 9.55109 9.52368 9.75 9.52368ZM9 13.2737C9 13.0748 9.07902 12.884 9.21967 12.7434C9.36032 12.6027 9.55109 12.5237 9.75 12.5237H15.75C15.9489 12.5237 16.1397 12.6027 16.2803 12.7434C16.421 12.884 16.5 13.0748 16.5 13.2737C16.5 13.4726 16.421 13.6634 16.2803 13.804C16.1397 13.9447 15.9489 14.0237 15.75 14.0237H9.75C9.55109 14.0237 9.36032 13.9447 9.21967 13.804C9.07902 13.6634 9 13.4726 9 13.2737ZM18.75 20.0237H10.0978C10.362 19.568 10.5007 19.0504 10.5 18.5237C10.5002 18.2694 10.4619 18.0165 10.3866 17.7737H19.9491C20.1353 17.9802 20.2425 18.2458 20.2519 18.5237C20.2519 18.7208 20.213 18.916 20.1375 19.0981C20.062 19.2803 19.9514 19.4457 19.8119 19.585C19.6724 19.7243 19.5068 19.8348 19.3246 19.91C19.1424 19.9853 18.9471 20.0239 18.75 20.0237Z" fill="#B1B1B1"/>
</svg>
