<svg width="25" height="26" viewBox="0 0 25 26" fill="none" xmlns="http://www.w3.org/2000/svg">
<path d="M24.3255 11.3975C24.3249 11.3969 24.3243 11.3963 24.3238 11.3958L14.1257 1.19812C13.6911 0.763245 13.1131 0.523682 12.4984 0.523682C11.8837 0.523682 11.3057 0.763054 10.8709 1.19793L0.678172 11.3904C0.674739 11.3939 0.671305 11.3975 0.667872 11.4009C-0.224767 12.2987 -0.223241 13.7553 0.672259 14.6508C1.08139 15.0602 1.62174 15.2972 2.19947 15.322C2.22293 15.3243 2.24658 15.3255 2.27043 15.3255H2.67688V22.8303C2.67688 24.3154 3.88519 25.5237 5.37063 25.5237H9.36042C9.76478 25.5237 10.0928 25.1958 10.0928 24.7913V18.9075C10.0928 18.2298 10.6441 17.6786 11.3217 17.6786H13.675C14.3527 17.6786 14.9039 18.2298 14.9039 18.9075V24.7913C14.9039 25.1958 15.2318 25.5237 15.6364 25.5237H19.6262C21.1116 25.5237 22.3199 24.3154 22.3199 22.8303V15.3255H22.6968C23.3113 15.3255 23.8893 15.0861 24.3243 14.6512C25.2208 13.7542 25.2212 12.2951 24.3255 11.3975Z" fill="#635EFD"/>
</svg>
