<svg width="25" height="26" viewBox="0 0 25 26" fill="none" xmlns="http://www.w3.org/2000/svg">
<g clip-path="url(#clip0_9_3363)">
<path d="M24.7852 1.77413L23.7495 0.738345C23.5336 0.52233 23.2063 0.46315 22.9286 0.589126L17.3654 3.04503C17.1465 3.14464 16.9906 3.34498 16.9477 3.58111C16.9051 3.81788 16.9805 4.06007 17.1505 4.23004L21.2936 8.37314C21.4636 8.54311 21.7058 8.61846 21.9425 8.57593C22.1787 8.53301 22.379 8.3772 22.4786 8.1582L24.9345 2.59493C25.0604 2.31725 25.0013 1.99005 24.7852 1.77413Z" fill="#B1B1B1"/>
<path d="M4.73145 16.6492L0.642589 20.738C-0.214196 21.5948 -0.214196 22.9886 0.642589 23.8453L1.67833 24.8811C2.53512 25.7379 3.92891 25.7379 4.78565 24.8811L8.87451 20.7922L4.73145 16.6492ZM4.27496 22.2948C3.98868 22.581 3.52535 22.581 3.23912 22.2948C2.95294 22.0085 2.95294 21.5452 3.23912 21.259L5.25645 19.2417C5.54273 18.9554 6.00601 18.9554 6.29219 19.2417C6.57847 19.528 6.57847 19.9912 6.29219 20.2774L4.27496 22.2948Z" fill="#B1B1B1"/>
<path d="M11.9818 17.6849L7.83868 13.5418C7.26763 12.9708 6.33814 12.9708 5.76715 13.5418C5.19611 14.1129 5.19611 15.0423 5.76715 15.6133L9.91026 19.7564C10.4812 20.3275 11.4107 20.3275 11.9818 19.7564C12.5528 19.1856 12.5528 18.256 11.9818 17.6849Z" fill="#B1B1B1"/>
<path d="M19.2222 8.37309L17.1506 6.30151L11.464 11.9881C10.8919 11.4161 9.96455 11.4161 9.39243 11.9881L8.87451 12.506L13.0176 16.6491L13.5355 16.1312C14.1076 15.5591 14.1076 14.6318 13.5355 14.0597L19.2222 8.37309Z" fill="#B1B1B1"/>
<path d="M23.7146 18.0215C22.5256 16.8325 21.0959 16.5768 19.4554 16.87L16.1256 13.5405L15.3304 14.3357C15.5922 15.3196 15.3377 16.3998 14.5708 17.1666L14.054 17.6835L16.3455 19.9748C16.1144 21.2678 16.1361 22.3644 16.9392 23.5539C17.8658 24.927 19.4876 25.7074 21.1868 25.4736C21.4677 25.4349 21.7023 25.2401 21.7926 24.9714C21.8828 24.7026 21.8132 24.4059 21.6128 24.2053L20.6055 23.1998V21.1285H22.679L23.6806 22.1303C23.8815 22.3311 24.1791 22.4003 24.448 22.3093C24.7171 22.2182 24.9113 21.9826 24.949 21.701C25.1279 20.3688 24.6921 18.9984 23.7146 18.0215Z" fill="#B1B1B1"/>
<path d="M8.64437 6.05604C8.93504 4.43266 8.69969 3.00454 7.49286 1.79682C6.67172 0.975732 5.57308 0.523682 4.39936 0.523682C4.20175 0.523682 4.00624 0.536572 3.81327 0.562109C3.53149 0.599512 3.2956 0.793945 3.20448 1.06323C3.11337 1.33242 3.18295 1.63008 3.38393 1.83105L4.39545 2.83252V4.91816H2.31376L1.30976 3.90009C1.10922 3.69955 0.812204 3.63017 0.543357 3.72065C0.274607 3.81113 0.0802229 4.04599 0.0415999 4.32699C-0.181544 5.95185 0.522507 7.60257 1.95898 8.5723C3.15292 9.37669 4.25614 9.39661 5.53944 9.16527L7.84027 11.4699L8.35731 10.9528C9.1242 10.1859 10.2043 9.93148 11.1882 10.1932L11.983 9.39837L8.64437 6.05604Z" fill="#B1B1B1"/>
</g>
<defs>
<clipPath id="clip0_9_3363">
<rect width="25" height="25" fill="white" transform="translate(0 0.523682)"/>
</clipPath>
</defs>
</svg>
