<svg width="25" height="26" viewBox="0 0 25 26" fill="none" xmlns="http://www.w3.org/2000/svg">
<g clip-path="url(#clip0_9_3390)">
<path d="M3.92074 10.7507H1.1367C0.509043 10.7507 0 11.2598 0 11.8874V24.3874C0 25.0146 0.509043 25.5236 1.1367 25.5236H3.92074C4.5484 25.5236 5.05692 25.0146 5.05692 24.3874V11.8874C5.05692 11.2598 4.5484 10.7507 3.92074 10.7507Z" fill="#B1B1B1"/>
<path d="M10.5687 14.1594H7.78465C7.15646 14.1594 6.64795 14.6685 6.64795 15.2961V24.3865C6.64795 25.0147 7.15646 25.5233 7.78465 25.5233H10.5687C11.1964 25.5233 11.7049 25.0142 11.7049 24.3865V15.2961C11.7049 14.6685 11.1964 14.1594 10.5687 14.1594Z" fill="#B1B1B1"/>
<path d="M17.2154 14.1594H14.4313C13.8037 14.1594 13.2952 14.6685 13.2952 15.2961V24.3865C13.2952 25.0147 13.8037 25.5233 14.4313 25.5233H17.2154C17.8436 25.5233 18.3521 25.0142 18.3521 24.3865V15.2961C18.3521 14.6685 17.8436 14.1594 17.2154 14.1594Z" fill="#B1B1B1"/>
<path d="M23.8633 10.7507H21.0793C20.4516 10.7507 19.9431 11.2598 19.9431 11.8874V24.3874C19.9431 25.0151 20.4516 25.5236 21.0793 25.5236H23.8633C24.491 25.5236 25 25.014 25 24.3874V11.8874C25 11.2598 24.491 10.7507 23.8633 10.7507Z" fill="#B1B1B1"/>
<path d="M12.8313 7.36938V9.41513C13.4504 9.37417 14.1031 9.08375 14.1031 8.40236C14.1031 7.69917 13.3877 7.49332 12.8313 7.36938Z" fill="#B1B1B1"/>
<path d="M11.0522 4.921C11.0522 5.43802 11.4368 5.73696 12.2118 5.89228V4.04175C11.5076 4.06249 11.0522 4.47632 11.0522 4.921Z" fill="#B1B1B1"/>
<path d="M12.5 0.523682C9.05372 0.523682 6.25 3.32794 6.25 6.77368C6.25 10.2184 9.05372 13.0226 12.5 13.0226C15.9463 13.0226 18.75 10.2184 18.75 6.77368C18.75 3.32794 15.9463 0.523682 12.5 0.523682ZM12.8314 10.47V11.1099C12.8314 11.2859 12.6963 11.4614 12.5197 11.4614C12.3452 11.4614 12.2117 11.2859 12.2117 11.1099V10.47C10.4654 10.4274 9.59681 9.38379 9.59681 8.5673C9.59681 8.15506 9.84628 7.91677 10.2367 7.91677C11.3941 7.91677 10.4941 9.34283 12.2117 9.41464V7.25506C10.6798 6.97687 9.75213 6.30506 9.75213 5.15826C9.75213 3.75347 10.9202 3.029 12.2117 2.98858V2.43751C12.2117 2.26145 12.3452 2.08592 12.5197 2.08592C12.6963 2.08592 12.8314 2.26145 12.8314 2.43751V2.98858C13.6367 3.00985 15.2904 3.51517 15.2904 4.52847C15.2904 4.93113 14.9894 5.16836 14.6378 5.16836C13.9654 5.16836 13.975 4.06358 12.8314 4.0423V6.0056C14.1952 6.29549 15.4032 6.69815 15.4032 8.28964C15.4032 9.67368 14.3702 10.3758 12.8314 10.47Z" fill="#B1B1B1"/>
</g>
<defs>
<clipPath id="clip0_9_3390">
<rect width="25" height="25" fill="white" transform="translate(0 0.523682)"/>
</clipPath>
</defs>
</svg>
