<svg width="25" height="26" viewBox="0 0 25 26" fill="none" xmlns="http://www.w3.org/2000/svg">
<g clip-path="url(#clip0_9_3382)">
<path d="M22.6985 9.93774H22.1678C21.9954 9.39819 21.7778 8.87407 21.5172 8.37051L21.8931 7.99463C22.8045 7.08423 22.7801 5.62524 21.8934 4.7395L20.7845 3.63062C19.8993 2.74424 18.44 2.71855 17.5293 3.63027L17.1532 4.00645C16.6496 3.7459 16.1254 3.52832 15.5859 3.35591V2.8251C15.5859 1.5561 14.5535 0.523682 13.2845 0.523682H11.7155C10.4465 0.523682 9.41406 1.5561 9.41406 2.8251V3.35591C8.87456 3.52827 8.35039 3.74585 7.84683 4.00645L7.471 3.63062C6.56216 2.7207 5.10293 2.74204 4.21592 3.63032L3.10688 4.73926C2.22056 5.62461 2.19492 7.08369 3.10659 7.99438L3.48276 8.37056C3.22217 8.87412 3.00464 9.39819 2.83223 9.93779H2.30146C1.03247 9.93774 0 10.9702 0 12.2392V13.8082C0 15.0772 1.03247 16.1096 2.30146 16.1096H2.83223C3.00464 16.6492 3.22217 17.1733 3.48276 17.6769L3.10688 18.0527C2.19551 18.9631 2.21992 20.4221 3.10659 21.3079L4.21553 22.4167C5.10073 23.3031 6.56001 23.3288 7.47065 22.4171L7.84683 22.0409C8.35039 22.3015 8.87456 22.519 9.41406 22.6915V23.2223C9.41406 24.4913 10.4465 25.5237 11.7155 25.5237H13.2845C14.5535 25.5237 15.586 24.4913 15.586 23.2223V22.6915C16.1255 22.5191 16.6497 22.3015 17.1532 22.0409L17.5291 22.4167C18.4379 23.3267 19.8971 23.3053 20.7841 22.417L21.8932 21.3081C22.7795 20.4227 22.8051 18.9636 21.8935 18.0529L21.5173 17.6768C21.7779 17.1732 21.9954 16.6491 22.1678 16.1095H22.6986C23.9676 16.1095 25 15.0771 25 13.8081V12.2391C25 10.9702 23.9675 9.93774 22.6985 9.93774ZM12.5 18.4631C9.50064 18.4631 7.06055 16.023 7.06055 13.0237C7.06055 10.0244 9.50064 7.58423 12.5 7.58423C15.4994 7.58423 17.9395 10.0244 17.9395 13.0237C17.9395 16.023 15.4994 18.4631 12.5 18.4631Z" fill="#B1B1B1"/>
</g>
<defs>
<clipPath id="clip0_9_3382">
<rect width="25" height="25" fill="white" transform="translate(0 0.523682)"/>
</clipPath>
</defs>
</svg>
